<svg width="32" height="32" viewBox="0 0 32 32" fill="none" xmlns="http://www.w3.org/2000/svg">
<path fill-rule="evenodd" clip-rule="evenodd" d="M7.03196 13.5016C6.66602 14.2972 6.66602 15.2024 6.66602 17.0127V22.6666C6.66602 25.1807 6.66602 26.4378 7.44706 27.2189C8.1928 27.9646 9.37251 27.9983 11.666 27.9998V21.3333C11.666 20.0447 12.7107 19 13.9993 19H17.9993C19.288 19 20.3327 20.0447 20.3327 21.3333V27.9998C22.6262 27.9983 23.8059 27.9646 24.5516 27.2189C25.3327 26.4378 25.3327 25.1807 25.3327 22.6666V17.0127C25.3327 15.2024 25.3327 14.2972 24.9667 13.5016C24.6008 12.7059 23.9135 12.1168 22.539 10.9387L22.539 10.9387L21.2057 9.79582C18.7213 7.66631 17.479 6.60156 15.9993 6.60156C14.5197 6.60156 13.2774 7.66632 10.793 9.79582L9.45968 10.9387C8.08517 12.1168 7.39791 12.7059 7.03196 13.5016ZM18.3327 27.9999V21.3333C18.3327 21.1492 18.1834 21 17.9993 21H13.9993C13.8153 21 13.666 21.1492 13.666 21.3333V27.9999H18.3327Z" fill="#1A1A1A"/>
</svg>
