<svg width="32" height="32" viewBox="0 0 32 32" fill="none" xmlns="http://www.w3.org/2000/svg">
<path fill-rule="evenodd" clip-rule="evenodd" d="M6.97368 15.9456C7.26387 15.6672 7.72247 15.6672 8.63968 15.6672L8.66873 15.6672C8.80975 15.6673 8.98663 15.6674 9.14362 15.6499C9.33653 15.6284 9.59094 15.5731 9.84057 15.4001C9.94744 15.326 10.0344 15.2436 10.1059 15.1599C10.1064 15.1593 10.1073 15.1593 10.1079 15.1599C10.4064 15.4981 10.7826 15.5992 11.0472 15.6364C11.2692 15.6675 11.5308 15.6673 11.7556 15.6672L11.7988 15.6672H14.4499L14.4856 15.6672C14.6632 15.6673 14.879 15.6675 15.0669 15.6435C15.2956 15.6144 15.6055 15.5376 15.884 15.2917C15.949 15.2343 16.0497 15.2343 16.1147 15.2917C16.3932 15.5376 16.7031 15.6144 16.9318 15.6435C17.1197 15.6675 17.3355 15.6673 17.5131 15.6672L17.5488 15.6672H20.1999L20.2431 15.6672C20.4679 15.6673 20.7295 15.6675 20.9515 15.6364C21.2161 15.5992 21.5923 15.4981 21.8908 15.1599C21.8914 15.1593 21.8923 15.1593 21.8928 15.1599C21.9643 15.2436 22.0513 15.326 22.1581 15.4001C22.4078 15.5731 22.6622 15.6284 22.8551 15.6499C23.0121 15.6674 23.189 15.6673 23.33 15.6672L23.359 15.6672C24.2762 15.6672 24.7348 15.6672 25.025 15.9456C25.035 15.9552 25.0447 15.9649 25.0543 15.9749C25.3327 16.265 25.3327 16.7236 25.3327 17.6409V26.0005C25.3327 26.9433 25.3327 27.4147 25.0398 27.7076C24.7469 28.0005 24.2755 28.0005 23.3327 28.0005H19.1834C19.2659 28.0001 19.3327 27.9331 19.3327 27.8505V22.0005C19.3327 20.896 18.4373 20.0005 17.3327 20.0005H14.666C13.5614 20.0005 12.666 20.896 12.666 22.0005V27.8505C12.666 27.9331 12.7328 28.0001 12.8153 28.0005H8.66601C7.72321 28.0005 7.2518 28.0005 6.95891 27.7076C6.66602 27.4147 6.66602 26.9433 6.66602 26.0005V17.6409C6.66602 16.7236 6.66602 16.265 6.94444 15.9749C6.95398 15.9649 6.96373 15.9552 6.97368 15.9456ZM6.87648 13.47C6.87636 13.4699 6.87956 13.4637 6.88768 13.4479C7.10935 13.0172 7.51992 12.7239 8.34106 12.1374L10.4037 10.6641C10.5646 10.5492 10.8057 10.7392 10.7363 10.9243L10.7198 10.9682L10.7195 10.969L9.82101 13.365L9.57601 14.0183C9.45831 14.3322 9.39946 14.4891 9.27098 14.5782C9.1425 14.6672 8.97489 14.6672 8.63968 14.6672H7.92009C7.83013 14.6672 7.78515 14.6672 7.67376 14.6414C7.25835 14.5451 6.82549 13.8355 6.92998 13.4221C6.95315 13.3305 6.87704 13.4703 6.87648 13.47ZM11.53 9.86413C11.5628 9.83616 11.6869 9.74754 11.935 9.5703L13.6744 8.32787C14.7971 7.52596 15.3584 7.125 15.9993 7.125C16.6403 7.125 17.2016 7.52596 18.3243 8.32787L20.0637 9.5703C20.3118 9.74754 20.4359 9.83616 20.4687 9.86413C20.6022 9.97809 20.6661 10.0302 20.7058 10.0967C20.7454 10.1633 20.7609 10.2442 20.7975 10.4159C20.8065 10.4581 20.8299 10.6451 20.8767 11.0193L20.8825 11.0659L20.8826 11.0667L21.1922 13.5432L21.2 13.6058C21.26 14.0882 21.2843 14.3359 21.1411 14.4981C20.9919 14.6672 20.7279 14.6672 20.1999 14.6672H17.5488C17.1285 14.6672 16.9183 14.6672 16.7765 14.542C16.6347 14.4169 16.6087 14.2083 16.5565 13.7912V13.7912L16.5032 13.365L16.2097 11.017L16.2041 10.9719L16.1978 10.9215C16.1244 10.3339 16.0876 10.0401 15.9993 10.0401C15.9111 10.0401 15.8743 10.3339 15.8009 10.9215L15.7946 10.9719L15.789 11.017L15.4955 13.365L15.4422 13.7912V13.7912C15.39 14.2083 15.364 14.4169 15.2222 14.542C15.0804 14.6672 14.8702 14.6672 14.4499 14.6672H11.7988C11.2708 14.6672 11.0068 14.6672 10.8576 14.4981C10.7144 14.3359 10.7387 14.0882 10.7987 13.6058L10.8065 13.5432L11.1161 11.0667L11.1162 11.0659L11.122 11.0193L11.122 11.0193C11.1688 10.6451 11.1922 10.4581 11.2012 10.4159C11.2378 10.2442 11.2533 10.1633 11.2929 10.0967C11.3326 10.0302 11.3965 9.97809 11.53 9.86413ZM21.5949 10.664C21.4341 10.5491 21.193 10.7391 21.2624 10.9242L21.2624 10.9243L21.2789 10.9682L21.2792 10.969L22.1777 13.365L22.4227 14.0183C22.5404 14.3322 22.5992 14.4891 22.7277 14.5782C22.8562 14.6672 23.0238 14.6672 23.359 14.6672H24.0786C24.1686 14.6672 24.2135 14.6672 24.3249 14.6414C24.7403 14.5451 25.1732 13.8355 25.0687 13.4221C25.0487 13.343 25.1028 13.4365 25.1182 13.4633C25.1244 13.474 25.1244 13.474 25.111 13.4479C24.8894 13.0172 24.4788 12.7239 23.6576 12.1374L21.5949 10.664Z" fill="#222222"/>
<path d="M6.28793 5.51493C6.46982 4.78737 6.56077 4.42359 6.83203 4.21179C7.10329 4 7.47827 4 8.22822 4H23.7718C24.5217 4 24.8967 4 25.168 4.21179C25.4392 4.42359 25.5302 4.78737 25.7121 5.51493L27.8447 14.0454C27.9162 14.3314 27.9519 14.4744 27.8769 14.5705C27.8018 14.6667 27.6544 14.6667 27.3596 14.6667H23.4107C23.0523 14.6667 22.8731 14.6667 22.7402 14.5678C22.6074 14.469 22.5559 14.2973 22.4529 13.954L21.2641 9.99155C21.0476 9.26969 20.9393 8.90876 20.8502 8.92642C20.7611 8.94407 20.7986 9.31902 20.8736 10.0689L21.2234 13.5672C21.2748 14.0808 21.3004 14.3377 21.1516 14.5022C21.0027 14.6667 20.7446 14.6667 20.2283 14.6667H17.5717C17.1416 14.6667 16.9265 14.6667 16.7837 14.5374C16.6408 14.4081 16.6194 14.1941 16.5766 13.7662L16.199 9.99007C16.1267 9.26668 16.0905 8.90499 16 8.90499C15.9095 8.90499 15.8733 9.26668 15.801 9.99007L15.4234 13.7662C15.3806 14.1941 15.3592 14.4081 15.2163 14.5374C15.0735 14.6667 14.8584 14.6667 14.4283 14.6667H11.7717C11.2554 14.6667 10.9973 14.6667 10.8484 14.5022C10.6996 14.3377 10.7252 14.0808 10.7766 13.5672L11.1264 10.0689C11.2014 9.31902 11.2389 8.94407 11.1498 8.92642C11.0607 8.90876 10.9524 9.26969 10.7359 9.99155L9.54713 13.954C9.44414 14.2973 9.39265 14.469 9.25978 14.5678C9.12692 14.6667 8.94772 14.6667 8.5893 14.6667H4.64039C4.3456 14.6667 4.19821 14.6667 4.12314 14.5705C4.04807 14.4744 4.08382 14.3314 4.15532 14.0454L6.28793 5.51493Z" fill="#007BFF"/>
</svg>
