<svg width="50" height="50" viewBox="0 0 50 50" fill="none" xmlns="http://www.w3.org/2000/svg">
<rect width="50" height="50" rx="25" fill="#007BFF"/>
<mask id="mask0_4125_3860" style="mask-type:alpha" maskUnits="userSpaceOnUse" x="13" y="13" width="24" height="24">
<rect x="13" y="13" width="24" height="24" fill="#D9D9D9"/>
</mask>
<g mask="url(#mask0_4125_3860)">
<path d="M20 34V27.925C18.5333 27.6917 17.3333 27.0125 16.4 25.8875C15.4667 24.7625 15 23.4667 15 22C15 20.3333 15.5833 18.9167 16.75 17.75C17.9167 16.5833 19.3333 16 21 16C22.4667 16 23.7625 16.4667 24.8875 17.4C26.0125 18.3333 26.6917 19.5333 26.925 21H31.175L29.6 19.4L31 18L35 22L31 26L29.575 24.6L31.175 23H26.9C26.4167 23 25.9917 22.8417 25.625 22.525C25.2583 22.2083 25.0333 21.8083 24.95 21.325C24.7833 20.3583 24.3292 19.5625 23.5875 18.9375C22.8458 18.3125 21.9833 18 21 18C19.9 18 18.9583 18.3917 18.175 19.175C17.3917 19.9583 17 20.9 17 22C17 22.9833 17.3125 23.8458 17.9375 24.5875C18.5625 25.3292 19.3583 25.7833 20.325 25.95C20.8083 26.0333 21.2083 26.2583 21.525 26.625C21.8417 26.9917 22 27.4167 22 27.9V34H20Z" fill="#2FFF8D"/>
</g>
</svg>
