<svg width="50" height="50" viewBox="0 0 50 50" fill="none" xmlns="http://www.w3.org/2000/svg">
<rect width="50" height="50" rx="25" fill="#007BFF"/>
<mask id="mask0_4125_3853" style="mask-type:alpha" maskUnits="userSpaceOnUse" x="13" y="13" width="24" height="24">
<rect x="13" y="13" width="24" height="24" fill="#D9D9D9"/>
</mask>
<g mask="url(#mask0_4125_3853)">
<path d="M22.2492 35L21.8492 31.8C21.6326 31.7167 21.4284 31.6167 21.2367 31.5C21.0451 31.3833 20.8576 31.2583 20.6742 31.125L17.6992 32.375L14.9492 27.625L17.5242 25.675C17.5076 25.5583 17.4992 25.4458 17.4992 25.3375V24.6625C17.4992 24.5542 17.5076 24.4417 17.5242 24.325L14.9492 22.375L17.6992 17.625L20.6742 18.875C20.8576 18.7417 21.0492 18.6167 21.2492 18.5C21.4492 18.3833 21.6492 18.2833 21.8492 18.2L22.2492 15H27.7492L28.1492 18.2C28.3659 18.2833 28.5701 18.3833 28.7617 18.5C28.9534 18.6167 29.1409 18.7417 29.3242 18.875L32.2992 17.625L35.0492 22.375L32.4742 24.325C32.4909 24.4417 32.4992 24.5542 32.4992 24.6625V25.3375C32.4992 25.4458 32.4826 25.5583 32.4492 25.675L35.0242 27.625L32.2742 32.375L29.3242 31.125C29.1409 31.2583 28.9492 31.3833 28.7492 31.5C28.5492 31.6167 28.3492 31.7167 28.1492 31.8L27.7492 35H22.2492ZM23.9992 33H25.9742L26.3242 30.35C26.8409 30.2167 27.3201 30.0208 27.7617 29.7625C28.2034 29.5042 28.6076 29.1917 28.9742 28.825L31.4492 29.85L32.4242 28.15L30.2742 26.525C30.3576 26.2917 30.4159 26.0458 30.4492 25.7875C30.4826 25.5292 30.4992 25.2667 30.4992 25C30.4992 24.7333 30.4826 24.4708 30.4492 24.2125C30.4159 23.9542 30.3576 23.7083 30.2742 23.475L32.4242 21.85L31.4492 20.15L28.9742 21.2C28.6076 20.8167 28.2034 20.4958 27.7617 20.2375C27.3201 19.9792 26.8409 19.7833 26.3242 19.65L25.9992 17H24.0242L23.6742 19.65C23.1576 19.7833 22.6784 19.9792 22.2367 20.2375C21.7951 20.4958 21.3909 20.8083 21.0242 21.175L18.5492 20.15L17.5742 21.85L19.7242 23.45C19.6409 23.7 19.5826 23.95 19.5492 24.2C19.5159 24.45 19.4992 24.7167 19.4992 25C19.4992 25.2667 19.5159 25.525 19.5492 25.775C19.5826 26.025 19.6409 26.275 19.7242 26.525L17.5742 28.15L18.5492 29.85L21.0242 28.8C21.3909 29.1833 21.7951 29.5042 22.2367 29.7625C22.6784 30.0208 23.1576 30.2167 23.6742 30.35L23.9992 33ZM25.0492 28.5C26.0159 28.5 26.8409 28.1583 27.5242 27.475C28.2076 26.7917 28.5492 25.9667 28.5492 25C28.5492 24.0333 28.2076 23.2083 27.5242 22.525C26.8409 21.8417 26.0159 21.5 25.0492 21.5C24.0659 21.5 23.2367 21.8417 22.5617 22.525C21.8867 23.2083 21.5492 24.0333 21.5492 25C21.5492 25.9667 21.8867 26.7917 22.5617 27.475C23.2367 28.1583 24.0659 28.5 25.0492 28.5Z" fill="#2FFF8D"/>
</g>
</svg>
