<svg width="26" height="25" viewBox="0 0 26 25" fill="none" xmlns="http://www.w3.org/2000/svg">
<path d="M4.31707 19.0163C3.14952 17.8466 2.2533 16.5178 1.62841 15.03C1.00374 13.542 0.691406 11.9771 0.691406 10.3353C0.691406 8.69357 1.00374 7.12857 1.62841 5.64034C2.2533 4.1519 3.14952 2.82257 4.31707 1.65234L5.19907 2.53434C4.15463 3.57879 3.34907 4.77323 2.78241 6.11768C2.21574 7.46212 1.93241 8.86768 1.93241 10.3343C1.93241 11.801 2.21574 13.2066 2.78241 14.551C3.34907 15.8955 4.15463 17.0899 5.19907 18.1343L4.31707 19.0163ZM7.38374 15.9497C6.6393 15.201 6.07107 14.3441 5.67907 13.379C5.2873 12.4137 5.09141 11.3991 5.09141 10.3353C5.09141 9.27135 5.2873 8.25657 5.67907 7.29101C6.07107 6.32523 6.6393 5.4679 7.38374 4.71901L8.26574 5.60101C7.6213 6.24546 7.13796 6.97323 6.81574 7.78434C6.49352 8.59546 6.33241 9.44546 6.33241 10.3343C6.33241 11.2232 6.49352 12.0732 6.81574 12.8843C7.13796 13.6955 7.6213 14.4232 8.26574 15.0677L7.38374 15.9497ZM12.3324 23.8217V12.7857C11.7666 12.6557 11.309 12.3642 10.9594 11.9113C10.6099 11.4582 10.4351 10.9326 10.4351 10.3343C10.4351 9.61634 10.6829 9.00946 11.1784 8.51368C11.6742 8.01812 12.2811 7.77035 12.9991 7.77035C13.7171 7.77035 14.324 8.01812 14.8197 8.51368C15.3153 9.00946 15.5631 9.61634 15.5631 10.3343C15.5631 10.9326 15.3883 11.4582 15.0387 11.9113C14.6892 12.3642 14.2315 12.6557 13.6657 12.7857V23.8217H12.3324ZM18.6144 15.9497L17.7324 15.0677C18.3769 14.4232 18.8602 13.6955 19.1824 12.8843C19.5046 12.0732 19.6657 11.2232 19.6657 10.3343C19.6657 9.44546 19.5046 8.59546 19.1824 7.78434C18.8602 6.97323 18.3769 6.24546 17.7324 5.60101L18.6144 4.71901C19.3589 5.46768 19.9271 6.32457 20.3191 7.28968C20.7109 8.25501 20.9067 9.26957 20.9067 10.3333C20.9067 11.3973 20.7109 12.4121 20.3191 13.3777C19.9271 14.3435 19.3589 15.2008 18.6144 15.9497ZM21.6811 19.0163L20.7991 18.1343C21.8435 17.0899 22.6491 15.8955 23.2157 14.551C23.7824 13.2066 24.0657 11.801 24.0657 10.3343C24.0657 8.86768 23.7824 7.46212 23.2157 6.11768C22.6491 4.77323 21.8435 3.57879 20.7991 2.53434L21.6811 1.65234C22.8486 2.82212 23.7449 4.1509 24.3697 5.63868C24.9944 7.12668 25.3067 8.69157 25.3067 10.3333C25.3067 11.9751 24.9944 13.5401 24.3697 15.0283C23.7449 16.5168 22.8486 17.8461 21.6811 19.0163Z" fill="#2FFF8D" stroke="#2FFF8D"/>
</svg>
