<svg width="32" height="32" viewBox="0 0 32 32" fill="none" xmlns="http://www.w3.org/2000/svg">
<path d="M3.5 15.9993C3.49582 18.7886 4.42335 21.4994 6.13539 23.7015C7.84753 25.9037 10.2462 27.4709 12.9506 28.1545C15.655 28.838 18.5103 28.5986 21.0631 27.4744C23.616 26.3501 25.7202 24.4054 27.0418 21.9489C28.3635 19.4924 28.8267 16.6648 28.3581 13.915C27.8894 11.1652 26.5158 8.65071 24.4551 6.77062C22.3944 4.89053 19.7648 3.75258 16.9837 3.53739C14.2025 3.3222 11.4292 4.04209 9.10383 5.58282L7.72013 6.49963H9.38H10C10.1326 6.49963 10.2598 6.5523 10.3536 6.64607C10.4473 6.73984 10.5 6.86702 10.5 6.99963C10.5 7.13223 10.4473 7.25941 10.3536 7.35318C10.2598 7.44695 10.1326 7.49963 10 7.49963H7C6.86739 7.49963 6.74021 7.44695 6.64645 7.35318C6.55268 7.25941 6.5 7.13223 6.5 6.99963V3.99963C6.5 3.86702 6.55268 3.73984 6.64645 3.64607C6.74021 3.5523 6.86739 3.49963 7 3.49963C7.13261 3.49963 7.25979 3.5523 7.35355 3.64607C7.44732 3.73984 7.5 3.86702 7.5 3.99963V4.51363V5.47153L8.28588 4.92383C10.3097 3.51339 12.6814 2.68456 15.1432 2.52742C17.605 2.37027 20.0628 2.89082 22.2496 4.0325C24.4363 5.17417 26.2683 6.89331 27.5466 9.00312C28.8249 11.1129 29.5005 13.5327 29.5 15.9995V15.9996C29.5 19.58 28.0777 23.0138 25.5459 25.5456C23.0142 28.0773 19.5804 29.4996 16 29.4996C12.4196 29.4996 8.9858 28.0773 6.45406 25.5456C3.92232 23.0138 2.5 19.58 2.5 15.9996C2.5 15.867 2.55268 15.7398 2.64645 15.6461C2.74021 15.5523 2.86739 15.4996 3 15.4996C3.13261 15.4996 3.25979 15.5523 3.35355 15.6461L3.6957 15.3039L3.35355 15.6461C3.44725 15.7398 3.49992 15.8668 3.5 15.9993ZM3.5 15.9993C3.5 15.9992 3.5 15.999 3.5 15.9989L4 15.9996M3.5 15.9993C3.5 15.9994 3.5 15.9995 3.5 15.9996H4M4 15.9996C3.99589 18.6777 4.88638 21.2804 6.53013 23.3946C8.17388 25.5088 10.4767 27.0135 13.0731 27.6697C15.6695 28.3259 18.4107 28.0961 20.8616 27.0168C23.3125 25.9375 25.3327 24.0704 26.6015 21.712C27.8703 19.3536 28.3151 16.639 27.8652 13.999C27.4153 11.3591 26.0965 8.94498 24.1181 7.13999C22.1397 5.33499 19.6152 4.24249 16.9451 4.0359C14.5888 3.85358 12.2384 4.3704 10.1842 5.51097L30 15.9996C30 19.7127 28.525 23.2736 25.8995 25.8991C23.274 28.5246 19.713 29.9996 16 29.9996C12.287 29.9996 8.72601 28.5246 6.1005 25.8991C3.475 23.2736 2 19.7127 2 15.9996C2 15.7344 2.10536 15.4801 2.29289 15.2925C2.48043 15.105 2.73478 14.9996 3 14.9996C3.26522 14.9996 3.51957 15.105 3.70711 15.2925C3.89464 15.4801 4 15.7344 4 15.9996ZM19.8325 16.7517L19.8323 16.7516L17.5 15.197V10.9996C17.5 10.6018 17.342 10.2203 17.0607 9.93897C16.7794 9.65766 16.3978 9.49963 16 9.49963C15.6022 9.49963 15.2206 9.65766 14.9393 9.93897C14.658 10.2203 14.5 10.6018 14.5 10.9996V15.9996C14.5 15.9996 14.5 15.9996 14.5 15.9996C14.5 16.2465 14.5609 16.4895 14.6773 16.7072C14.7937 16.9249 14.9621 17.1105 15.1675 17.2476L15.1676 17.2477L18.1675 19.2476C18.4985 19.4684 18.9036 19.5486 19.2938 19.4707C19.6839 19.3928 20.0272 19.1631 20.2479 18.8321C20.4687 18.5011 20.549 18.096 20.4711 17.7058C20.3932 17.3157 20.1634 16.9725 19.8325 16.7517ZM24.5 16.0002C24.4999 17.6811 24.0014 19.3243 23.0675 20.722C22.1335 22.1198 20.806 23.2093 19.2528 23.8526C17.6996 24.4959 15.9906 24.6643 14.3417 24.3363C12.6929 24.0083 11.1783 23.1988 9.98959 22.01C8.80085 20.8213 7.9913 19.3067 7.66333 17.6579C7.33535 16.0091 7.50368 14.3 8.14702 12.7468C8.79037 11.1936 9.87983 9.86613 11.2777 8.93213C12.6754 7.99817 14.3188 7.49965 15.9999 7.49963C18.2534 7.50224 20.414 8.39862 22.0075 9.99214C23.6011 11.5858 24.4975 13.7465 24.5 16.0002Z" fill="#222831" stroke="#1A1A1A"/>
</svg>
