<svg width="28" height="28" viewBox="0 0 28 28" fill="none" xmlns="http://www.w3.org/2000/svg">
<path d="M1.5 13.9993C1.49582 16.7886 2.42335 19.4994 4.13539 21.7015C5.84753 23.9037 8.24617 25.4709 10.9506 26.1545C13.655 26.838 16.5103 26.5986 19.0631 25.4744C21.616 24.3501 23.7202 22.4054 25.0418 19.9489C26.3635 17.4924 26.8267 14.6648 26.3581 11.915C25.8894 9.16522 24.5158 6.65071 22.4551 4.77062C20.3944 2.89053 17.7648 1.75258 14.9837 1.53739C12.2025 1.3222 9.42918 2.04209 7.10383 3.58282L5.72013 4.49963H7.38H8C8.13261 4.49963 8.25978 4.5523 8.35355 4.64607C8.44732 4.73984 8.5 4.86702 8.5 4.99963C8.5 5.13223 8.44732 5.25941 8.35355 5.35318C8.25978 5.44695 8.13261 5.49963 8 5.49963H5C4.86739 5.49963 4.74022 5.44695 4.64645 5.35318C4.55268 5.25941 4.5 5.13223 4.5 4.99963V1.99963C4.5 1.86702 4.55268 1.73984 4.64645 1.64607C4.74021 1.5523 4.86739 1.49963 5 1.49963C5.13261 1.49963 5.25979 1.5523 5.35355 1.64607C5.44732 1.73984 5.5 1.86702 5.5 1.99963V2.51363V3.47153L6.28588 2.92383C8.30971 1.51339 10.6814 0.684563 13.1432 0.527418C15.605 0.370274 18.0628 0.89082 20.2496 2.0325C22.4363 3.17417 24.2683 4.89331 25.5466 7.00312C26.8249 9.11292 27.5005 11.5327 27.5 13.9995V13.9996C27.5 17.58 26.0777 21.0138 23.5459 23.5456C21.0142 26.0773 17.5804 27.4996 14 27.4996C10.4196 27.4996 6.9858 26.0773 4.45406 23.5456C1.92232 21.0138 0.5 17.58 0.5 13.9996C0.5 13.867 0.552678 13.7398 0.646446 13.6461C0.740215 13.5523 0.867392 13.4996 1 13.4996C1.13261 13.4996 1.25979 13.5523 1.35355 13.6461C1.44725 13.7398 1.49992 13.8668 1.5 13.9993ZM1.5 13.9993C1.5 13.9992 1.5 13.999 1.5 13.9989L2 13.9996H1.5C1.5 13.9995 1.5 13.9994 1.5 13.9993ZM17.8325 14.7517L17.8323 14.7516L15.5 13.197V8.99963C15.5 8.6018 15.342 8.22027 15.0607 7.93897C14.7794 7.65766 14.3978 7.49963 14 7.49963C13.6022 7.49963 13.2206 7.65766 12.9393 7.93897C12.658 8.22027 12.5 8.6018 12.5 8.99963V13.9996C12.5 13.9996 12.5 13.9996 12.5 13.9996C12.5 14.2465 12.5609 14.4895 12.6773 14.7072C12.7937 14.9249 12.9621 15.1105 13.1675 15.2476L13.1676 15.2477L16.1675 17.2476C16.4985 17.4684 16.9036 17.5486 17.2938 17.4707C17.6839 17.3928 18.0272 17.1631 18.2479 16.8321C18.4687 16.5011 18.549 16.096 18.4711 15.7058C18.3932 15.3157 18.1634 14.9725 17.8325 14.7517ZM22.5 14.0002C22.4999 15.6811 22.0014 17.3243 21.0675 18.722C20.1335 20.1198 18.806 21.2093 17.2528 21.8526C15.6996 22.4959 13.9906 22.6643 12.3417 22.3363C10.6929 22.0083 9.17834 21.1988 7.98959 20.01C6.80085 18.8213 5.9913 17.3067 5.66333 15.6579C5.33535 14.0091 5.50368 12.3 6.14702 10.7468C6.79037 9.19364 7.87983 7.86613 9.27765 6.93213C10.6754 5.99817 12.3188 5.49965 13.9999 5.49963C16.2534 5.50224 18.414 6.39862 20.0075 7.99214C21.6011 9.58576 22.4975 11.7465 22.5 14.0002Z" fill="#1A1A1A" stroke="#1A1A1A"/>
</svg>
