<svg width="24" height="24" viewBox="0 0 24 24" fill="none" xmlns="http://www.w3.org/2000/svg">
<path d="M23.9983 0.69602C23.9868 0.537527 23.9216 0.387543 23.8131 0.270489C23.6142 0.017599 23.259 -0.0750728 22.9538 0.0661146L22.9398 0.0726771C22.9293 0.0774583 22.9191 0.0826146 22.9089 0.0879114L5.26317 8.65947C5.03926 8.76822 4.88922 8.98572 4.86855 9.23219C4.84788 9.47865 4.95908 9.71781 5.16195 9.86209L10.0648 13.3486L0.216161 22.7915C-0.0389736 23.0362 -0.0724144 23.4302 0.138022 23.7135C0.20393 23.8024 0.290049 23.8747 0.389402 23.9244C0.488754 23.9742 0.598544 24.0001 0.709874 24C0.825333 24 0.942115 23.972 1.04949 23.9139L19.6543 13.8474C19.7597 13.7904 19.8487 13.7079 19.9131 13.6075C19.9774 13.5071 20.015 13.3922 20.0223 13.2735C20.0297 13.1548 20.0066 13.0361 19.9551 12.9286C19.9036 12.8211 19.8254 12.7284 19.7278 12.659L15.1847 9.4285L23.7817 1.25336C23.8568 1.18189 23.9152 1.09491 23.9526 0.998589C23.99 0.902271 24.0056 0.798973 23.9982 0.69602H23.9983Z" fill="#FFD74A"/>
<path d="M23.9982 0.69602C23.9868 0.537527 23.9215 0.387543 23.8131 0.270489C23.6141 0.017599 23.259 -0.0750728 22.9537 0.0661146L22.9397 0.0726771C22.9292 0.0774583 22.919 0.0826145 22.9089 0.0879114L12 5.38698V17.9888L19.6542 13.8474C19.7596 13.7904 19.8486 13.7078 19.913 13.6074C19.9774 13.507 20.015 13.392 20.0224 13.2733C20.0297 13.1546 20.0066 13.0359 19.955 12.9285C19.9035 12.821 19.8253 12.7283 19.7278 12.659L15.1846 9.42831L23.7816 1.25336C23.8568 1.18189 23.9151 1.09491 23.9525 0.998589C23.9899 0.90227 24.0055 0.798973 23.9982 0.69602H23.9982Z" fill="#EAE557"/>
</svg>
