<svg width="25" height="24" viewBox="0 0 25 24" fill="none" xmlns="http://www.w3.org/2000/svg">
<path d="M11.9834 5.04463L12.7078 7.75054L13.4323 5.04463C14.109 2.51736 16.2053 0.75 18.6078 0.75C21.5253 0.75 24.0088 3.37365 24.0088 6.76326C24.0088 8.1202 23.7006 9.47233 23.2075 10.7555C21.2618 15.8177 17.1704 19.4909 13.0648 22.7669C12.7222 21.9247 12.2946 21.0546 12.0466 20.6644L11.4136 21.0667L12.0466 20.6644C11.4057 19.6561 10.6289 18.782 9.80708 18.003L9.2911 18.5473L9.80708 18.003C8.35454 16.6261 6.73397 15.4771 5.18096 14.376C4.90857 14.1829 4.63826 13.9912 4.3713 13.8001C2.10445 12.1769 1.15152 8.90079 1.6275 5.94624C2.10109 3.00658 3.9041 0.749774 6.80831 0.75H6.80832C9.21072 0.750152 11.3068 2.51746 11.9834 5.04463Z" stroke="#121212" stroke-width="1.5"/>
</svg>
