<svg width="25" height="24" viewBox="0 0 25 24" fill="none" xmlns="http://www.w3.org/2000/svg">
<path d="M6.05144 20.3276L6.11747 20.7505H6.54545H9.52191H10.0219V20.2505V14.0391C10.0219 13.9011 10.1338 13.7891 10.2719 13.7891H15.6403C15.7784 13.7891 15.8903 13.9011 15.8903 14.0391V20.2505V20.7505H16.3903H19.3668H19.7948L19.8608 20.3276L19.9733 19.6071C20.456 16.5162 20.4144 13.366 19.8501 10.2888C19.8028 10.0311 19.6757 9.79473 19.4866 9.61328L14.8601 5.17395C13.7961 4.15295 12.1161 4.15295 11.0521 5.17395L6.42567 9.61328L6.77186 9.97405L6.42567 9.61328C6.23658 9.79473 6.10939 10.0311 6.06212 10.2888C5.49786 13.366 5.4562 16.5162 5.93892 19.6071L6.05144 20.3276ZM15.3903 14.7891V14.2891H14.8903H11.0219H10.5219V14.7891V21.0005C10.5219 21.1385 10.41 21.2505 10.2719 21.2505H6.10318C5.86505 21.2505 5.66241 21.077 5.62567 20.8417L5.4449 19.6843C4.95352 16.5378 4.99592 13.331 5.57032 10.1987C5.63652 9.83765 5.81466 9.50663 6.07949 9.25251L10.7059 4.81318C11.9634 3.60655 13.9488 3.60655 15.2063 4.81318L19.8327 9.25251C20.0976 9.50663 20.2757 9.83765 20.3419 10.1987C20.9163 13.331 20.9587 16.5378 20.4673 19.6843L20.2866 20.8417C20.2498 21.077 20.0472 21.2505 19.8091 21.2505H15.6403C15.5023 21.2505 15.3903 21.1385 15.3903 21.0005V14.7891Z" stroke="#121212"/>
</svg>
