<svg width="27" height="24" viewBox="0 0 27 24" fill="none" xmlns="http://www.w3.org/2000/svg">
<path d="M16.9099 8C16.9099 9.76218 15.4024 11.25 13.4679 11.25C11.5334 11.25 10.0259 9.76218 10.0259 8C10.0259 6.23782 11.5334 4.75 13.4679 4.75C15.4024 4.75 16.9099 6.23782 16.9099 8Z" stroke="#121212" stroke-width="1.5" stroke-linecap="round"/>
<path d="M6.0156 16.8057C6.69949 14.5409 9.07048 13.5 11.4364 13.5H15.4994C17.8653 13.5 20.2363 14.5409 20.9202 16.8057C21.0772 17.3257 21.2031 17.8941 21.2715 18.5017C21.3333 19.0506 20.8802 19.5 20.3279 19.5H6.60791C6.05563 19.5 5.60251 19.0506 5.6643 18.5017C5.73271 17.8941 5.85861 17.3257 6.0156 16.8057Z" stroke="#121212" stroke-width="1.5" stroke-linecap="round"/>
</svg>
