<svg width="24" height="24" viewBox="0 0 24 24" fill="none" xmlns="http://www.w3.org/2000/svg">
<path d="M18.4996 12.3682C19.2406 11.5189 19.6875 10.419 19.6875 9.21722C19.6875 6.52783 17.2616 4.34766 14.5 4.34766C11.7384 4.34766 9.5 6.52783 9.5 9.21722L14.5 14.0868C15.2378 14.0868 16.126 13.931 16.7566 13.6516C17.3278 14.3465 18.1494 14.7824 19.0625 14.7824C18.4753 14.1289 18.2875 13.1984 18.4996 12.3682Z" fill="#E87288"/>
<path d="M12.0766 9.91294C13.5288 10.7651 14.5 12.3154 14.5 14.0869C14.5 16.7762 12.2616 18.9564 9.5 18.9564C8.76219 18.9564 7.87403 18.8006 7.24344 18.5212C6.67222 19.2162 5.85056 19.6521 4.9375 19.6521C5.52469 18.9985 5.7125 18.0681 5.50038 17.2378C4.75938 16.3885 4.3125 15.2886 4.3125 14.0869C4.3125 11.3975 6.73841 9.21729 9.5 9.21729C10.4425 9.21729 11.3243 9.4712 12.0766 9.91294Z" fill="#CAE9FC"/>
<path d="M12 7.47803C11.8275 7.47803 11.6875 7.63385 11.6875 7.82585C11.6875 8.01785 11.8275 8.17368 12 8.17368C12.1725 8.17368 12.3125 8.01785 12.3125 7.82585C12.3125 7.63385 12.1725 7.47803 12 7.47803ZM6.8125 13.7389C6.985 13.7389 7.125 13.5831 7.125 13.3911C7.125 13.1991 6.985 13.0432 6.8125 13.0432C6.64 13.0432 6.5 13.1991 6.5 13.3911C6.5 13.5831 6.64 13.7389 6.8125 13.7389Z" fill="black"/>
<path d="M14.5 4C11.6867 4 9.37756 6.15896 9.19897 8.8784C6.51969 9.02797 4 11.1784 4 14.087C4 15.3024 4.43212 16.4802 5.21875 17.4133C5.37437 18.1274 5.18544 18.8844 4.71656 19.4063C4.67284 19.4549 4.64306 19.5169 4.63099 19.5843C4.61892 19.6518 4.62511 19.7218 4.64876 19.7853C4.67241 19.8489 4.71247 19.9032 4.76387 19.9414C4.81526 19.9796 4.87569 20 4.9375 20C5.82875 20 6.68762 19.611 7.32581 18.9256C7.9475 19.1614 8.75866 19.3043 9.5 19.3043C12.313 19.3043 14.6218 17.1459 14.8009 14.427C15.4552 14.3947 16.1357 14.2602 16.6742 14.056C17.3124 14.7414 18.1713 15.1304 19.0625 15.1304C19.1243 15.1305 19.1847 15.1101 19.2361 15.0718C19.2875 15.0336 19.3276 14.9793 19.3512 14.9157C19.3749 14.8522 19.3811 14.7822 19.369 14.7148C19.3569 14.6473 19.3272 14.5853 19.2834 14.5367C18.8146 14.0148 18.6256 13.2579 18.7812 12.5438C19.5679 11.6106 20 10.4329 20 9.21739C20 6.19523 17.2863 4 14.5 4ZM9.5 18.6087C8.76244 18.6087 7.922 18.4475 7.359 18.1983C7.30007 18.1721 7.23538 18.1666 7.17354 18.1823C7.11171 18.1981 7.05565 18.2345 7.01281 18.2865C6.6355 18.7457 6.14491 19.0658 5.61034 19.2129C5.90931 18.5753 5.9775 17.8345 5.80091 17.1426C5.78676 17.0874 5.76051 17.0369 5.7245 16.9957C5.0155 16.1829 4.625 15.1499 4.625 14.087C4.625 11.6359 6.85744 9.56522 9.5 9.56522C11.9954 9.56522 14.1875 11.4966 14.1875 14.087C14.1875 16.5803 12.0847 18.6087 9.5 18.6087ZM18.2755 12.1261C18.2395 12.1673 18.2133 12.2178 18.1991 12.2731C18.0225 12.9649 18.0907 13.7058 18.3897 14.3434C17.8551 14.1963 17.3645 13.8761 16.9872 13.417C16.9443 13.3649 16.8883 13.3286 16.8264 13.3128C16.7646 13.297 16.6999 13.3026 16.641 13.3287C16.1531 13.5447 15.457 13.6943 14.7999 13.7304C14.7086 12.4151 14.1191 11.1788 13.1113 10.2609H17.1875C17.3601 10.2609 17.5 10.1051 17.5 9.91304C17.5 9.72094 17.3601 9.56522 17.1875 9.56522H12.1512C11.4419 9.1633 10.6454 8.92894 9.82556 8.87976C10.0051 6.54362 12.0331 4.69565 14.5 4.69565C17.1426 4.69565 19.375 6.7663 19.375 9.21739C19.375 10.2803 18.9845 11.3133 18.2755 12.1261Z" fill="black"/>
<path d="M12 13.0432H8.0625C7.88991 13.0432 7.75 13.199 7.75 13.3911C7.75 13.5832 7.88991 13.7389 8.0625 13.7389H12C12.1726 13.7389 12.3125 13.5832 12.3125 13.3911C12.3125 13.199 12.1726 13.0432 12 13.0432ZM12 15.1302H6.8125C6.63991 15.1302 6.5 15.2859 6.5 15.478C6.5 15.6701 6.63991 15.8259 6.8125 15.8259H12C12.1726 15.8259 12.3125 15.6701 12.3125 15.478C12.3125 15.2859 12.1726 15.1302 12 15.1302ZM17.1875 7.47803H13.25C13.0774 7.47803 12.9375 7.63375 12.9375 7.82585C12.9375 8.01796 13.0774 8.17368 13.25 8.17368H17.1875C17.3601 8.17368 17.5 8.01796 17.5 7.82585C17.5 7.63375 17.3601 7.47803 17.1875 7.47803Z" fill="black"/>
</svg>
