<svg width="48" height="48" viewBox="0 0 48 48" fill="none" xmlns="http://www.w3.org/2000/svg">
<path d="M46.7703 38.8479L9.14837 1.22962C8.36073 0.442294 7.2926 0 6.17888 0C5.06516 0 3.99703 0.442294 3.2094 1.22962L1.22974 3.20908C0.442337 3.99665 0 5.06467 0 6.17828C0 7.2919 0.442337 8.35992 1.22974 9.14748L38.8516 46.7657C39.6393 47.5531 40.7074 47.9953 41.8211 47.9953C42.9348 47.9953 44.003 47.5531 44.7906 46.7657L46.7703 44.7863C47.5577 43.9987 48 42.9307 48 41.8171C48 40.7034 47.5577 39.6354 46.7703 38.8479Z" fill="#121212"/>
<path d="M38.8516 1.22962L1.22974 38.8479C0.442337 39.6354 0 40.7034 0 41.8171C0 42.9307 0.442337 43.9987 1.22974 44.7863L3.2094 46.7657C3.99703 47.5531 5.06516 47.9953 6.17888 47.9953C7.2926 47.9953 8.36073 47.5531 9.14837 46.7657L46.7703 9.14748C47.5577 8.35992 48 7.2919 48 6.17828C48 5.06467 47.5577 3.99665 46.7703 3.20908L44.7906 1.22962C44.003 0.442294 42.9348 0 41.8211 0C40.7074 0 39.6393 0.442294 38.8516 1.22962Z" fill="#121212"/>
<path d="M6.18028 0.000987473C5.10505 0.000987473 4.02982 0.40976 3.2094 1.2301L1.22974 3.20957C0.442337 3.99713 0 5.06515 0 6.17877C0 7.29238 0.442337 8.3604 1.22974 9.14797L16.0814 23.9982L24 16.0803L9.14837 1.2301C8.75932 0.839398 8.29673 0.52962 7.78729 0.318657C7.27786 0.107695 6.73168 -0.000272993 6.18028 0.000987473Z" fill="#121212"/>
<path d="M24 16.0801L16.0814 23.9979L1.22974 38.8481C0.442337 39.6357 0 40.7037 0 41.8173C0 42.9309 0.442337 43.999 1.22974 44.7865L3.2094 46.766C3.59864 47.1572 4.06136 47.4676 4.57097 47.6794C5.08057 47.8912 5.627 48.0003 6.17888 48.0003C6.73076 48.0003 7.2772 47.8912 7.7868 47.6794C8.2964 47.4676 8.75912 47.1572 9.14837 46.766L24 31.9158V16.0801Z" fill="#121212"/>
</svg>
