<svg width="24" height="24" viewBox="0 0 24 24" fill="none" xmlns="http://www.w3.org/2000/svg">
<path fill-rule="evenodd" clip-rule="evenodd" d="M4.63477 16.5527L5.84286 15.3392C5.84286 15.3392 8.35699 15.2223 10.0487 15.7666C11.3609 16.1879 11.8476 16.7096 11.9996 16.9217C12.1517 16.7095 12.6384 16.1879 13.9506 15.7666C15.6423 15.2223 18.1564 15.3392 18.1564 15.3392L19.3645 16.5528L11.9996 19.1931L4.63477 16.5527Z" fill="#F7F8F0"/>
<path fill-rule="evenodd" clip-rule="evenodd" d="M5.17658 16.0085L11.2578 18.0452C11.2578 18.0452 10.4038 17.3236 9.14674 16.7804C7.8907 16.2361 6.57852 16.0065 6.57852 16.0065C6.57852 16.0065 8.66717 15.9727 10.4079 16.9187C11.4854 17.505 11.866 17.7531 11.9996 17.8566C12.1333 17.7531 12.5139 17.505 13.5914 16.9187C15.3321 15.9727 17.4197 16.0065 17.4197 16.0065C17.4197 16.0065 16.1086 16.2361 14.8515 16.7804C13.5945 17.3236 12.7404 18.0452 12.7404 18.0452L18.8227 16.0085L19.3645 16.5528L11.9996 19.1932L4.63477 16.5528L5.17658 16.0085Z" fill="#DEDCE9"/>
<path d="M19.1876 16.344C19.5121 16.2364 19.862 16.4137 19.9692 16.7396C20.0753 17.0656 19.8988 17.4161 19.5743 17.5237L12.1962 19.9683C12.0707 20.0109 11.9349 20.0109 11.8094 19.9683L4.42518 17.5237C4.10071 17.4161 3.92418 17.0656 4.03134 16.7396C4.13846 16.4137 4.48743 16.2364 4.8119 16.344L12.0023 18.725L19.1876 16.344Z" fill="#F1607D"/>
<path fill-rule="evenodd" clip-rule="evenodd" d="M18.4053 11.3592L19.0247 12.4375C19.0023 12.6917 18.8523 12.8946 18.6441 13.033L18.3166 12.2038L18.4043 13.155C18.1513 13.2503 17.8615 13.2698 17.6095 13.196L17.7003 12.2038L17.3544 13.0802C17.1595 12.951 17.0187 12.7409 16.9922 12.4375L17.6115 11.3592C17.5824 11.3382 17.5587 11.3105 17.5423 11.2784C17.526 11.2463 17.5175 11.2108 17.5177 11.1747C17.5177 11.0486 17.6207 10.9462 17.7452 10.9462H17.7585V8.29248H18.2574V10.9461H18.2717C18.3962 10.9461 18.4992 11.0486 18.4992 11.1747C18.4991 11.2107 18.4906 11.2462 18.4743 11.2782C18.458 11.3103 18.4344 11.3381 18.4054 11.3592H18.4053Z" fill="#FCC524"/>
<path fill-rule="evenodd" clip-rule="evenodd" d="M16.9649 11.8439C16.9649 13.6899 14.7232 15.1874 11.958 15.1874C9.19286 15.1874 6.95117 13.6898 6.95117 11.8439L6.97264 7.64355H16.9649L16.9649 11.8439Z" fill="#5D869C"/>
<path fill-rule="evenodd" clip-rule="evenodd" d="M6.97261 7.75839L7.17361 7.64355H16.7435L16.9649 7.77066V10.6016L12.7804 13.0083C12.3284 13.2676 11.5886 13.2676 11.1366 13.0083L8.09192 11.2576V12.9375C8.09192 12.9375 8.16027 13.4183 8.80924 14.0271C9.45817 14.6359 10.0081 14.883 10.8928 15.1105C8.63983 14.7846 6.95117 13.4459 6.95117 11.8439L6.97258 7.75835L6.97261 7.75839Z" fill="#33708D"/>
<path fill-rule="evenodd" clip-rule="evenodd" d="M5.31169 7.54409L11.1358 4.19447C11.5879 3.93518 12.3276 3.93518 12.7796 4.19447L18.6028 7.54409C19.0558 7.80442 19.0558 8.22981 18.6028 8.48911L12.7796 11.8387C12.3276 12.0991 11.5879 12.0991 11.1359 11.8387L5.31166 8.48914C4.85966 8.22984 4.85966 7.80449 5.31166 7.54412L5.31169 7.54409Z" fill="#5D869C"/>
</svg>
