<svg width="17" height="16" viewBox="0 0 17 16" fill="none" xmlns="http://www.w3.org/2000/svg">
<path d="M6.56006 9.66699L6.56006 7.66699" stroke="#DB0034" stroke-linecap="round"/>
<path d="M9.89307 9.66699L9.89307 7.66699" stroke="#DB0034" stroke-linecap="round"/>
<path d="M2.22656 4.33301H14.2266V4.33301C13.9169 4.33301 13.7621 4.33301 13.6322 4.35012C12.7347 4.46827 12.0285 5.17449 11.9103 6.07196C11.8932 6.20192 11.8932 6.35673 11.8932 6.66634V9.33301C11.8932 10.8967 11.8932 11.6786 11.4799 12.2172C11.3735 12.3559 11.2494 12.48 11.1108 12.5864C10.5721 12.9997 9.79028 12.9997 8.22656 12.9997V12.9997C6.66285 12.9997 5.88099 12.9997 5.34237 12.5864C5.20371 12.48 5.07959 12.3559 4.97319 12.2172C4.5599 11.6786 4.5599 10.8967 4.5599 9.33301V6.66634C4.5599 6.35673 4.5599 6.20192 4.54279 6.07196C4.42463 5.17449 3.71842 4.46827 2.82095 4.35012C2.69098 4.33301 2.53618 4.33301 2.22656 4.33301V4.33301Z" stroke="#DB0034" stroke-linecap="round"/>
<path d="M6.55973 2.33382C6.55973 2.33382 6.89307 1.66699 8.2264 1.66699C9.55973 1.66699 9.89307 2.33366 9.89307 2.33366" stroke="#DB0034" stroke-linecap="round"/>
</svg>
