<svg width="15" height="14" viewBox="0 0 15 14" fill="none" xmlns="http://www.w3.org/2000/svg">
<path d="M11.2182 6.20039C10.9849 5.96706 10.6349 5.96706 10.4016 6.20039L6.02656 10.5754L4.21823 8.76706C3.9849 8.53372 3.6349 8.53372 3.40156 8.76706C3.16823 9.00039 3.16823 9.35039 3.40156 9.58372L5.61823 11.8004C5.7349 11.9171 5.85156 11.9754 6.02656 11.9754C6.20156 11.9754 6.31823 11.9171 6.4349 11.8004L11.2182 7.01706C11.4516 6.78372 11.4516 6.43372 11.2182 6.20039Z" fill="#6D37B5"/>
<path d="M11.3017 2.175C11.0684 1.94167 10.7184 1.94167 10.4851 2.175L6.11006 6.55L4.30172 4.74167C4.06839 4.50833 3.71839 4.50833 3.48506 4.74167C3.25173 4.975 3.25173 5.325 3.48506 5.55833L5.70173 7.775C5.81839 7.89167 5.93506 7.95 6.11006 7.95C6.28506 7.95 6.40173 7.89167 6.51839 7.775L11.3017 2.99167C11.5351 2.75833 11.5351 2.40833 11.3017 2.175Z" fill="#6D37B5"/>
</svg>
