<svg width="24" height="24" viewBox="0 0 24 24" fill="none" xmlns="http://www.w3.org/2000/svg">
<path d="M8.80275 19.3913C8.33681 18.6578 7.69762 18.1441 7.4054 17.932L8.5874 13.4087C8.60619 13.3367 8.59547 13.2593 8.55797 13.1967C8.52047 13.1342 8.45997 13.0926 8.39222 13.083C8.25691 13.0638 8.1231 13.0335 7.99194 12.9923C7.86084 12.9509 7.73275 12.8989 7.60875 12.8365C7.57809 12.821 7.54473 12.813 7.51098 12.813C7.47723 12.813 7.44388 12.821 7.41322 12.8365C7.38256 12.852 7.35531 12.8745 7.33334 12.9026C7.31136 12.9307 7.29517 12.9637 7.28587 12.9992L6.10387 17.5224C5.75365 17.5323 4.9635 17.5962 4.21421 17.9472C4.07506 18.0123 3.99134 18.1615 4.00071 18.3271C4.01009 18.4926 4.11009 18.6292 4.25524 18.6748L8.41637 19.9844C8.44947 19.9949 8.48294 20 8.51575 20C8.62706 20 8.73244 19.9418 8.80028 19.8376C8.88831 19.7026 8.88928 19.5273 8.80272 19.3913H8.80275ZM19.7858 17.9472C19.0364 17.5962 18.2463 17.5323 17.8961 17.5224L16.714 12.9992C16.7047 12.9636 16.6885 12.9307 16.6666 12.9026C16.6446 12.8745 16.6173 12.8519 16.5867 12.8365C16.556 12.821 16.5227 12.813 16.489 12.813C16.4552 12.813 16.4219 12.821 16.3913 12.8365C16.2672 12.8989 16.1391 12.9509 16.0079 12.9923C15.8768 13.0335 15.743 13.0638 15.6077 13.083C15.5742 13.0878 15.5421 13.1004 15.5135 13.12C15.4849 13.1396 15.4605 13.1658 15.4419 13.1967C15.4234 13.2276 15.4112 13.2626 15.4061 13.2992C15.401 13.3358 15.4033 13.3732 15.4126 13.4087L16.5946 17.932C16.3024 18.1441 15.6632 18.6578 15.1973 19.3911C15.1107 19.5272 15.1117 19.7024 15.1996 19.8375C15.2676 19.9417 15.3729 19.9998 15.4843 19.9998C15.5171 19.9998 15.5504 19.9949 15.5835 19.9844L19.7446 18.6748C19.8899 18.6292 19.9899 18.4926 19.9993 18.3271C20.0087 18.1615 19.9249 18.0123 19.7858 17.9472V17.9472Z" fill="#AAAAAA"/>
<path d="M12.063 7.58834L7.14657 6.04125C7.09181 6.02398 7.03318 6.02921 6.98168 6.05596C6.93018 6.08271 6.88933 6.12916 6.86679 6.18659L5.83969 8.80483C5.66313 9.25508 5.57597 9.74142 5.58401 10.2315C5.59204 10.7216 5.6951 11.2042 5.88632 11.6472C6.07761 12.0901 6.35266 12.4832 6.69317 12.8004C7.03368 13.1176 7.43184 13.3515 7.86117 13.4867C8.14292 13.5754 8.4346 13.6204 8.72773 13.6204C9.32914 13.6204 9.91796 13.4312 10.4244 13.0753C10.8005 12.8108 11.1209 12.4615 11.3644 12.0506C11.6079 11.6397 11.7688 11.1765 11.8365 10.692L12.23 7.87448C12.2386 7.81266 12.2264 7.74951 12.1956 7.69685C12.1649 7.64418 12.1177 7.60561 12.063 7.58834Z" fill="#E0E0E0"/>
<path d="M12.0652 7.58809L11.1708 7.30664L10.7854 10.0673C10.7166 10.5597 10.553 11.0304 10.3055 11.4481C10.058 11.8657 9.73233 12.2207 9.35009 12.4895C8.83534 12.8513 8.23688 13.0435 7.62562 13.0435C7.36853 13.0435 7.1105 13.0094 6.85693 12.9405C7.15985 13.1873 7.50078 13.3722 7.8634 13.4864C8.14516 13.5751 8.43684 13.6201 8.72997 13.6201C9.33138 13.6201 9.92019 13.431 10.4267 13.075C10.8027 12.8106 11.1231 12.4612 11.3666 12.0503C11.6101 11.6394 11.771 11.1763 11.8387 10.6918L12.2322 7.8742C12.2408 7.81238 12.2286 7.74923 12.1979 7.69657C12.1671 7.6439 12.12 7.60536 12.0652 7.58809Z" fill="#C4C4C4"/>
<path d="M18.1586 8.80481L17.1315 6.18656C17.1089 6.12915 17.0681 6.08272 17.0166 6.05597C16.9651 6.02922 16.9065 6.02398 16.8517 6.04122L11.9353 7.58831C11.8805 7.60558 11.8334 7.64416 11.8026 7.69682C11.7719 7.74949 11.7597 7.81263 11.7683 7.87446L12.1618 10.692C12.2295 11.1765 12.3904 11.6396 12.6339 12.0506C12.8774 12.4615 13.1978 12.8108 13.5739 13.0753C13.95 13.3397 14.3731 13.5131 14.815 13.584C15.257 13.655 15.7076 13.6218 16.137 13.4867C16.5663 13.3515 16.9645 13.1176 17.305 12.8004C17.6456 12.4832 17.9206 12.0901 18.1119 11.6472C18.3032 11.2042 18.4062 10.7216 18.4143 10.2315C18.4223 9.7414 18.3351 9.25505 18.1586 8.80481Z" fill="#E0E0E0"/>
<path d="M18.1583 8.80481L17.1312 6.18656C17.1087 6.12915 17.0678 6.08272 17.0163 6.05597C16.9648 6.02922 16.9062 6.02398 16.8514 6.04122L15.9823 6.31475L17.0167 8.95158C17.2028 9.42602 17.2946 9.93851 17.2862 10.4549C17.2777 10.9714 17.1691 11.4799 16.9677 11.9467C16.6596 12.6597 16.1486 13.2435 15.5117 13.6098C15.7233 13.592 15.9328 13.5507 16.1368 13.4867C16.5662 13.3515 16.9643 13.1175 17.3049 12.8004C17.6454 12.4832 17.9205 12.0901 18.1118 11.6472C18.303 11.2042 18.406 10.7216 18.414 10.2315C18.422 9.74139 18.3349 9.25505 18.1583 8.80481Z" fill="#C4C4C4"/>
<path d="M5.58863 10.0272C5.56754 10.5858 5.67047 11.1417 5.88857 11.6469C6.07986 12.0898 6.35491 12.483 6.69542 12.8001C7.03593 13.1173 7.4341 13.3513 7.86342 13.4865C8.14517 13.5752 8.43686 13.6202 8.72998 13.6201C9.33139 13.6202 9.92021 13.431 10.4267 13.0751C10.8027 12.8106 11.1232 12.4613 11.3666 12.0504C11.6101 11.6394 11.7711 11.1763 11.8388 10.6918L11.9316 10.0272L5.58863 10.0272ZM12.1625 10.6918C12.2302 11.1763 12.3912 11.6394 12.6346 12.0504C12.8781 12.4613 13.1985 12.8106 13.5746 13.0751C13.9507 13.3395 14.3738 13.5129 14.8158 13.5838C15.2577 13.6548 15.7084 13.6216 16.1377 13.4865C16.5671 13.3513 16.9653 13.1174 17.3058 12.8002C17.6463 12.483 17.9214 12.0899 18.1127 11.647C18.3308 11.1417 18.4338 10.5858 18.4126 10.0272H12.0697L12.1625 10.6918ZM12.0006 5.27675C11.9699 5.27675 11.9394 5.27011 11.911 5.25719C11.8826 5.24427 11.8567 5.22534 11.835 5.20147C11.8132 5.1776 11.796 5.14926 11.7842 5.11807C11.7724 5.08687 11.7664 5.05345 11.7664 5.01969V4.25706C11.7664 4.11509 11.8712 4 12.0006 4C12.13 4 12.2349 4.11506 12.2349 4.25706V5.01969C12.2349 5.05345 12.2288 5.08687 12.2171 5.11807C12.2053 5.14926 12.188 5.1776 12.1663 5.20147C12.1445 5.22534 12.1187 5.24427 12.0903 5.25719C12.0619 5.27011 12.0314 5.27675 12.0006 5.27675ZM12.9603 5.96104C12.9267 5.96111 12.8935 5.95321 12.8629 5.93788C12.8324 5.92255 12.8052 5.90015 12.7832 5.87222C12.7631 5.84672 12.7477 5.81711 12.738 5.78509C12.7283 5.75307 12.7244 5.71926 12.7266 5.6856C12.7288 5.65193 12.7371 5.61908 12.7508 5.5889C12.7646 5.55873 12.7837 5.53183 12.8069 5.50974L13.3323 5.01043C13.3556 4.98832 13.3826 4.97146 13.4117 4.96081C13.4409 4.95016 13.4718 4.94593 13.5025 4.94836C13.5331 4.95079 13.5631 4.95983 13.5906 4.97497C13.6181 4.99011 13.6426 5.01105 13.6627 5.03659C13.6829 5.0621 13.6983 5.09171 13.708 5.12374C13.7177 5.15576 13.7215 5.18958 13.7193 5.22324C13.7171 5.25691 13.7089 5.28977 13.6951 5.31994C13.6813 5.35011 13.6622 5.377 13.639 5.39908L13.1135 5.89832C13.0711 5.93883 13.0166 5.96111 12.9604 5.96104H12.9603ZM11.041 5.96104C10.9847 5.96109 10.9302 5.93882 10.8877 5.89832L10.3623 5.39908C10.3391 5.377 10.32 5.35012 10.3062 5.31995C10.2924 5.28978 10.2841 5.25692 10.2819 5.22325C10.2797 5.18959 10.2836 5.15577 10.2933 5.12374C10.303 5.09171 10.3184 5.0621 10.3385 5.03659C10.4232 4.92925 10.5712 4.91749 10.669 5.01046L11.1944 5.50971C11.2176 5.5318 11.2367 5.55869 11.2504 5.58887C11.2642 5.61904 11.2724 5.6519 11.2746 5.68556C11.2768 5.71923 11.273 5.75303 11.2633 5.78506C11.2536 5.81708 11.2382 5.84669 11.218 5.87219C11.1961 5.90012 11.1689 5.92252 11.1383 5.93785C11.1078 5.95318 11.0745 5.96108 11.0409 5.96101L11.041 5.96104Z" fill="#FF3D43"/>
<path d="M18.4126 10.0273H17.271C17.3311 10.6854 17.2266 11.3489 16.9687 11.9466C16.6606 12.6596 16.1496 13.2434 15.5127 13.6097C15.7227 13.592 15.9322 13.5514 16.1378 13.4866C16.5672 13.3514 16.9653 13.1174 17.3059 12.8003C17.6464 12.4831 17.9215 12.09 18.1128 11.6471C18.3308 11.1418 18.4337 10.5859 18.4126 10.0273ZM10.7909 10.0273L10.7853 10.0674C10.7165 10.5598 10.5529 11.0306 10.3055 11.4482C10.058 11.8659 9.73226 12.2209 9.35 12.4897C8.98419 12.7468 8.57445 12.9195 8.14581 12.997C7.71716 13.0746 7.2786 13.0554 6.85693 12.9407C7.15987 13.1875 7.50079 13.3724 7.8634 13.4867C8.14518 13.5753 8.43685 13.6203 8.72997 13.6202C9.32547 13.6202 9.91528 13.4347 10.4267 13.0752C10.8027 12.8107 11.1231 12.4614 11.3666 12.0505C11.6101 11.6396 11.771 11.1765 11.8388 10.6921L11.9316 10.0273H10.7909Z" fill="#D72E2E"/>
</svg>
