<svg width="25" height="24" viewBox="0 0 25 24" fill="none" xmlns="http://www.w3.org/2000/svg">
<path d="M2.22656 6L9.13958 9.91697C11.6882 11.361 12.765 11.361 15.3136 9.91697L22.2266 6" stroke="#6F6F6F" stroke-width="1.5" stroke-linejoin="round"/>
<path d="M2.24233 13.4756C2.3077 16.5412 2.34039 18.0739 3.47152 19.2094C4.60264 20.3448 6.17689 20.3843 9.32539 20.4634C11.2659 20.5122 13.1873 20.5122 15.1278 20.4634C18.2763 20.3843 19.8505 20.3448 20.9817 19.2094C22.1128 18.0739 22.1455 16.5412 22.2108 13.4756C22.2319 12.4899 22.2319 11.5101 22.2108 10.5244C22.1455 7.45886 22.1128 5.92609 20.9817 4.79066C19.8505 3.65523 18.2763 3.61568 15.1278 3.53657C13.1873 3.48781 11.2659 3.48781 9.32538 3.53656C6.17689 3.61566 4.60264 3.65521 3.47151 4.79065C2.34038 5.92608 2.3077 7.45885 2.24232 10.5244C2.2213 11.5101 2.22131 12.4899 2.24233 13.4756Z" stroke="#6F6F6F" stroke-width="1.5" stroke-linejoin="round"/>
</svg>
