<svg width="24" height="24" viewBox="0 0 24 24" fill="none" xmlns="http://www.w3.org/2000/svg">
<mask id="mask0_394_1880" style="mask-type:luminance" maskUnits="userSpaceOnUse" x="4" y="4" width="16" height="16">
<path d="M4 4H20V20H4V4Z" fill="white"/>
</mask>
<g mask="url(#mask0_394_1880)">
<path d="M10.51 8.49342C10.3607 8.39984 10.1881 8.35032 10.0119 8.35054H11.5677C11.9537 8.35054 12.2667 8.03761 12.2667 7.65164C12.2667 7.5297 12.2354 7.41511 12.1805 7.31536L12.1806 7.31548C12.4793 7.23604 12.6995 6.96386 12.6995 6.64011V6.84076C12.6995 7.22679 13.0124 7.5397 13.3984 7.5397C13.7844 7.5397 14.0973 7.22679 14.0973 6.84076V7.21936C14.0973 7.60539 14.4103 7.91832 14.7963 7.91832C15.1823 7.91832 15.4952 7.60539 15.4952 7.21936V5.83226C15.4952 5.44623 15.1823 5.13332 14.7963 5.13332C14.4103 5.13332 14.0974 5.44623 14.0974 5.83226V5.13332C14.0974 4.74732 13.7844 4.43439 13.3984 4.43439C13.0124 4.43439 12.6995 4.74732 12.6995 5.13332V4.93336C12.6995 4.54739 12.3865 4.23445 12.0005 4.23445C11.6145 4.23445 11.3016 4.54739 11.3016 4.93336V5.18564C11.3016 4.79964 10.9887 4.4867 10.6027 4.4867C10.2167 4.4867 9.90377 4.79964 9.90377 5.18564V6.95267H9.20483C8.81883 6.95267 8.50589 7.26561 8.50589 7.65164V8.67529H8.50586C8.50586 9.55132 8.8282 10.352 9.36073 10.9654C9.56833 11.2045 9.67745 11.5135 9.67745 11.8302L9.67748 12.3159C9.69173 12.3139 9.70617 12.3126 9.72098 12.3126H14.28C14.2949 12.3126 14.3093 12.3139 14.3236 12.3159V11.8302C14.3236 11.5135 14.4327 11.2045 14.6404 10.9654C15.1729 10.352 15.4952 9.55132 15.4952 8.67529V8.41182C13.8353 8.50643 12.1721 8.53365 10.51 8.49342Z" fill="#FFCDBE"/>
<path d="M14.0971 5.13393V6.84064C14.0971 7.22664 13.7841 7.53955 13.3982 7.53955C13.0121 7.53955 12.6992 7.22664 12.6992 6.84064V5.13393C12.6992 4.74789 13.0121 4.43502 13.3982 4.43502C13.7841 4.43502 14.0971 4.74789 14.0971 5.13393Z" fill="#FFCDBE"/>
<path d="M15.4955 5.83163V7.219C15.4955 7.60503 15.1826 7.91797 14.7966 7.91797C14.4106 7.91797 14.0977 7.60503 14.0977 7.219V5.83163C14.0977 5.44559 14.4106 5.13269 14.7966 5.13269C15.1826 5.13269 15.4955 5.44559 15.4955 5.83163Z" fill="#FFCDBE"/>
<path d="M18.9057 4.67871L19.6155 5.42212C19.7115 5.52263 19.7651 5.65626 19.7651 5.79524V8.89105C19.7651 9.03003 19.7115 9.16366 19.6155 9.26418L18.9057 10.0076C18.8553 10.0604 18.7946 10.1025 18.7275 10.1312C18.6603 10.16 18.588 10.1748 18.5149 10.1748H16.5076C16.4697 10.1748 16.4321 10.1673 16.3971 10.1528C16.362 10.1383 16.3302 10.117 16.3034 10.0902C16.2765 10.0634 16.2553 10.0316 16.2407 9.99652C16.2262 9.96148 16.2187 9.92392 16.2188 9.88599V4.80034C16.2188 4.72373 16.2492 4.65026 16.3034 4.59609C16.3575 4.54192 16.431 4.51149 16.5076 4.51149H18.5149C18.6626 4.51149 18.8038 4.5719 18.9057 4.67871Z" fill="#4CACBA"/>
<path d="M19.6155 5.42212L18.9057 4.67868C18.8553 4.62584 18.7946 4.58378 18.7275 4.55504C18.6603 4.52631 18.588 4.51149 18.5149 4.51149H18.0928L18.3655 4.79712C18.4615 4.89762 18.5151 5.03124 18.5151 5.17021V7.76896C18.5151 8.24127 18.3274 8.69423 17.9935 9.02821C17.6595 9.36218 17.2065 9.5498 16.7342 9.5498H16.2188V9.88599C16.2187 9.92392 16.2262 9.96148 16.2407 9.99652C16.2553 10.0316 16.2765 10.0634 16.3034 10.0902C16.3302 10.117 16.362 10.1383 16.3971 10.1528C16.4321 10.1673 16.4697 10.1748 16.5076 10.1748H18.5149C18.6626 10.1748 18.8038 10.1144 18.9057 10.0076L19.6155 9.26418C19.7115 9.16366 19.7651 9.03003 19.7651 8.89105V5.79524C19.7651 5.65626 19.7115 5.52263 19.6155 5.42212Z" fill="#36818B"/>
<path d="M19.142 9.76007L18.9057 10.0075C18.86 10.0552 18.8059 10.094 18.7461 10.1221V4.5641C18.8059 4.59219 18.86 4.63101 18.9057 4.67863L19.6155 5.42207C19.7115 5.52256 19.765 5.65619 19.765 5.79516V8.89098C19.765 9.02998 19.7115 9.1636 19.6155 9.2641L19.142 9.76007Z" fill="#23535A"/>
<path d="M5.09369 4.67871L4.38391 5.42212C4.28793 5.52263 4.23437 5.65626 4.23438 5.79524V8.89105C4.23438 9.03003 4.28793 9.16366 4.38391 9.26418L5.09369 10.0076C5.14414 10.0604 5.20479 10.1025 5.27196 10.1312C5.33913 10.16 5.41144 10.1748 5.4845 10.1748H7.49184C7.52977 10.1748 7.56733 10.1673 7.60238 10.1528C7.63742 10.1383 7.66926 10.117 7.69608 10.0902C7.72291 10.0634 7.74418 10.0316 7.7587 9.99652C7.77322 9.96148 7.78069 9.92392 7.78069 9.88599V4.80034C7.78069 4.72373 7.75026 4.65026 7.69609 4.59609C7.64192 4.54192 7.56845 4.51149 7.49184 4.51149H5.4845C5.41144 4.51149 5.33913 4.52631 5.27196 4.55505C5.20478 4.58379 5.14414 4.62586 5.09369 4.67871Z" fill="#4CACBA"/>
<path d="M7.49153 4.51149H6.53037V7.67571C6.53037 8.71074 5.69131 9.5498 4.65625 9.5498L5.09337 10.0076C5.14383 10.0604 5.20447 10.1025 5.27165 10.1312C5.33882 10.16 5.41112 10.1748 5.48419 10.1748H7.49153C7.56814 10.1748 7.64161 10.1444 7.69577 10.0902C7.74994 10.036 7.78037 9.96257 7.78037 9.88596V4.8003C7.78037 4.6408 7.65103 4.51149 7.49153 4.51149Z" fill="#36818B"/>
<path d="M4.85741 9.76007L5.09369 10.0075C5.13942 10.0552 5.19353 10.094 5.25331 10.1221V4.5641C5.19354 4.59219 5.13944 4.63101 5.09369 4.67863L4.38391 5.42207C4.28792 5.52256 4.23436 5.65619 4.23438 5.79516V8.89098C4.23438 9.02998 4.28791 9.1636 4.38387 9.2641L4.85741 9.76007Z" fill="#2C6A73"/>
<path d="M5.253 9.45216C5.06069 9.51684 4.85914 9.5498 4.65625 9.54976C5.138 10.0543 5.10141 10.0175 5.13072 10.0429C5.14342 10.0533 5.15635 10.0634 5.1695 10.0732C5.20119 10.0957 5.23769 10.1155 5.253 10.1221V9.45216Z" fill="#23535A"/>
<path d="M11.2994 6.95264C11.3011 6.93273 11.3022 6.91267 11.3022 6.89229V5.18561C11.3022 4.79961 10.9892 4.48667 10.6032 4.48667C10.2172 4.48667 9.9043 4.79961 9.9043 5.18561V6.89229C9.9043 6.91267 9.90539 6.93273 9.90705 6.95264H11.2994Z" fill="#FFCDBE"/>
<path d="M12.0017 4.2344C11.6157 4.2344 11.3027 4.54734 11.3027 4.9333V6.64002C11.3027 6.75243 11.3294 6.85855 11.3765 6.95262H11.5688C11.833 6.95262 12.0629 7.09921 12.1817 7.31543C12.4804 7.23599 12.7006 6.96377 12.7006 6.64002V4.9333C12.7006 4.54734 12.3877 4.2344 12.0017 4.2344Z" fill="#FFCDBE"/>
<path d="M13.3977 4.43496C13.3836 4.43496 13.3697 4.43552 13.3559 4.43633C13.4315 4.5505 13.4718 4.68445 13.4716 4.82139V6.52808C13.4716 6.90008 13.181 7.20405 12.8145 7.22571C12.9395 7.41477 13.154 7.53955 13.3977 7.53955C13.7837 7.53955 14.0966 7.22661 14.0966 6.84058V5.13389C14.0966 4.74789 13.7837 4.43496 13.3977 4.43496Z" fill="#FAA68E"/>
<path d="M14.7961 5.13269C14.7821 5.13269 14.7681 5.13325 14.7543 5.13406C14.83 5.24823 14.8702 5.38218 14.87 5.51913V6.90653C14.87 7.2785 14.5794 7.5825 14.2129 7.60413C14.338 7.79319 14.5524 7.91797 14.7961 7.91797C15.1821 7.91797 15.495 7.60503 15.495 7.21903V5.83163C15.495 5.44563 15.1821 5.13269 14.7961 5.13269Z" fill="#FAA68E"/>
<path d="M10.6032 4.48667C10.5892 4.48667 10.5753 4.48723 10.5614 4.48801C10.6371 4.60218 10.6773 4.73615 10.6771 4.87311C10.6771 4.87311 10.6768 5.45511 10.6762 5.95111C10.6757 6.33189 10.3669 6.64014 9.98608 6.64014H9.9043V6.89229C9.9043 6.91267 9.90536 6.93273 9.90705 6.95264H11.2994C11.3012 6.93257 11.3021 6.91244 11.3021 6.89229V5.18561C11.3021 4.79961 10.9892 4.48667 10.6032 4.48667Z" fill="#FAA68E"/>
<path d="M12.001 4.2344C11.987 4.2344 11.973 4.23496 11.9592 4.23574C12.0348 4.3499 12.0751 4.48386 12.0749 4.6208V6.32752C12.0749 6.60768 11.9099 6.84902 11.6719 6.96046C11.8917 6.99318 12.0781 7.12809 12.1811 7.31543C12.4797 7.23599 12.6999 6.96377 12.6999 6.64002V4.9333C12.6999 4.54734 12.387 4.2344 12.001 4.2344Z" fill="#FAA68E"/>
<path d="M15.9896 6.30453C15.8248 6.29381 15.6599 6.28378 15.495 6.27437V7.21912C15.495 7.60512 15.1821 7.91806 14.7961 7.91806C14.4101 7.91806 14.0972 7.60512 14.0972 7.21912V6.84053C14.0972 7.22653 13.7843 7.53947 13.3983 7.53947C13.0123 7.53947 12.6993 7.22653 12.6993 6.84053V6.63984C12.6993 6.96359 12.4792 7.23578 12.1804 7.31522L12.1803 7.31509C12.237 7.4181 12.2667 7.5338 12.2665 7.65137C12.2665 8.03734 11.9536 8.35028 11.5676 8.35028H10.0117C10.1879 8.35007 10.3605 8.39959 10.5098 8.49315C12.3372 8.53748 14.1656 8.50028 15.9896 8.38165L16.219 8.36672V6.31947L15.9896 6.30453Z" fill="#BADFE4"/>
<path d="M15.9896 6.30453C15.8248 6.29381 15.6599 6.28378 15.495 6.27437V7.21912C15.495 7.60512 15.1821 7.91806 14.7961 7.91806C14.6453 7.91829 14.4984 7.86951 14.3777 7.77906C13.6631 7.82123 12.9477 7.85094 12.2321 7.86815C12.1408 8.148 11.8779 8.35028 11.5676 8.35028H10.0117C10.1879 8.35007 10.3605 8.39959 10.5098 8.49315C12.3372 8.53748 14.1656 8.50028 15.9896 8.38165L16.219 8.36668V6.31947L15.9896 6.30453Z" fill="#95CED6"/>
<path d="M9.90441 6.21133C9.27271 6.23277 8.64139 6.26396 8.01066 6.30486L7.78125 6.3198V8.36705L8.01066 8.38198C8.17591 8.39273 8.34125 8.4027 8.50656 8.41211V7.65167C8.50656 7.26567 8.81947 6.95277 9.2055 6.95277H9.90716C9.90547 6.93286 9.90441 6.91277 9.90441 6.89242V6.21133Z" fill="#BADFE4"/>
<path d="M8.50656 7.78711C8.34125 7.7777 8.17594 7.76773 8.01069 7.75698L7.78125 7.74205V8.36705L8.01069 8.38198C8.17594 8.3927 8.34123 8.40274 8.50656 8.41211V7.78711Z" fill="#95CED6"/>
<path d="M14.2201 8.47107C14.135 9.18067 13.8373 9.82495 13.3924 10.3382C13.1843 10.5782 13.0738 10.8875 13.0738 11.2052C13.0738 11.473 12.8566 11.69 12.5888 11.6896C11.6486 11.6884 9.66992 11.6876 9.66992 11.6876C9.67486 11.7348 9.67764 11.7824 9.67764 11.8302L9.67767 12.3159C9.69192 12.3139 9.70636 12.3126 9.72114 12.3126H14.2802C14.295 12.3126 14.3095 12.3139 14.3238 12.3159V11.8302C14.3238 11.5063 14.4435 11.1952 14.6544 10.9493C15.1786 10.3381 15.4954 9.54367 15.4954 8.67529V8.41182C15.0705 8.43596 14.6454 8.45571 14.2201 8.47107Z" fill="#FAA68E"/>
<path d="M14.2802 16.0439H9.72114C9.70639 16.0439 9.69195 16.0426 9.67773 16.0406L9.6778 19.7656H14.3236L14.3237 16.0406C14.3093 16.0427 14.2948 16.0438 14.2802 16.0439Z" fill="#FFCDBE"/>
<path d="M14.2801 16.0439H13.0736L13.0736 17.3169C13.0736 18.3242 12.2571 19.1406 11.2499 19.1406H9.67773V19.7656H14.3236L14.3237 16.0406C14.3093 16.0427 14.2947 16.0438 14.2801 16.0439Z" fill="#FAA68E"/>
<path d="M14.28 16.0439H9.72095C9.54608 16.0439 9.4043 15.9022 9.4043 15.7273V12.6292C9.4043 12.4543 9.54608 12.3125 9.72095 12.3125H14.28C14.455 12.3125 14.5967 12.4543 14.5967 12.6292V15.7273C14.5967 15.9022 14.455 16.0439 14.28 16.0439Z" fill="#81B8FD"/>
<path d="M14.28 12.3125H13.3467V13.0583C13.3467 14.3621 12.2898 15.4189 10.9861 15.4189H9.4043V15.7273C9.4043 15.9022 9.54608 16.0439 9.72095 16.0439H14.28C14.455 16.0439 14.5967 15.9022 14.5967 15.7273V12.6292C14.5967 12.4543 14.455 12.3125 14.28 12.3125Z" fill="#4394FB"/>
<path d="M14.5967 15.0391H9.4043V13.3169H14.5967V15.0391Z" fill="#B9E746"/>
<path d="M12.2695 15.0391H14.597V13.3169H13.3326C13.2538 14.0389 12.8495 14.6626 12.2695 15.0391Z" fill="#A0C83D"/>
</g>
</svg>
