<svg width="24" height="24" viewBox="0 0 24 24" fill="none" xmlns="http://www.w3.org/2000/svg">
<path d="M7.73438 13.7323C7.73438 13.7323 8.63984 12.5102 9.23438 12.2319C11.0292 11.3915 11.3943 11.0263 12.2344 9.23094C12.5127 8.63621 13.7344 7.73047 13.7344 7.73047M10.2344 16.2331C10.2344 16.2331 11.4561 15.3273 11.7344 14.7326C12.5745 12.9373 12.9396 12.5721 14.7344 11.7317C15.3289 11.4533 16.2344 10.2312 16.2344 10.2312" stroke="#141B34" stroke-width="1.5" stroke-linecap="round" stroke-linejoin="round"/>
<path d="M14.4313 2.8921C14.9382 2.38346 15.7613 2.38215 16.2698 2.88919L21.0816 7.68729C21.5901 8.19433 21.5914 9.0177 21.0845 9.52635L19.5559 11.0603C19.049 11.5689 18.2259 11.5702 17.7174 11.0632L12.9056 6.2651C12.3972 5.75806 12.3959 4.93469 12.9027 4.42604L14.4313 2.8921Z" stroke="#141B34" stroke-width="1.5"/>
<path d="M4.41377 12.9023C4.92065 12.3937 5.74376 12.3924 6.25225 12.8994L11.0641 17.6975C11.5725 18.2046 11.5738 19.0279 11.067 19.5366L9.53836 21.0705C9.03148 21.5792 8.20837 21.5805 7.69988 21.0734L2.88808 16.2753C2.37959 15.7683 2.37829 14.9449 2.88517 14.4363L4.41377 12.9023Z" stroke="#141B34" stroke-width="1.5"/>
<path d="M17.9377 3.45251C19.8201 0.985436 23.14 3.84007 20.5431 6.02869M3.37811 17.9773C0.998474 19.9687 3.99782 23.1586 6.06742 20.4657" stroke="#141B34" stroke-width="1.5" stroke-linecap="round" stroke-linejoin="round"/>
</svg>
