<svg width="25" height="24" viewBox="0 0 25 24" fill="none" xmlns="http://www.w3.org/2000/svg">
<path fill-rule="evenodd" clip-rule="evenodd" d="M3.3448 12.467C3.1878 12.176 3.1878 11.823 3.3448 11.532C5.2368 8.033 8.7318 5 12.2268 5C15.7218 5 19.2168 8.033 21.1088 11.533C21.2658 11.824 21.2658 12.177 21.1088 12.468C19.2168 15.967 15.7218 19 12.2268 19C8.7318 19 5.2368 15.967 3.3448 12.467Z" stroke="#6F6F6F" stroke-width="1.5" stroke-linecap="round" stroke-linejoin="round"/>
<path d="M14.3479 9.87868C15.5194 11.0502 15.5194 12.9497 14.3479 14.1213C13.1763 15.2929 11.2768 15.2929 10.1052 14.1213C8.93367 12.9497 8.93367 11.0502 10.1052 9.87868C11.2768 8.70711 13.1763 8.70711 14.3479 9.87868" stroke="#6F6F6F" stroke-width="1.4286" stroke-linecap="round" stroke-linejoin="round"/>
</svg>
