<svg width="23" height="22" viewBox="0 0 23 22" fill="none" xmlns="http://www.w3.org/2000/svg">
<g clip-path="url(#clip0_292_2629)">
<path d="M5.81025 1.34574C5.42692 1.47491 5.16025 1.64158 4.88525 1.92074C4.62275 2.19158 4.38942 2.62491 4.31442 2.99158C4.28108 3.14574 4.26858 4.78741 4.26858 8.36658C4.26858 14.0416 4.26025 13.7916 4.52692 14.3082C4.70608 14.6499 5.14358 15.0791 5.48108 15.2457C6.02275 15.5124 5.65192 15.4999 13.1686 15.4999C17.9311 15.4999 20.0769 15.4874 20.2519 15.4541C20.6852 15.3749 21.0727 15.1624 21.4102 14.8249C21.5727 14.6582 21.7561 14.4249 21.8186 14.3082C22.0686 13.8374 22.0602 14.0957 22.0602 8.35407C22.0602 4.11241 22.0477 3.06241 22.0019 2.89574C21.8019 2.13741 21.1727 1.50824 20.4144 1.30824C20.2436 1.26241 18.8977 1.24991 13.1436 1.24991L6.08108 1.25408L5.81025 1.34574ZM20.0186 3.10408C20.2811 3.23741 20.2686 3.10408 20.2602 6.55408L20.2477 9.69991L18.9977 8.23741C17.4019 6.37074 17.3102 6.27074 17.0019 6.11241C16.7602 5.98741 16.7227 5.97908 16.2894 5.97908C15.8686 5.97908 15.8144 5.98741 15.6019 6.09574C15.4769 6.16241 15.3186 6.26241 15.2519 6.32491C15.1852 6.38741 14.3769 7.34157 13.4561 8.44574L11.7811 10.4499L11.1602 9.82907C10.4811 9.14574 10.2936 9.02074 9.85192 8.95824C9.53108 8.91241 9.21442 8.96241 8.90192 9.10407C8.70192 9.19574 8.45608 9.42074 7.36025 10.5124L6.06025 11.8124L6.06858 7.58324C6.08108 3.64157 6.08525 3.34574 6.15192 3.24991C6.19358 3.19574 6.26858 3.12491 6.31858 3.09574C6.39358 3.05408 7.83108 3.04574 13.1561 3.04158C19.1019 3.04158 19.9102 3.04991 20.0186 3.10408Z" fill="#FCF9FF"/>
<path d="M8.08105 4.02031C7.74355 4.15781 7.53522 4.31197 7.32689 4.57031C7.04772 4.91197 6.96022 5.18697 6.95605 5.70781C6.95605 6.11614 6.96439 6.16614 7.08939 6.42864C7.75605 7.83281 9.70189 7.83697 10.3602 6.43697C10.4561 6.22447 10.4894 6.08697 10.5061 5.82031C10.5561 5.05364 10.1977 4.42447 9.52689 4.09531C9.23105 3.94947 9.18522 3.93697 8.77272 3.92447C8.37689 3.91614 8.30605 3.92447 8.08105 4.02031Z" fill="#FCF9FF"/>
<path d="M2.82256 7.77065C2.75173 7.99981 2.25173 9.62898 1.72256 11.3956L0.751725 14.604L0.747559 15.129V15.654L0.922559 16.0081C1.13089 16.4248 1.45589 16.7581 1.82673 16.9331C2.08506 17.054 15.9267 20.7748 16.2767 20.8165C16.8017 20.879 17.4351 20.6623 17.8309 20.2873C18.2101 19.929 18.2684 19.7956 18.7434 18.2915C18.9851 17.5248 19.1851 16.8748 19.1851 16.8456C19.1851 16.804 17.7684 16.7915 12.4684 16.7831L5.74756 16.7706L5.43923 16.6748C4.81423 16.4831 4.34339 16.1956 3.91006 15.7415C3.50589 15.3206 3.26423 14.8956 3.07673 14.2706C3.00589 14.0415 2.99756 13.7373 2.97673 10.6873L2.95589 7.35398L2.82256 7.77065Z" fill="#FCF9FF"/>
</g>
<defs>
<clipPath id="clip0_292_2629">
<rect width="21.3333" height="21.3333" fill="white" transform="translate(0.726562 0.333008)"/>
</clipPath>
</defs>
</svg>
