<svg width="50" height="50" viewBox="0 0 50 50" fill="none" xmlns="http://www.w3.org/2000/svg">
<path d="M6.25 18.666C6.25 17.7232 6.25 17.2518 6.54289 16.9589C6.83579 16.666 7.30719 16.666 8.25 16.666H41.75C42.6928 16.666 43.1642 16.666 43.4571 16.9589C43.75 17.2518 43.75 17.7232 43.75 18.666V25.0827C43.75 26.0255 43.75 26.4969 43.4571 26.7898C43.1642 27.0827 42.6928 27.0827 41.75 27.0827H39.5C38.5572 27.0827 38.0858 27.0827 37.7929 27.3756C37.5 27.6685 37.5 28.1399 37.5 29.0827V39.666C37.5 40.6088 37.5 41.0802 37.2071 41.3731C36.9142 41.666 36.4428 41.666 35.5 41.666H14.5C13.5572 41.666 13.0858 41.666 12.7929 41.3731C12.5 41.0802 12.5 40.6088 12.5 39.666V29.0827C12.5 28.1399 12.5 27.6685 12.2071 27.3756C11.9142 27.0827 11.4428 27.0827 10.5 27.0827H8.25C7.30719 27.0827 6.83579 27.0827 6.54289 26.7898C6.25 26.4969 6.25 26.0255 6.25 25.0827V18.666Z" stroke="#2FFF8D" stroke-width="3"/>
<path d="M10.416 27.084H39.5827" stroke="#2FFF8D" stroke-width="3" stroke-linecap="round"/>
<path d="M25 14.584L25 41.6673" stroke="#2FFF8D" stroke-width="3" stroke-linecap="round"/>
<path d="M24.9993 14.5833L21.6272 11.2112C20.4197 10.0037 18.9476 9.09386 17.3275 8.55384L13.0485 7.12749C11.7534 6.6958 10.416 7.65974 10.416 9.02485V13.1418C10.416 14.0027 10.9669 14.767 11.7836 15.0392L16.666 16.6667" stroke="#2FFF8D" stroke-width="3" stroke-linecap="round"/>
<path d="M25.0007 14.5833L28.3728 11.2112C29.5803 10.0037 31.0524 9.09386 32.6725 8.55384L36.9515 7.12749C38.2466 6.6958 39.584 7.65974 39.584 9.02485V13.1418C39.584 14.0027 39.0331 14.767 38.2164 15.0392L33.334 16.6667" stroke="#2FFF8D" stroke-width="3" stroke-linecap="round"/>
</svg>
