<svg width="22" height="16" viewBox="0 0 22 16" fill="none" xmlns="http://www.w3.org/2000/svg">
<path d="M5.26073 15.7525C5.17571 15.6725 5.12571 15.5628 5.1214 15.4468C5.11709 15.3309 5.1588 15.2179 5.23764 15.1319L15.1665 4.29932L16.3484 5.41151L5.88934 15.745C5.80628 15.8271 5.69404 15.8739 5.57658 15.8753C5.45912 15.8767 5.34576 15.8326 5.26073 15.7525Z" fill="#ABF5FF"/>
<path d="M18.1463 4.25219C18.029 4.38028 17.887 4.48389 17.7287 4.55691C17.5703 4.62993 17.3987 4.67088 17.2241 4.67736C17.0494 4.68384 16.8752 4.6557 16.7118 4.59462C16.5483 4.53354 16.3988 4.44074 16.2722 4.32169C16.1456 4.20264 16.0444 4.05975 15.9745 3.90144C15.9046 3.74313 15.8675 3.57259 15.8653 3.39989C15.8632 3.22718 15.896 3.05579 15.9619 2.89582C16.0278 2.73585 16.1254 2.59053 16.249 2.46842C16.7477 1.95061 18.8735 1.62061 18.8735 1.62061C18.8735 1.62061 18.6452 3.73437 18.1463 4.25219Z" fill="#FFE3B8"/>
<path d="M15.9207 3.50781L17.1022 4.61904L16.3475 5.40279L15.166 4.29154L15.9207 3.50781Z" fill="#CBD1D6"/>
<path d="M10.0156 8.45398L11.5858 6.90209C11.7533 6.73649 11.9581 6.61241 12.1834 6.54001C12.4087 6.4676 12.6482 6.44892 12.8822 6.4855C13.1162 6.52207 13.3381 6.61286 13.5298 6.75044C13.7215 6.88803 13.8776 7.06849 13.9852 7.27709L14.3042 7.89553C14.3817 8.04591 14.491 8.17808 14.6247 8.2831C14.7583 8.38812 14.9132 8.46356 15.0789 8.50429L16.9332 8.95773C18.7773 9.40898 19.416 11.6765 18.0715 13.0053L16.1898 14.865C14.8538 16.1875 12.568 15.5675 12.1003 13.7553L11.6231 11.9062C11.5819 11.7468 11.5073 11.5977 11.4042 11.4686C11.3011 11.3394 11.1718 11.233 11.0246 11.1562L10.3757 10.8174C10.1675 10.709 9.98794 10.5537 9.85162 10.364C9.7153 10.1744 9.62601 9.95573 9.59096 9.7257C9.55591 9.49567 9.57607 9.26071 9.64983 9.0398C9.72358 8.81889 9.84886 8.61822 10.0156 8.45398Z" fill="#FFC96D"/>
<path d="M13.5355 8.783C13.713 8.95851 13.8269 9.1869 13.8597 9.43285C13.8926 9.6788 13.8425 9.9286 13.7173 10.1436C13.592 10.3586 13.3986 10.5268 13.1668 10.6222C12.9351 10.7176 12.678 10.7349 12.4354 10.6713C12.1927 10.6078 11.978 10.467 11.8245 10.2708C11.6709 10.0745 11.5871 9.83374 11.5859 9.58565C11.5848 9.33757 11.6664 9.09603 11.8182 8.8984C11.9699 8.70078 12.1833 8.55807 12.4254 8.49237C12.6199 8.43963 12.8251 8.43874 13.0201 8.48979C13.2151 8.54083 13.3929 8.642 13.5355 8.783Z" fill="#B8746B"/>
<path d="M6.39343 2.53125L12.426 8.49254C12.2348 8.54456 12.0607 8.64474 11.9205 8.78328C11.7803 8.92182 11.6789 9.09396 11.6263 9.28286L5.59375 3.32094L6.39343 2.53125Z" fill="#FF758B"/>
<path d="M3.25977 1.45888L4.50767 0.225586L6.31085 2.00769C6.39172 2.08762 6.43716 2.19602 6.43716 2.30905C6.43716 2.42209 6.39172 2.53049 6.31085 2.61041L5.67193 3.24186C5.59097 3.3214 5.48141 3.36597 5.36726 3.36581C5.2531 3.36564 5.14367 3.32076 5.06295 3.24098L3.25977 1.45888ZM13.4541 12.5859L15.7641 10.303L16.2003 10.734L13.8903 13.017L13.4541 12.5859Z" fill="#B8746B"/>
<path d="M8.2025 8.78321C8.2025 8.84821 8.20008 8.91258 8.19523 8.97633C8.14592 9.60756 7.85689 10.197 7.38613 10.6264C6.91538 11.0558 6.29774 11.2933 5.65714 11.2914C5.01654 11.2894 4.40038 11.0482 3.9323 10.6159C3.46421 10.1837 3.17884 9.59253 3.13344 8.96102C3.12922 8.90227 3.12711 8.843 3.12711 8.78321C3.12336 8.4515 3.18624 8.12235 3.31209 7.81482C3.43794 7.50729 3.62427 7.22749 3.86029 6.99161C4.0963 6.75574 4.37732 6.56848 4.68707 6.44068C4.99682 6.31288 5.32915 6.24707 5.66481 6.24707C6.00047 6.24707 6.33279 6.31288 6.64254 6.44068C6.95229 6.56848 7.23331 6.75574 7.46933 6.99161C7.70535 7.22749 7.89168 7.50729 8.01753 7.81482C8.14338 8.12235 8.20625 8.4515 8.2025 8.78321Z" fill="white"/>
<path d="M5.66286 7.85216L4.73448 8.51873L5.08895 9.59717H6.23645L6.59092 8.51873L5.66286 7.85216ZM6.59123 6.7709L5.66286 7.43747L4.73448 6.7709L4.85464 6.40528C5.3791 6.2321 5.9463 6.2321 6.47076 6.40528L6.59123 6.7709ZM4.37844 8.42717L3.52563 9.18748L3.13133 8.96248C3.12711 8.90373 3.125 8.84446 3.125 8.78467C3.12423 8.30557 3.26298 7.83638 3.52469 7.4331L3.9114 7.39278L4.37844 8.42717ZM8.2004 8.7831C8.2004 8.84811 8.19797 8.91248 8.19312 8.97623L7.82569 9.18748L6.97194 8.42873L7.43866 7.39278L7.79787 7.42997C8.06088 7.83339 8.20064 8.30319 8.2004 8.7831ZM5.27456 10.9862L4.99693 11.205C4.45421 11.0587 3.97598 10.7385 3.63725 10.2947L3.72674 9.97155L4.87298 9.92374L5.27456 10.9862ZM7.66822 10.32C7.32627 10.7561 6.84839 11.0687 6.30855 11.2094L6.0189 10.9778L6.42997 9.91874L7.57589 9.97717L7.66822 10.32Z" fill="#CBD1D6"/>
<path d="M10.5316 3.6413C10.6064 3.34347 10.4228 3.04205 10.1215 2.96805C9.82012 2.89406 9.51513 3.07551 9.44026 3.37333C9.36538 3.67116 9.54898 3.97258 9.85034 4.04658C10.1517 4.12058 10.4567 3.93912 10.5316 3.6413Z" fill="#85DB58"/>
<path d="M12.8929 4.85175C12.9678 4.55392 12.7842 4.2525 12.4828 4.1785C12.1815 4.10451 11.8765 4.28596 11.8016 4.58378C11.7267 4.88161 11.9103 5.18303 12.2117 5.25703C12.513 5.33102 12.818 5.14957 12.8929 4.85175Z" fill="#85DB58"/>
<path d="M11.166 1.13524L13.4718 2.604L13.7292 1.55056L11.4209 0.123047L11.166 1.13524Z" fill="#85DB58"/>
<path d="M16.3379 4.03146H16.3325C16.3162 4.03082 16.3001 4.027 16.2853 4.02023C16.2705 4.01345 16.2572 4.00385 16.2461 3.99198C16.235 3.98011 16.2264 3.9662 16.2208 3.95104C16.2152 3.93588 16.2126 3.91978 16.2133 3.90365C16.2133 3.87958 16.2418 3.30989 16.6288 2.89364C16.6397 2.88127 16.653 2.87118 16.6679 2.86397C16.6829 2.85676 16.6991 2.85257 16.7157 2.85165C16.7323 2.85073 16.7489 2.8531 16.7645 2.85862C16.7802 2.86413 16.7945 2.87269 16.8068 2.88377C16.8191 2.89486 16.8289 2.90826 16.8359 2.92318C16.8428 2.9381 16.8467 2.95424 16.8472 2.97065C16.8477 2.98706 16.8449 3.00341 16.839 3.01873C16.833 3.03406 16.824 3.04805 16.8125 3.05989C16.4884 3.40646 16.4625 3.90646 16.4625 3.91208C16.4615 3.94409 16.4479 3.97445 16.4247 3.99673C16.4014 4.01902 16.3703 4.03148 16.3379 4.03146ZM16.71 4.38021C16.68 4.38009 16.6511 4.36925 16.6285 4.34971C16.6059 4.33016 16.5912 4.30321 16.5871 4.27382C16.5831 4.24442 16.5899 4.21456 16.6063 4.18973C16.6227 4.16489 16.6477 4.14676 16.6765 4.13865C16.9821 4.04002 17.2695 3.89334 17.5278 3.70427C17.5544 3.68612 17.5872 3.67895 17.6192 3.68428C17.6511 3.68961 17.6797 3.70703 17.6988 3.73284C17.718 3.75865 17.7262 3.79082 17.7218 3.82253C17.7174 3.85424 17.7006 3.883 17.6751 3.90271C17.3931 4.10994 17.0783 4.2696 16.7436 4.37521C16.7327 4.37836 16.7214 4.38004 16.71 4.38021ZM14.6127 11.5678C14.5963 11.5678 14.5802 11.5646 14.5651 11.5584C14.55 11.5523 14.5363 11.5432 14.5248 11.5318L11.832 8.87055C11.8096 8.84727 11.7974 8.81629 11.7978 8.78421C11.7983 8.75212 11.8113 8.72148 11.8343 8.69879C11.8573 8.67611 11.8883 8.66317 11.9207 8.66274C11.9532 8.66231 11.9845 8.67442 12.0081 8.69649L14.6999 11.3578C14.7173 11.375 14.7291 11.3969 14.7339 11.4207C14.7386 11.4446 14.7362 11.4692 14.7268 11.4917C14.7174 11.5142 14.7015 11.5334 14.6811 11.5469C14.6606 11.5604 14.6366 11.5677 14.612 11.5678H14.6127ZM15.0127 11.1724C14.9963 11.1725 14.9802 11.1693 14.9651 11.1631C14.95 11.157 14.9363 11.1479 14.9248 11.1365L12.3376 8.57962C12.3152 8.55633 12.303 8.52535 12.3034 8.49327C12.3039 8.46119 12.317 8.43054 12.3399 8.40785C12.3629 8.38517 12.3939 8.37223 12.4263 8.3718C12.4588 8.37137 12.4901 8.38348 12.5137 8.40555L15.1009 10.9624C15.1182 10.9797 15.13 11.0016 15.1348 11.0254C15.1396 11.0492 15.1371 11.0739 15.1277 11.0964C15.1183 11.1188 15.1024 11.138 15.082 11.1516C15.0616 11.1651 15.0376 11.1724 15.013 11.1724H15.0127ZM14.2127 11.9628C14.1963 11.9628 14.1802 11.9596 14.1651 11.9534C14.15 11.9473 14.1363 11.9382 14.1248 11.9268L11.4857 9.319C11.4634 9.29571 11.4511 9.26473 11.4516 9.23265C11.452 9.20057 11.4651 9.16992 11.4881 9.14723C11.511 9.12455 11.542 9.11161 11.5745 9.11118C11.6069 9.11075 11.6383 9.12286 11.6618 9.14493L14.3009 11.7531C14.3182 11.7703 14.33 11.7922 14.3348 11.816C14.3396 11.8399 14.3371 11.8646 14.3277 11.887C14.3183 11.9095 14.3024 11.9287 14.282 11.9422C14.2616 11.9557 14.2376 11.963 14.213 11.9631L14.2127 11.9628ZM4.57571 3.23646C4.55102 3.23663 4.52683 3.22955 4.50622 3.21611C4.48561 3.20267 4.4695 3.18348 4.45995 3.16098C4.45039 3.13847 4.44782 3.11367 4.45255 3.08972C4.45729 3.06577 4.46912 3.04375 4.48654 3.02645L4.96085 2.5577C4.98441 2.53563 5.01576 2.52352 5.04822 2.52395C5.08068 2.52438 5.11169 2.53732 5.13465 2.56C5.1576 2.58269 5.17069 2.61334 5.17113 2.64542C5.17156 2.6775 5.15931 2.70848 5.13698 2.73176L4.66267 3.20052C4.63958 3.22332 4.60835 3.23623 4.57571 3.23646ZM4.03437 2.70176C4.00979 2.70169 3.98577 2.69443 3.96535 2.68089C3.94494 2.66736 3.92903 2.64816 3.91963 2.62571C3.91023 2.60325 3.90776 2.57856 3.91254 2.55472C3.91732 2.53089 3.92912 2.50898 3.94647 2.49176L4.42077 2.02301C4.44434 2.00094 4.47568 1.98883 4.50814 1.98926C4.54061 1.98969 4.57161 2.00263 4.59457 2.02531C4.61753 2.048 4.63061 2.07864 4.63105 2.11072C4.63148 2.14281 4.61923 2.17379 4.5969 2.19707L4.12259 2.66583C4.11101 2.67727 4.09725 2.68633 4.08211 2.6925C4.06697 2.69866 4.05075 2.70181 4.03437 2.70176ZM3.49335 2.16676C3.46876 2.16669 3.44475 2.15943 3.42433 2.14589C3.40391 2.13236 3.388 2.11316 3.3786 2.0907C3.3692 2.06825 3.36674 2.04355 3.37151 2.01972C3.37629 1.99588 3.38809 1.97398 3.40544 1.95676L3.87975 1.48801C3.90331 1.46594 3.93466 1.45383 3.96712 1.45426C3.99958 1.45469 4.03059 1.46762 4.05354 1.49031C4.0765 1.51299 4.08959 1.54364 4.09002 1.57572C4.09046 1.6078 4.07821 1.63878 4.05587 1.66207L3.58157 2.13082C3.56998 2.14226 3.55623 2.15133 3.54109 2.15749C3.52595 2.16366 3.50972 2.16681 3.49335 2.16676ZM5.69887 2.1252C5.67429 2.12512 5.65027 2.11786 5.62985 2.10433C5.60944 2.09079 5.59353 2.07159 5.58413 2.04914C5.57473 2.02669 5.57226 2.00199 5.57704 1.97815C5.58181 1.95432 5.59362 1.93241 5.61097 1.9152L6.08527 1.44644C6.09672 1.43451 6.11047 1.42496 6.12572 1.41836C6.14096 1.41176 6.15739 1.40825 6.17403 1.40803C6.19067 1.40781 6.20718 1.41088 6.2226 1.41708C6.23802 1.42327 6.25202 1.43245 6.26379 1.44408C6.27556 1.45571 6.28485 1.46955 6.29111 1.48479C6.29738 1.50002 6.30049 1.51635 6.30027 1.53279C6.30005 1.54924 6.29649 1.56547 6.28982 1.58054C6.28314 1.5956 6.27348 1.60919 6.2614 1.62051L5.78709 2.08926C5.77551 2.1007 5.76175 2.10976 5.74661 2.11593C5.73147 2.1221 5.71525 2.12525 5.69887 2.1252ZM5.15753 1.59176C5.13294 1.59168 5.10893 1.58442 5.08851 1.57089C5.06809 1.55735 5.05218 1.53815 5.04279 1.5157C5.03339 1.49325 5.03092 1.46855 5.0357 1.44471C5.04047 1.42088 5.05228 1.39897 5.06962 1.38176L5.54393 0.913002C5.55517 0.900332 5.56892 0.890077 5.58433 0.88287C5.59974 0.875664 5.61649 0.87166 5.63353 0.871107C5.65057 0.870554 5.66754 0.873464 5.6834 0.879656C5.69925 0.885847 5.71365 0.895189 5.72571 0.907104C5.73776 0.919018 5.74722 0.933251 5.75348 0.948922C5.75975 0.964592 5.76269 0.981367 5.76213 0.998207C5.76157 1.01505 5.75752 1.0316 5.75023 1.04683C5.74294 1.06206 5.73256 1.07565 5.71974 1.08675L5.24543 1.55551C5.23391 1.56697 5.22022 1.57607 5.20514 1.58229C5.19005 1.58851 5.17387 1.59172 5.15753 1.59176ZM4.61619 1.05675C4.5916 1.05668 4.56759 1.04942 4.54717 1.03588C4.52675 1.02235 4.51084 1.00315 4.50144 0.980696C4.49205 0.958243 4.48958 0.933545 4.49435 0.90971C4.49913 0.885875 4.51094 0.86397 4.52828 0.846752L5.00259 0.377999C5.02615 0.355929 5.0575 0.343819 5.08996 0.344249C5.12242 0.344679 5.15343 0.357614 5.17639 0.380301C5.19934 0.402988 5.21243 0.433633 5.21286 0.465714C5.2133 0.497795 5.20105 0.528776 5.17871 0.552063L4.70441 1.02082C4.69282 1.03226 4.67907 1.04132 4.66393 1.04749C4.64879 1.05365 4.63256 1.0568 4.61619 1.05675ZM6.42804 10.0424C6.40638 10.0424 6.3851 10.0368 6.3663 10.0262C6.34751 10.0155 6.33184 10.0003 6.32084 9.98181L6.12638 9.6565C6.11718 9.64256 6.11094 9.62693 6.10802 9.61055C6.1051 9.59416 6.10558 9.57737 6.10941 9.56117C6.11325 9.54497 6.12036 9.52971 6.13033 9.5163C6.1403 9.5029 6.15292 9.49163 6.16742 9.48317C6.18191 9.47472 6.19799 9.46926 6.21469 9.46712C6.23138 9.46498 6.24834 9.4662 6.26454 9.47072C6.28074 9.47523 6.29585 9.48295 6.30895 9.49339C6.32205 9.50384 6.33287 9.5168 6.34076 9.5315L6.53491 9.85619C6.54606 9.87488 6.552 9.89614 6.55216 9.91784C6.55231 9.93953 6.54666 9.96088 6.53578 9.97972C6.5249 9.99856 6.50917 10.0142 6.4902 10.0251C6.47122 10.036 6.44967 10.0418 6.42772 10.0418L6.42804 10.0424ZM4.87516 10.0496C4.85285 10.0495 4.83099 10.0434 4.81186 10.0321C4.79273 10.0208 4.77703 10.0046 4.76641 9.98517C4.75578 9.96579 4.75061 9.94395 4.75144 9.92192C4.75227 9.89989 4.75907 9.87848 4.77113 9.85994L4.98773 9.52806C4.99639 9.51404 5.0078 9.50188 5.02129 9.4923C5.03478 9.48271 5.05008 9.47588 5.06628 9.47222C5.08247 9.46856 5.09925 9.46814 5.11562 9.47098C5.13198 9.47383 5.14761 9.47988 5.16157 9.48878C5.17554 9.49768 5.18756 9.50925 5.19693 9.52282C5.2063 9.53638 5.21283 9.55166 5.21614 9.56775C5.21944 9.58384 5.21946 9.60043 5.21618 9.61653C5.2129 9.63263 5.2064 9.64792 5.19705 9.6615L4.97982 9.99337C4.96852 10.0106 4.95302 10.0248 4.93474 10.0347C4.91645 10.0445 4.89597 10.0496 4.87516 10.0496ZM5.66662 7.9768C5.63358 7.9768 5.60189 7.96383 5.57852 7.94074C5.55516 7.91765 5.54203 7.88633 5.54203 7.85367V7.44086C5.54203 7.4082 5.55516 7.37689 5.57852 7.35379C5.60189 7.3307 5.63358 7.31773 5.66662 7.31773C5.69966 7.31773 5.73135 7.3307 5.75471 7.35379C5.77808 7.37689 5.7912 7.4082 5.7912 7.44086V7.85399C5.79112 7.88659 5.77796 7.91782 5.7546 7.94085C5.73125 7.96387 5.6996 7.9768 5.66662 7.9768ZM6.59183 8.64087C6.5614 8.64068 6.5321 8.6295 6.50944 8.60943C6.48678 8.58935 6.47234 8.56178 6.46884 8.53191C6.46534 8.50204 6.47302 8.47193 6.49043 8.44727C6.50785 8.42261 6.53379 8.40511 6.56337 8.39805L6.94282 8.30961C6.9747 8.30289 7.00799 8.30879 7.03552 8.32604C7.06306 8.34329 7.08266 8.37053 7.09011 8.4019C7.09756 8.43327 7.09227 8.46627 7.07537 8.49383C7.05847 8.52139 7.03132 8.54131 6.99973 8.5493L6.62029 8.63774C6.61096 8.63986 6.60141 8.64091 6.59183 8.64087ZM4.7335 8.64087C4.72284 8.64096 4.71221 8.6397 4.70188 8.63712L4.35121 8.54868C4.32022 8.5397 4.29396 8.51919 4.27798 8.49146C4.262 8.46373 4.25753 8.43095 4.26553 8.40003C4.27352 8.36911 4.29336 8.34247 4.32084 8.32572C4.34833 8.30896 4.38132 8.30342 4.41287 8.31024L4.76354 8.39868C4.7928 8.40629 4.81826 8.42418 4.83515 8.44899C4.85205 8.4738 4.85923 8.50384 4.85536 8.5335C4.85149 8.56316 4.83683 8.59041 4.81411 8.61017C4.79139 8.62992 4.76218 8.64084 4.73192 8.64087H4.7335ZM10.5362 3.76302C10.5173 3.763 10.4986 3.75873 10.4816 3.75053C10.4646 3.74233 10.4497 3.73042 10.4381 3.71569C10.4265 3.70097 10.4184 3.68382 10.4144 3.66554C10.4105 3.64726 10.4108 3.62834 10.4154 3.61021L11.1132 0.837377C11.1223 0.806935 11.1429 0.781135 11.1708 0.76536C11.1987 0.749586 11.2316 0.745056 11.2628 0.752716C11.294 0.760376 11.3209 0.779633 11.3381 0.806471C11.3552 0.833308 11.3612 0.865651 11.3548 0.896752L10.657 3.66958C10.6502 3.69624 10.6347 3.71992 10.6128 3.73685C10.5909 3.75378 10.564 3.763 10.5362 3.76302ZM12.8976 4.97365C12.8787 4.97364 12.86 4.96937 12.843 4.96117C12.826 4.95297 12.8112 4.94105 12.7995 4.92633C12.7879 4.9116 12.7798 4.89445 12.7758 4.87617C12.7719 4.8579 12.7722 4.83898 12.7768 4.82084L13.4203 2.26489C13.4293 2.23444 13.45 2.20864 13.4778 2.19287C13.5057 2.1771 13.5387 2.17257 13.5698 2.18023C13.601 2.18789 13.628 2.20714 13.6451 2.23398C13.6622 2.26082 13.6682 2.29316 13.6618 2.32426L13.0184 4.88022C13.0117 4.90688 12.9961 4.93055 12.9742 4.94749C12.9524 4.96442 12.9254 4.97363 12.8976 4.97365ZM14.1459 7.71148C14.1214 7.71141 14.0974 7.70415 14.0769 7.69062C14.0565 7.67708 14.0406 7.65788 14.0312 7.63543C14.0218 7.61297 14.0193 7.58828 14.0241 7.56444C14.0289 7.54061 14.0407 7.5187 14.058 7.50148L16.1706 5.41428L15.1733 4.47678L13.2049 6.62398C13.194 6.63612 13.1807 6.64601 13.1659 6.65306C13.1511 6.66011 13.135 6.66419 13.1186 6.66506C13.1021 6.66594 13.0857 6.66358 13.0702 6.65814C13.0547 6.65271 13.0404 6.64428 13.0282 6.63337C13.016 6.62245 13.0061 6.60926 12.9991 6.59455C12.9921 6.57984 12.9881 6.5639 12.9874 6.54766C12.9867 6.53141 12.9892 6.51519 12.9948 6.49991C13.0005 6.48464 13.0091 6.47062 13.0203 6.45866L15.0756 4.21802C15.0867 4.20588 15.1002 4.19606 15.1153 4.18914C15.1303 4.18222 15.1466 4.17834 15.1632 4.17773C15.1798 4.17712 15.1963 4.17979 15.2119 4.18558C15.2274 4.19137 15.2416 4.20017 15.2536 4.21146L16.4356 5.32366C16.4476 5.33498 16.4572 5.34857 16.4639 5.36362C16.4705 5.37868 16.4741 5.3949 16.4743 5.41132C16.4745 5.42774 16.4714 5.44404 16.4651 5.45926C16.4588 5.47447 16.4495 5.48829 16.4378 5.49991L14.2339 7.67523C14.2223 7.68669 14.2086 7.69579 14.1936 7.70201C14.1785 7.70823 14.1623 7.71145 14.1459 7.71148ZM5.57081 16.0003C5.45963 15.9999 5.35095 15.9676 5.25788 15.9075C5.16481 15.8474 5.09133 15.762 5.0463 15.6615C5.00128 15.561 4.98662 15.4498 5.00412 15.3413C5.02161 15.2328 5.07049 15.1316 5.14488 15.05L9.66122 10.1224C9.67216 10.1103 9.68543 10.1004 9.70025 10.0934C9.71508 10.0863 9.73117 10.0822 9.74759 10.0814C9.76402 10.0805 9.78046 10.0828 9.79597 10.0883C9.81147 10.0937 9.82573 10.1021 9.83792 10.113C9.85012 10.124 9.86 10.1372 9.86701 10.1519C9.87401 10.1666 9.878 10.1825 9.87874 10.1988C9.87948 10.215 9.87696 10.2312 9.87132 10.2465C9.86568 10.2618 9.85704 10.2758 9.84589 10.2878L5.32923 15.215C5.27377 15.2774 5.24491 15.3587 5.24869 15.4417C5.25247 15.5248 5.2886 15.6031 5.34952 15.6604C5.41044 15.7177 5.49142 15.7495 5.57551 15.7491C5.65961 15.7488 5.74029 15.7162 5.80069 15.6584L10.6171 10.9003C10.6286 10.8883 10.6423 10.8788 10.6576 10.8722C10.6728 10.8656 10.6892 10.8621 10.7059 10.8618C10.7225 10.8616 10.739 10.8647 10.7544 10.8709C10.7699 10.8771 10.7839 10.8863 10.7956 10.8979C10.8074 10.9095 10.8167 10.9234 10.823 10.9386C10.8292 10.9538 10.8323 10.9702 10.8321 10.9866C10.8319 11.003 10.8283 11.0193 10.8217 11.0343C10.815 11.0494 10.8053 11.063 10.7932 11.0743L5.97681 15.8325C5.92367 15.8855 5.86044 15.9276 5.79076 15.9564C5.72109 15.9852 5.64633 16.0001 5.57081 16.0003Z" fill="black"/>
<path d="M15.9007 3.65965C15.8706 3.65963 15.8416 3.64886 15.8189 3.62934C15.7963 3.60981 15.7815 3.58284 15.7774 3.5534C15.7476 3.34237 15.7665 3.12741 15.8327 2.92462C15.8989 2.72184 16.0107 2.53649 16.1597 2.38246C16.6811 1.84058 18.7668 1.51183 18.8553 1.49808C18.8742 1.49514 18.8935 1.49654 18.9118 1.50216C18.93 1.50779 18.9467 1.51748 18.9605 1.53051C18.9744 1.54353 18.985 1.55952 18.9916 1.57726C18.9982 1.59499 19.0006 1.61398 18.9986 1.63277C18.9986 1.63589 18.9638 1.95214 18.8942 2.36371C18.8918 2.37994 18.8862 2.39555 18.8777 2.4096C18.8691 2.42366 18.8578 2.43588 18.8444 2.44556C18.831 2.45523 18.8158 2.46216 18.7996 2.46594C18.7835 2.46972 18.7667 2.47028 18.7503 2.46757C18.734 2.46486 18.7183 2.45895 18.7043 2.45018C18.6903 2.44141 18.6781 2.42996 18.6687 2.4165C18.6592 2.40304 18.6525 2.38784 18.649 2.3718C18.6456 2.35576 18.6454 2.3392 18.6485 2.32308C18.6871 2.09527 18.7146 1.89777 18.7314 1.76777C18.0594 1.88464 16.6912 2.18527 16.3396 2.55215C16.2163 2.67954 16.1238 2.83288 16.069 3.00066C16.0142 3.16845 15.9986 3.34631 16.0234 3.5209C16.0258 3.53833 16.0244 3.55606 16.0192 3.57289C16.0141 3.58973 16.0054 3.6053 15.9937 3.61853C15.982 3.63176 15.9675 3.64237 15.9513 3.64962C15.9351 3.65688 15.9175 3.66062 15.8998 3.66059L15.9007 3.65965ZM17.1971 4.77716C17.155 4.77716 17.1128 4.77539 17.0707 4.77185C17.038 4.76865 17.008 4.75289 16.9871 4.72796C16.9661 4.70304 16.956 4.67097 16.9588 4.6387C16.9616 4.60643 16.9772 4.57656 17.0022 4.55556C17.0271 4.53457 17.0595 4.52414 17.0922 4.52653C17.2697 4.54225 17.4485 4.51809 17.6152 4.45586C17.782 4.39362 17.9323 4.29493 18.055 4.16716C18.1774 4.04028 18.3617 3.70934 18.5457 2.85277C18.5538 2.82204 18.5735 2.79557 18.6008 2.77887C18.6281 2.76217 18.6609 2.75654 18.6923 2.76315C18.7237 2.76976 18.7513 2.78811 18.7694 2.81435C18.7875 2.8406 18.7946 2.87273 18.7892 2.90402C18.6311 3.63684 18.4452 4.11903 18.2352 4.33685C18.1016 4.47616 17.9406 4.58706 17.7621 4.66277C17.5836 4.73848 17.3914 4.7774 17.1971 4.77716Z" fill="black"/>
<path d="M16.3494 5.53431C16.3174 5.5343 16.2866 5.52211 16.2634 5.50025L15.0802 4.38836C15.0562 4.36586 15.0423 4.33488 15.0415 4.30224C15.0406 4.26959 15.053 4.23796 15.0757 4.2143L15.8311 3.43023C15.8424 3.41852 15.856 3.40913 15.8709 3.40258C15.8859 3.39604 15.9021 3.39248 15.9184 3.39211C15.9514 3.39158 15.9833 3.4038 16.0073 3.42617L17.1892 4.53836C17.2132 4.56087 17.2271 4.59185 17.2279 4.62449C17.2288 4.65713 17.2164 4.68876 17.1937 4.71243L16.4398 5.49618C16.4285 5.50789 16.415 5.51729 16.4 5.52383C16.3851 5.53037 16.3689 5.53393 16.3526 5.53431H16.3494ZM15.3436 4.29492L16.345 5.23743L16.9287 4.63149L15.927 3.68898L15.3436 4.29492ZM12.1015 13.8781C12.0737 13.878 12.0468 13.8687 12.025 13.8517C12.0031 13.8347 11.9877 13.811 11.981 13.7844L11.5039 11.9337C11.4667 11.7908 11.3997 11.6572 11.3071 11.5414C11.2145 11.4256 11.0984 11.3303 10.9663 11.2615L10.3175 10.9228C10.0924 10.8053 9.89846 10.6372 9.75115 10.432C9.60383 10.2269 9.50731 9.99041 9.46935 9.74167C9.4314 9.49293 9.45306 9.23886 9.5326 8.9999C9.61214 8.76094 9.74733 8.54378 9.9273 8.36589L10.3131 7.98464C10.3366 7.96257 10.368 7.95046 10.4004 7.95089C10.4329 7.95132 10.4639 7.96425 10.4869 7.98694C10.5098 8.00962 10.5229 8.04027 10.5233 8.07235C10.5238 8.10443 10.5115 8.13541 10.4892 8.1587L10.1034 8.53995C9.9509 8.69067 9.83634 8.87469 9.76898 9.07719C9.70162 9.27968 9.68334 9.49499 9.71562 9.70574C9.7479 9.9165 9.82982 10.1168 9.9548 10.2905C10.0798 10.4643 10.2443 10.6065 10.4351 10.7059L11.084 11.0447C11.2467 11.1298 11.3895 11.2476 11.5034 11.3906C11.6173 11.5335 11.6996 11.6984 11.7452 11.8747L12.2223 13.7253C12.227 13.7435 12.2274 13.7625 12.2235 13.7808C12.2196 13.7992 12.2115 13.8164 12.1999 13.8312C12.1882 13.846 12.1733 13.858 12.1563 13.8662C12.1392 13.8745 12.1205 13.8787 12.1015 13.8787V13.8781Z" fill="black"/>
<path d="M14.4762 15.6965C14.0155 15.6964 13.5632 15.5746 13.166 15.3439C12.7688 15.1132 12.4412 14.7818 12.217 14.384C12.2029 14.3555 12.2006 14.3228 12.2103 14.2927C12.2201 14.2625 12.2412 14.2372 12.2693 14.222C12.2974 14.2069 12.3304 14.203 12.3613 14.2112C12.3923 14.2194 12.4188 14.2391 12.4355 14.2662C12.6098 14.5766 12.8546 14.8428 13.1506 15.0439C13.4466 15.245 13.7857 15.3756 14.1414 15.4253C14.4967 15.4766 14.8593 15.4446 15.1998 15.332C15.5404 15.2194 15.8494 15.0292 16.1019 14.7768L17.9839 12.9171C18.2741 12.6303 18.482 12.2725 18.5864 11.8802C18.6907 11.4879 18.6877 11.0753 18.5777 10.6845C18.4677 10.2938 18.2546 9.9389 17.9603 9.65625C17.6659 9.3736 17.3009 9.1733 16.9025 9.07586L15.0498 8.62492C14.8666 8.5799 14.6954 8.4965 14.5476 8.38037C14.3999 8.26423 14.2792 8.11807 14.1936 7.95179L13.8742 7.33303C13.7754 7.14182 13.6323 6.97641 13.4565 6.85032C13.2807 6.72422 13.0772 6.64101 12.8627 6.60749C12.6481 6.57397 12.4286 6.59108 12.222 6.65744C12.0154 6.72379 11.8277 6.8375 11.674 6.98928L11.2892 7.36991C11.2778 7.38185 11.264 7.3914 11.2488 7.39799C11.2335 7.40459 11.2171 7.4081 11.2005 7.40832C11.1838 7.40855 11.1673 7.40547 11.1519 7.39928C11.1365 7.39308 11.1225 7.3839 11.1107 7.37227C11.0989 7.36064 11.0897 7.3468 11.0834 7.33157C11.0771 7.31633 11.074 7.30001 11.0742 7.28356C11.0745 7.26711 11.078 7.25088 11.0847 7.23581C11.0914 7.22075 11.101 7.20716 11.1131 7.19585L11.4979 6.81522C11.6794 6.63599 11.9011 6.50172 12.1451 6.42338C12.3891 6.34504 12.6483 6.32485 12.9017 6.36447C13.1551 6.40409 13.3954 6.50238 13.603 6.65133C13.8106 6.80027 13.9796 6.99564 14.0962 7.22147L14.4149 7.83991C14.4845 7.97474 14.5827 8.09318 14.7027 8.18722C14.8228 8.28125 14.9618 8.34868 15.1106 8.38492L16.9651 8.83836C17.4064 8.94635 17.8108 9.1683 18.1368 9.48149C18.4628 9.79467 18.6987 10.1879 18.8205 10.6208C18.9422 11.0537 18.9453 11.5108 18.8296 11.9453C18.7138 12.3799 18.4833 12.7762 18.1616 13.0937L16.2805 14.9521C16.0445 15.188 15.7635 15.3752 15.4538 15.5029C15.1441 15.6307 14.8119 15.6965 14.4762 15.6965Z" fill="black"/>
<path d="M12.7271 10.833C12.4346 10.8324 12.1513 10.7317 11.9256 10.5479C11.6998 10.3641 11.5454 10.1087 11.4888 9.82506C11.4321 9.54145 11.4767 9.24721 11.6149 8.99243C11.7531 8.73765 11.9764 8.53808 12.2467 8.42771C12.5171 8.31734 12.8178 8.30298 13.0976 8.38708C13.3775 8.47117 13.6192 8.64853 13.7816 8.88896C13.944 9.12938 14.0171 9.418 13.9884 9.70569C13.9597 9.99337 13.831 10.2623 13.6242 10.4668C13.5065 10.5833 13.3666 10.6756 13.2126 10.7384C13.0587 10.8013 12.8937 10.8334 12.7271 10.833ZM12.7271 8.57551C12.4917 8.57584 12.2636 8.65682 12.0818 8.80464C11.9001 8.95247 11.7757 9.15801 11.73 9.38625C11.6844 9.61449 11.7201 9.85133 11.8313 10.0564C11.9425 10.2615 12.1221 10.4222 12.3397 10.5111C12.5572 10.6 12.7993 10.6116 13.0245 10.5439C13.2498 10.4763 13.4443 10.3336 13.575 10.1401C13.7058 9.94658 13.7646 9.71428 13.7415 9.48274C13.7184 9.2512 13.6148 9.03473 13.4484 8.8702C13.3535 8.77635 13.2408 8.702 13.1167 8.65142C12.9927 8.60084 12.8597 8.57504 12.7255 8.57551H12.7271Z" fill="black"/>
<path d="M11.6257 9.40629C11.5927 9.40628 11.5611 9.39335 11.5378 9.37035L5.50521 3.40813C5.48186 3.38504 5.46875 3.35374 5.46875 3.3211C5.46875 3.28846 5.48186 3.25715 5.50521 3.23406L6.30489 2.44375C6.32825 2.42067 6.35992 2.40771 6.39295 2.40771C6.42598 2.40771 6.45765 2.42067 6.48101 2.44375L7.06062 3.01656C7.08295 3.03985 7.0952 3.07083 7.09477 3.10291C7.09433 3.13499 7.08124 3.16564 7.05829 3.18832C7.03533 3.21101 7.00432 3.22395 6.97186 3.22438C6.9394 3.22481 6.90805 3.2127 6.88449 3.19063L6.39279 2.70469L5.76924 3.32094L11.5757 9.05973C11.7024 8.78731 11.9236 8.56871 12.1993 8.44347L7.26014 3.5625C7.23781 3.53922 7.22556 3.50824 7.22599 3.47615C7.22643 3.44407 7.23952 3.41343 7.26247 3.39074C7.28543 3.36806 7.31643 3.35512 7.3489 3.35469C7.38136 3.35426 7.4127 3.36637 7.43627 3.38844L12.5136 8.40629C12.5289 8.42154 12.54 8.44052 12.5456 8.46131C12.5513 8.48211 12.5513 8.50401 12.5457 8.52481C12.5401 8.54562 12.5291 8.56461 12.5137 8.5799C12.4984 8.59518 12.4792 8.60622 12.4582 8.61191C12.288 8.65828 12.1328 8.74754 12.0079 8.87096C11.883 8.99437 11.7927 9.14772 11.7458 9.31598C11.7386 9.34201 11.7229 9.36498 11.7012 9.38136C11.6795 9.39773 11.653 9.4066 11.6257 9.4066V9.40629Z" fill="black"/>
<path d="M5.36969 3.48842C5.2967 3.48855 5.2244 3.47443 5.15695 3.44687C5.0895 3.4193 5.02822 3.37883 4.97665 3.32779L3.17428 1.54653C3.15094 1.52344 3.13783 1.49214 3.13783 1.4595C3.13783 1.42686 3.15094 1.39555 3.17428 1.37247L4.42139 0.138082C4.44475 0.115011 4.47643 0.102051 4.50946 0.102051C4.54248 0.102051 4.57416 0.115011 4.59752 0.138082L6.39988 1.91934C6.50396 2.02245 6.56241 2.16214 6.56241 2.30778C6.56241 2.45342 6.50396 2.59312 6.39988 2.69622L5.76273 3.32779C5.71114 3.37882 5.64987 3.41928 5.58242 3.44684C5.51497 3.47441 5.44268 3.48854 5.36969 3.48842ZM3.43737 1.45715L5.15277 3.15248C5.21034 3.20927 5.28835 3.24116 5.36969 3.24116C5.45103 3.24116 5.52904 3.20927 5.58661 3.15248L6.22629 2.5231C6.25488 2.49491 6.27757 2.46142 6.29305 2.42456C6.30853 2.38769 6.3165 2.34817 6.3165 2.30825C6.3165 2.26834 6.30853 2.22881 6.29305 2.19195C6.27757 2.15508 6.25488 2.12159 6.22629 2.09341L4.5093 0.399021L3.43737 1.45715ZM13.8942 13.14C13.8779 13.1401 13.8618 13.1369 13.8467 13.1307C13.8316 13.1245 13.8179 13.1155 13.8063 13.1041L13.37 12.6729C13.3466 12.6498 13.3335 12.6185 13.3335 12.5858C13.3335 12.5532 13.3466 12.5219 13.37 12.4988L15.6808 10.2153C15.7042 10.1923 15.7358 10.1793 15.7689 10.1793C15.8019 10.1793 15.8336 10.1923 15.8569 10.2153L16.2933 10.6466C16.3166 10.6697 16.3297 10.701 16.3297 10.7336C16.3297 10.7663 16.3166 10.7976 16.2933 10.8207L13.9828 13.1041C13.9712 13.1156 13.9573 13.1247 13.9421 13.1308C13.9269 13.137 13.9107 13.1401 13.8942 13.14ZM13.634 12.586L13.8942 12.8435L16.0286 10.7341L15.7684 10.4769L13.634 12.586ZM5.66439 11.4141C4.99076 11.4142 4.34215 11.1618 3.84931 10.708C3.35647 10.2542 3.05604 9.63254 3.00859 8.96845C3.00417 8.90751 3.00195 8.84345 3.00195 8.78095C3.00195 8.08314 3.28244 7.4139 3.78172 6.92048C4.28099 6.42705 4.95815 6.14984 5.66423 6.14984C6.37031 6.14984 7.04748 6.42705 7.54675 6.92048C8.04603 7.4139 8.32651 8.08314 8.32651 8.78095C8.32651 8.8472 8.32398 8.91501 8.31893 8.9822C8.27976 9.4954 8.08827 9.98577 7.76841 10.3919C7.51987 10.7094 7.20096 10.9663 6.83621 11.1429C6.47145 11.3196 6.07057 11.4111 5.66439 11.4107V11.4141ZM5.66439 6.39812C5.34744 6.398 5.03357 6.45961 4.74073 6.57942C4.44788 6.69924 4.18179 6.87491 3.95767 7.0964C3.73356 7.3179 3.5558 7.58087 3.43457 7.87029C3.31333 8.15971 3.251 8.4699 3.25112 8.78314C3.25112 8.84033 3.25302 8.8972 3.25713 8.9522C3.28959 9.41145 3.45659 9.85142 3.73776 10.2185C3.96096 10.5112 4.24947 10.7492 4.58086 10.9138C4.91225 11.0785 5.27759 11.1654 5.64849 11.1678C6.0194 11.1702 6.38587 11.0881 6.71943 10.9278C7.05298 10.7675 7.34464 10.5333 7.57174 10.2435C7.86105 9.87608 8.03449 9.43263 8.07039 8.96845C8.07513 8.90595 8.07735 8.84501 8.07735 8.78439C8.07764 8.4711 8.01541 8.16084 7.89424 7.87134C7.77306 7.58185 7.59532 7.31881 7.37116 7.09729C7.14701 6.87576 6.88086 6.70009 6.58794 6.58034C6.29502 6.46058 5.98107 6.39909 5.66408 6.39937L5.66439 6.39812Z" fill="black"/>
<path d="M6.2373 9.72027H5.08979C5.06348 9.72029 5.03783 9.71208 5.01653 9.69681C4.99523 9.68154 4.97936 9.66 4.97122 9.63527L4.61675 8.55683C4.60865 8.53212 4.60867 8.50552 4.61679 8.48083C4.62491 8.45613 4.64072 8.4346 4.66197 8.41933L5.59034 7.75276C5.61162 7.73749 5.63725 7.72926 5.66355 7.72926C5.68984 7.72926 5.71547 7.73749 5.73675 7.75276L6.66512 8.41933C6.68637 8.4346 6.70218 8.45613 6.7103 8.48083C6.71842 8.50552 6.71844 8.53212 6.71034 8.55683L6.35587 9.63527C6.34773 9.66 6.33186 9.68154 6.31056 9.69681C6.28926 9.71208 6.26361 9.72029 6.2373 9.72027ZM5.18023 9.47402H6.14686L6.44694 8.56558L5.66497 8.00307L4.883 8.56558L5.18023 9.47402ZM5.6637 7.56026C5.63746 7.56026 5.61189 7.55206 5.59066 7.53682L4.66197 6.87025C4.64072 6.85497 4.62491 6.83345 4.61679 6.80875C4.60867 6.78406 4.60865 6.75746 4.61675 6.73275L4.73691 6.36712C4.7429 6.34883 4.75314 6.33219 4.76682 6.31851C4.78049 6.30483 4.79721 6.29451 4.81564 6.28837C5.36585 6.10664 5.96093 6.10664 6.51113 6.28837C6.52956 6.29451 6.54629 6.30483 6.55996 6.31851C6.57363 6.33219 6.58387 6.34883 6.58987 6.36712L6.71002 6.73275C6.71812 6.75746 6.71811 6.78406 6.70999 6.80875C6.70186 6.83345 6.68605 6.85497 6.66481 6.87025L5.73675 7.53682C5.71551 7.55206 5.68994 7.56026 5.6637 7.56026ZM4.88173 6.72369L5.6637 7.28619L6.44568 6.72369L6.37295 6.50275C5.91057 6.36309 5.41652 6.36309 4.95414 6.50275L4.88173 6.72369ZM3.52648 9.30902C3.50428 9.30918 3.48244 9.30346 3.46324 9.29246L3.06988 9.06777C3.05201 9.05786 3.0369 9.04375 3.02587 9.02669C3.01483 9.00963 3.00823 8.99014 3.00664 8.96995C3.00221 8.90745 3 8.84495 3 8.78245C2.99992 8.27985 3.146 7.78781 3.42087 7.36494C3.43094 7.34943 3.44441 7.33635 3.46028 7.32667C3.47615 7.31699 3.49402 7.31095 3.51257 7.30901L3.89928 7.26869C3.92537 7.26604 3.95164 7.27159 3.97435 7.28455C3.99706 7.29751 4.01505 7.31722 4.02577 7.34088L4.4928 8.37714C4.50336 8.40101 4.50599 8.42757 4.50031 8.45301C4.49462 8.47844 4.48093 8.50144 4.46118 8.5187L3.60743 9.27746C3.58516 9.29725 3.55642 9.30846 3.52648 9.30902ZM3.25328 8.88777L3.51099 9.03495L4.22909 8.39589L3.83541 7.52307L3.59889 7.54776C3.37058 7.92036 3.25025 8.3478 3.25107 8.78339C3.25043 8.81808 3.25107 8.85308 3.25328 8.88777ZM7.82654 9.30902C7.79576 9.30918 7.76601 9.29804 7.74306 9.27777L6.88963 8.5187C6.86988 8.50144 6.85618 8.47844 6.8505 8.45301C6.84482 8.42757 6.84745 8.40101 6.85801 8.37714L7.32472 7.34119C7.33543 7.31754 7.35343 7.29782 7.37614 7.28486C7.39885 7.2719 7.42512 7.26635 7.45121 7.26901L7.81041 7.30619C7.82896 7.30814 7.84683 7.31418 7.8627 7.32386C7.87857 7.33354 7.89204 7.34662 7.90211 7.36213C8.17791 7.786 8.32425 8.27945 8.32361 8.78339C8.32361 8.84995 8.32108 8.91777 8.31602 8.98527C8.31443 9.00545 8.30783 9.02494 8.2968 9.042C8.28577 9.05906 8.27065 9.07317 8.25278 9.08308L7.88535 9.29277C7.86742 9.30294 7.84721 9.30852 7.82654 9.30902ZM7.12425 8.39558L7.84267 9.03464L8.07381 8.90277C8.07571 8.86277 8.07666 8.82245 8.07666 8.78308C8.07733 8.34628 7.9561 7.91775 7.7263 7.54463L7.51729 7.52307L7.12425 8.39558ZM4.99778 11.3268C4.98709 11.3267 4.97647 11.3252 4.96616 11.3225C4.39651 11.1687 3.89432 10.833 3.53786 10.3678C3.52633 10.3527 3.51848 10.3351 3.51492 10.3166C3.51135 10.298 3.51217 10.2788 3.51731 10.2606L3.60838 9.93746C3.61544 9.9124 3.63034 9.89019 3.65097 9.87402C3.67159 9.85785 3.69686 9.84855 3.72316 9.84746L4.8694 9.79965C4.8959 9.79869 4.92203 9.80599 4.9441 9.82052C4.96618 9.83504 4.98307 9.85605 4.9924 9.88058L5.39272 10.9431C5.4019 10.9674 5.40305 10.994 5.39601 11.0191C5.38896 11.0441 5.37409 11.0663 5.35351 11.0825L5.07588 11.3012C5.05353 11.3183 5.026 11.3273 4.99778 11.3268ZM3.77438 10.2671C4.08155 10.6481 4.49878 10.9275 4.97058 11.0684L5.12869 10.9456L4.78972 10.0503L3.82403 10.0906L3.77438 10.2671ZM6.30939 11.3322C6.28084 11.3321 6.25315 11.3224 6.23097 11.3047L5.94101 11.0734C5.92059 11.0571 5.90592 11.0347 5.8991 11.0096C5.89229 10.9846 5.89368 10.958 5.90307 10.9337L6.31414 9.87465C6.32381 9.85058 6.34081 9.83007 6.36279 9.81596C6.38477 9.80186 6.41064 9.79484 6.43682 9.7959L7.58275 9.85433C7.609 9.85568 7.63415 9.86521 7.6546 9.88154C7.67505 9.89787 7.68974 9.92018 7.69658 9.94527L7.78986 10.289C7.79487 10.3074 7.79551 10.3267 7.79173 10.3453C7.78794 10.364 7.77983 10.3815 7.76804 10.3965C7.40854 10.8533 6.90735 11.181 6.34133 11.3293C6.33085 11.3316 6.32012 11.3326 6.30939 11.3322ZM6.16837 10.9375L6.33785 11.0731C6.8065 10.9373 7.22283 10.6651 7.53247 10.2918L7.47903 10.0953L6.51366 10.0462L6.16837 10.9375ZM9.98843 4.18461C9.8454 4.1846 9.70593 4.14048 9.58949 4.0584C9.47304 3.97632 9.38541 3.86037 9.33883 3.72673C9.29224 3.59308 9.28901 3.4484 9.3296 3.31285C9.37019 3.17731 9.45256 3.05766 9.56524 2.97059C9.67791 2.88352 9.81527 2.83337 9.95817 2.82714C10.1011 2.8209 10.2424 2.85889 10.3624 2.93581C10.4824 3.01273 10.5751 3.12474 10.6276 3.25622C10.6801 3.38771 10.6898 3.53211 10.6553 3.66929C10.6181 3.81633 10.5323 3.94688 10.4115 4.04023C10.2907 4.13359 10.1418 4.1844 9.98843 4.18461ZM9.98843 3.07242C9.87681 3.07237 9.76937 3.11441 9.68805 3.18997C9.60672 3.26553 9.55763 3.3689 9.5508 3.47901C9.54396 3.58912 9.57989 3.69765 9.65125 3.78247C9.72262 3.86729 9.82405 3.922 9.93483 3.93544C10.0456 3.94888 10.1574 3.92004 10.2474 3.8548C10.3374 3.78956 10.3989 3.69283 10.4192 3.58436C10.4395 3.47589 10.4172 3.36385 10.3567 3.27109C10.2963 3.17834 10.2024 3.11186 10.094 3.08523C10.0595 3.07674 10.024 3.07244 9.98843 3.07242ZM12.3543 5.39524C12.298 5.39521 12.2419 5.38838 12.1873 5.37493C12.0186 5.33309 11.8724 5.22924 11.7785 5.08455C11.6846 4.93987 11.65 4.76523 11.6819 4.59624C11.7137 4.42725 11.8096 4.27663 11.9499 4.17507C12.0903 4.07351 12.2645 4.02867 12.4371 4.04967C12.6098 4.07067 12.7678 4.15594 12.879 4.28811C12.9902 4.42027 13.0463 4.58937 13.0357 4.76095C13.0251 4.93253 12.9488 5.09367 12.8221 5.21153C12.6955 5.32938 12.5282 5.39509 12.3543 5.39524ZM12.3524 4.28274C12.2703 4.28284 12.1898 4.30575 12.1202 4.34885C12.0507 4.39194 11.9947 4.45349 11.9588 4.52648C11.9229 4.59946 11.9085 4.68095 11.9172 4.76165C11.9258 4.84235 11.9573 4.91902 12.0079 4.98292C12.0585 5.04681 12.1263 5.09536 12.2035 5.12303C12.2807 5.15071 12.3642 5.15639 12.4445 5.13943C12.5248 5.12247 12.5987 5.08356 12.6577 5.02712C12.7167 4.97069 12.7585 4.899 12.7783 4.82024C12.7922 4.76506 12.795 4.70772 12.7865 4.65148C12.7779 4.59524 12.7583 4.54122 12.7286 4.49249C12.699 4.44377 12.6599 4.40129 12.6136 4.3675C12.5673 4.33371 12.5148 4.30926 12.4589 4.29555C12.424 4.287 12.3881 4.28269 12.3521 4.28274H12.3524ZM13.472 2.7271C13.4482 2.72706 13.4248 2.72022 13.4047 2.70741L11.0989 1.23865C11.0771 1.22474 11.0602 1.20443 11.0506 1.18056C11.041 1.15669 11.0392 1.13045 11.0455 1.10553L11.3004 0.0936457C11.3051 0.0747643 11.3142 0.0572544 11.3271 0.0425499C11.34 0.0278454 11.3562 0.0163645 11.3744 0.00904758C11.3927 0.00173062 11.4124 -0.00121434 11.432 0.000453885C11.4516 0.00212211 11.4705 0.00835607 11.4872 0.0186452L13.7955 1.44615C13.8177 1.45985 13.8349 1.48007 13.8447 1.50395C13.8546 1.52784 13.8566 1.55419 13.8505 1.57928L13.5932 2.63304C13.5865 2.65981 13.5709 2.68359 13.549 2.70059C13.527 2.71759 13.4999 2.72681 13.472 2.72679V2.7271ZM11.3086 1.07928L13.3924 2.40616L13.5875 1.60741L11.5005 0.316772L11.3086 1.07928Z" fill="black"/>
</svg>
