<svg width="25" height="24" viewBox="0 0 25 24" fill="none" xmlns="http://www.w3.org/2000/svg">
<path d="M14.6265 8.8998C14.4265 8.8998 14.2265 9.0998 14.2265 9.2998C14.2265 9.4998 14.4265 9.6998 14.6265 9.6998C14.8265 9.6998 15.0265 9.4998 15.0265 9.2998C15.0265 9.0998 14.8265 8.8998 14.6265 8.8998" stroke="#6F6F6F" stroke-width="1.5" stroke-linecap="round" stroke-linejoin="round"/>
<path fill-rule="evenodd" clip-rule="evenodd" d="M9.72656 11.2999L8.82656 9.29995C8.52656 8.49995 8.72656 7.59995 9.32656 6.99995L12.2266 4.09995C12.8266 3.49995 13.6266 3.39995 14.4266 3.69995L17.9266 5.19995C18.4266 5.39995 18.8266 5.79995 19.0266 6.29995L20.5266 9.79995C20.8266 10.5999 20.6266 11.3999 20.1266 11.9999L17.2266 14.8999C16.6266 15.4999 15.8266 15.5999 15.0266 15.2999L12.9266 14.3999L6.92656 20.3999H3.72656V17.1999L9.72656 11.2999Z" stroke="#6F6F6F" stroke-width="1.5" stroke-linecap="round" stroke-linejoin="round"/>
</svg>
