<svg width="24" height="24" viewBox="0 0 24 24" fill="none" xmlns="http://www.w3.org/2000/svg">
<path d="M14.3368 15.3923C14.2316 15.3923 14.1264 15.3671 14.0306 15.3166C13.9362 15.2669 11.6918 14.0776 9.41538 12.2859C6.25427 9.79784 4.65907 7.44413 4.67393 5.2902C4.68377 3.87602 5.23665 2.54824 6.23079 1.55142C7.22859 0.550952 8.55605 0 9.96868 0C11.74 0 13.366 0.890223 14.3368 2.30998C15.3077 0.890223 16.9337 0 18.7049 0C20.1304 0 21.4685 0.556952 22.4729 1.5682C23.4671 2.56942 24.0094 3.89444 23.9996 5.29929C23.9847 7.44906 22.3816 9.79944 19.2348 12.2851C16.9668 14.0767 14.7385 15.2659 14.6447 15.3157C14.5499 15.366 14.4442 15.3924 14.3368 15.3923Z" fill="#F43F5E"/>
<path d="M22.4729 1.5682C21.4686 0.556952 20.1305 0 18.705 0C16.9338 0 15.3077 0.890223 14.3369 2.30998V15.3923C14.4443 15.3924 14.55 15.366 14.6449 15.3157C14.7386 15.266 16.9669 14.0768 19.2349 12.2852C22.3817 9.79944 23.9848 7.44906 23.9998 5.29934C24.0094 3.89444 23.4672 2.56938 22.4729 1.5682Z" fill="#DB0034"/>
<path d="M17.4132 23.9997L10.8675 23.9416L10.9202 23.9425C10.9027 23.9402 10.8852 23.9419 10.8675 23.9416C9.64277 23.9176 8.65322 23.7356 7.57274 23.3613C6.97168 23.1531 6.39491 22.8806 5.85248 22.5483L3.79248 21.4274V16.3932C3.80336 15.2848 5.02544 14.3072 6.14553 14.0724C6.93821 13.9063 7.65027 13.4991 8.11905 12.8863C8.76188 12.0461 9.45875 9.60466 9.75189 7.16602L10.7119 7.17689C11.7042 7.18814 12.5013 7.94051 12.4923 8.85731L12.4512 13.0502L17.0061 13.1479L17.2038 13.1501C18.0314 13.1595 18.6947 13.9467 18.6852 14.9085C18.6758 15.8702 17.9972 16.6422 17.1695 16.6328C17.9972 16.6422 18.9938 17.5679 18.9844 18.5296C18.9749 19.4913 18.2644 20.3383 17.4368 20.3289C18.2644 20.3383 18.9277 21.1255 18.9182 22.0873C18.9088 23.049 18.2408 24.0091 17.4132 23.9997Z" fill="#FDDAD8"/>
<path d="M10.9204 23.9423C10.916 23.9418 10.9116 23.9419 10.9071 23.9417L10.8677 23.9414L10.9204 23.9423Z" fill="#FBB5AE"/>
<path d="M3.79248 18.1651V21.4279L5.85248 22.5488C6.39491 22.881 6.97168 23.1536 7.57274 23.3617C8.65322 23.7361 9.64277 23.9179 10.8675 23.942C10.8808 23.9423 10.8939 23.9419 10.907 23.9423L17.4132 24.0001C18.2408 24.0096 18.9089 23.0495 18.9183 22.0877C18.9277 21.126 18.2645 20.3388 17.4369 20.3294C18.2645 20.3388 18.975 19.4918 18.9844 18.5301C18.9857 18.4072 18.9702 18.2849 18.941 18.165H3.79248V18.1651Z" fill="#FBB5AE"/>
<path d="M3.79231 22.856H0.703104C0.314803 22.856 0 22.5412 0 22.1529V14.1767C0 13.7884 0.314803 13.4736 0.703104 13.4736H3.79231C4.18061 13.4736 4.49541 13.7884 4.49541 14.1767V22.1529C4.49541 22.5412 4.18061 22.856 3.79231 22.856Z" fill="#186FA2"/>
<path d="M0 18.165V22.1531C0 22.5414 0.314803 22.8562 0.703104 22.8562H3.79231C4.18061 22.8562 4.49541 22.5414 4.49541 22.1531V18.165H0Z" fill="#063651"/>
</svg>
