<svg width="24" height="24" viewBox="0 0 24 24" fill="none" xmlns="http://www.w3.org/2000/svg">
<path d="M10.4998 16.0001C10.4998 15.1717 11.1714 14.5001 11.9998 14.5001C12.8282 14.5001 13.4998 15.1717 13.4998 16.0001C13.4998 16.8285 12.8282 17.5001 11.9998 17.5001C11.1714 17.5001 10.4998 16.8285 10.4998 16.0001Z" fill="#414141"/>
<path fill-rule="evenodd" clip-rule="evenodd" d="M7.62147 10.5973L7.30603 7.75828C7.26559 7.3943 7.26559 7.02696 7.30603 6.66298L7.32879 6.45809C7.57028 4.2847 9.27888 2.56504 11.4507 2.30953C11.8155 2.26661 12.1841 2.26661 12.5489 2.30953C14.7207 2.56504 16.4293 4.2847 16.6708 6.45809L16.6936 6.66298C16.734 7.02696 16.734 7.3943 16.6936 7.75828L16.3781 10.5972L17.0647 10.6521C18.1474 10.7385 19.0316 11.5524 19.2071 12.6243C19.5731 14.8599 19.5731 17.1403 19.2071 19.3759C19.0316 20.4478 18.1474 21.2617 17.0647 21.3482L15.5686 21.4676C13.1932 21.6572 10.8065 21.6572 8.4311 21.4676L6.93497 21.3482C5.85224 21.2617 4.96814 20.4478 4.79262 19.3759C4.42655 17.1403 4.42655 14.8599 4.79262 12.6243C4.96814 11.5524 5.85224 10.7385 6.93497 10.6521L7.62147 10.5973ZM11.6259 3.79926C11.8743 3.77004 12.1253 3.77004 12.3737 3.79926C13.8523 3.97322 15.0156 5.14402 15.18 6.62373L15.2027 6.82863C15.2309 7.08252 15.2309 7.33874 15.2027 7.59263L14.8816 10.4831C12.9624 10.3595 11.0372 10.3595 9.11801 10.4831L8.79685 7.59263C8.76864 7.33875 8.76864 7.08252 8.79685 6.82863L8.81962 6.62373C8.98403 5.14402 10.1473 3.97322 11.6259 3.79926ZM15.4492 12.0279C13.1533 11.8446 10.8464 11.8446 8.55047 12.0279L7.05434 12.1473C6.65941 12.1788 6.33693 12.4757 6.27291 12.8667C5.93312 14.9418 5.93312 17.0584 6.27291 19.1335C6.33693 19.5245 6.65941 19.8214 7.05434 19.8529L8.55047 19.9723C10.8464 20.1556 13.1533 20.1556 15.4492 19.9723L16.9454 19.8529C17.3403 19.8214 17.6628 19.5245 17.7268 19.1335C18.0666 17.0584 18.0666 14.9418 17.7268 12.8667C17.6628 12.4757 17.3403 12.1788 16.9454 12.1473L15.4492 12.0279Z" fill="#414141"/>
</svg>
