<svg width="25" height="24" viewBox="0 0 25 24" fill="none" xmlns="http://www.w3.org/2000/svg">
<path d="M8.22656 18.9282C9.44272 19.6303 10.8223 20 12.2266 20C13.6309 20 15.0104 19.6303 16.2266 18.9282C17.4427 18.2261 18.4526 17.2162 19.1548 16C19.8569 14.7838 20.2266 13.4043 20.2266 12C20.2266 10.5957 19.8569 9.21615 19.1548 8C18.4526 6.78385 17.4427 5.77394 16.2266 5.0718C15.0104 4.36965 13.6309 4 12.2266 4C10.8223 4 9.44272 4.36965 8.22656 5.0718" stroke="#DB0034"/>
<path d="M2.22656 12L1.83613 11.6877L1.58625 12L1.83613 12.3123L2.22656 12ZM11.2266 12.5C11.5027 12.5 11.7266 12.2761 11.7266 12C11.7266 11.7239 11.5027 11.5 11.2266 11.5V12.5ZM5.83613 6.68765L1.83613 11.6877L2.617 12.3123L6.617 7.31235L5.83613 6.68765ZM1.83613 12.3123L5.83613 17.3123L6.617 16.6877L2.617 11.6877L1.83613 12.3123ZM2.22656 12.5H11.2266V11.5H2.22656V12.5Z" fill="#DB0034"/>
</svg>
