<svg width="24" height="24" viewBox="0 0 24 24" fill="none" xmlns="http://www.w3.org/2000/svg">
<mask id="mask0_394_2520" style="mask-type:luminance" maskUnits="userSpaceOnUse" x="4" y="4" width="16" height="16">
<path d="M4 4H20V20H4V4Z" fill="white"/>
</mask>
<g mask="url(#mask0_394_2520)">
<path d="M17.8125 11.7409V8.875C17.8125 8.35719 18.2322 7.9375 18.75 7.9375C19.2678 7.9375 19.6875 8.35719 19.6875 8.875V13.12C19.6875 14.5403 18.885 15.8388 17.6147 16.4741L15.9375 17.3125V19.1875H12.625V15.1078C12.625 14.315 13.2256 13.6509 14.0144 13.5719C14.018 13.5709 15.4468 13.3523 16.1353 12.6638L16.8372 11.9622C17.0992 11.7002 17.4811 11.6234 17.8125 11.7409Z" fill="#FCE8D0"/>
<path d="M13.9675 4.8125C15.6793 4.8125 16.2759 6.38906 16.2759 7.3125C16.2759 9.1875 14.7346 10.2528 12.0003 12.625C9.26589 10.2528 7.72461 9.1875 7.72461 7.3125C7.72461 6.38906 8.32117 4.8125 10.0331 4.8125C11.084 4.8125 11.6665 5.57969 12.0003 6.19031C12.334 5.57969 12.9165 4.8125 13.9675 4.8125Z" fill="#FF7B79"/>
<path d="M6.1875 11.7409C6.51875 11.6235 6.90075 11.7001 7.16281 11.9622L7.86469 12.6638C8.53947 13.3385 9.98244 13.571 9.98562 13.5719C10.7744 13.6509 11.375 14.315 11.375 15.1078V19.1875H8.0625V17.3125L6.38531 16.4741C5.115 15.8388 4.3125 14.5403 4.3125 13.12V8.875C4.3125 8.35719 4.73219 7.9375 5.25 7.9375C5.76781 7.9375 6.1875 8.35719 6.1875 8.875V11.7409Z" fill="#FCE8D0"/>
<path d="M18.6562 16C18.6562 16.1726 18.5163 16.3125 18.3437 16.3125C18.1712 16.3125 18.0312 16.1726 18.0312 16C18.0312 15.8274 18.1712 15.6875 18.3437 15.6875C18.5163 15.6875 18.6562 15.8274 18.6562 16Z" fill="black"/>
</g>
</svg>
