<svg width="26" height="25" viewBox="0 0 26 25" fill="none" xmlns="http://www.w3.org/2000/svg">
<path d="M4.31707 19.0144C3.14952 17.8446 2.2533 16.5158 1.62841 15.0281C1.00374 13.5401 0.691406 11.9752 0.691406 10.3334C0.691406 8.69161 1.00374 7.12661 1.62841 5.63839C2.2533 4.14995 3.14952 2.82061 4.31707 1.65039L5.19907 2.53239C4.15463 3.57684 3.34907 4.77128 2.78241 6.11573C2.21574 7.46017 1.93241 8.86573 1.93241 10.3324C1.93241 11.7991 2.21574 13.2046 2.78241 14.5491C3.34907 15.8935 4.15463 17.0879 5.19907 18.1324L4.31707 19.0144ZM7.38374 15.9477C6.6393 15.1991 6.07107 14.3422 5.67907 13.3771C5.2873 12.4117 5.09141 11.3972 5.09141 10.3334C5.09141 9.26939 5.2873 8.25461 5.67907 7.28906C6.07107 6.32328 6.6393 5.46595 7.38374 4.71706L8.26574 5.59906C7.6213 6.2435 7.13796 6.97128 6.81574 7.78239C6.49352 8.5935 6.33241 9.4435 6.33241 10.3324C6.33241 11.2213 6.49352 12.0713 6.81574 12.8824C7.13796 13.6935 7.6213 14.4213 8.26574 15.0657L7.38374 15.9477ZM12.3324 23.8197V12.7837C11.7666 12.6537 11.309 12.3623 10.9594 11.9094C10.6099 11.4563 10.4351 10.9306 10.4351 10.3324C10.4351 9.61439 10.6829 9.0075 11.1784 8.51173C11.6742 8.01617 12.2811 7.76839 12.9991 7.76839C13.7171 7.76839 14.324 8.01617 14.8197 8.51173C15.3153 9.0075 15.5631 9.61439 15.5631 10.3324C15.5631 10.9306 15.3883 11.4563 15.0387 11.9094C14.6892 12.3623 14.2315 12.6537 13.6657 12.7837V23.8197H12.3324ZM18.6144 15.9477L17.7324 15.0657C18.3769 14.4213 18.8602 13.6935 19.1824 12.8824C19.5046 12.0713 19.6657 11.2213 19.6657 10.3324C19.6657 9.4435 19.5046 8.5935 19.1824 7.78239C18.8602 6.97128 18.3769 6.2435 17.7324 5.59906L18.6144 4.71706C19.3589 5.46572 19.9271 6.32261 20.3191 7.28772C20.7109 8.25306 20.9067 9.26761 20.9067 10.3314C20.9067 11.3954 20.7109 12.4102 20.3191 13.3757C19.9271 14.3415 19.3589 15.1988 18.6144 15.9477ZM21.6811 19.0144L20.7991 18.1324C21.8435 17.0879 22.6491 15.8935 23.2157 14.5491C23.7824 13.2046 24.0657 11.7991 24.0657 10.3324C24.0657 8.86573 23.7824 7.46017 23.2157 6.11573C22.6491 4.77128 21.8435 3.57684 20.7991 2.53239L21.6811 1.65039C22.8486 2.82017 23.7449 4.14895 24.3697 5.63672C24.9944 7.12472 25.3067 8.68961 25.3067 10.3314C25.3067 11.9732 24.9944 13.5382 24.3697 15.0264C23.7449 16.5148 22.8486 17.8442 21.6811 19.0144Z" fill="#2FFF8D" stroke="#2FFF8D"/>
</svg>
