<svg width="25" height="24" viewBox="0 0 25 24" fill="none" xmlns="http://www.w3.org/2000/svg">
<path fill-rule="evenodd" clip-rule="evenodd" d="M13.2267 3C13.2267 2.44772 12.779 2 12.2267 2C11.6745 2 11.2267 2.44772 11.2267 3V3.75H10.6693C8.44426 3.75 6.60266 5.48001 6.46376 7.70074L6.24276 11.2342C6.1585 12.5814 5.70621 13.8797 4.93515 14.9876C4.23847 15.9886 4.85869 17.3712 6.06962 17.5165L9.47675 17.9254V19C9.47675 20.5188 10.708 21.75 12.2267 21.75C13.7455 21.75 14.9767 20.5188 14.9767 19V17.9254L18.3839 17.5165C19.5948 17.3712 20.215 15.9886 19.5183 14.9876C18.7473 13.8797 18.295 12.5814 18.2107 11.2342L17.9897 7.70074C17.8508 5.48001 16.0092 3.75 13.7842 3.75H13.2267V3ZM10.6693 5.25C9.23633 5.25 8.05029 6.36417 7.96084 7.79438L7.73983 11.3278C7.63844 12.949 7.09418 14.5112 6.16634 15.8444C6.11598 15.9168 6.16081 16.0167 6.24834 16.0272L9.986 16.4757C11.4745 16.6543 12.979 16.6543 14.4675 16.4757L18.2051 16.0272C18.2927 16.0167 18.3375 15.9168 18.2871 15.8444C17.3593 14.5112 16.815 12.949 16.7136 11.3278L16.4926 7.79438C16.4032 6.36417 15.2172 5.25 13.7842 5.25H10.6693ZM12.2267 20.25C11.5364 20.25 10.9767 19.6904 10.9767 19V18.25H13.4767V19C13.4767 19.6904 12.9171 20.25 12.2267 20.25Z" fill="#121212"/>
</svg>
