<svg width="25" height="32" viewBox="0 0 25 32" fill="none" xmlns="http://www.w3.org/2000/svg">
<path d="M23.8664 28.3162V31.4667C23.8664 31.6081 23.8058 31.7438 23.6981 31.8438C23.5903 31.9438 23.444 32 23.2916 32C23.1392 32 22.993 31.9438 22.8852 31.8438C22.7774 31.7438 22.7168 31.6081 22.7168 31.4667V28.3162C22.7168 25.8633 20.5774 23.8781 17.9335 23.8781C16.6825 23.8781 15.5475 23.2868 14.8972 22.2963C14.8179 22.1755 14.7936 22.0304 14.8295 21.8929C14.8655 21.7555 14.9589 21.6369 15.0891 21.5633C15.2193 21.4897 15.3756 21.4672 15.5238 21.5005C15.6719 21.5339 15.7997 21.6205 15.879 21.7413C16.3189 22.4114 17.0869 22.8114 17.9335 22.8114C21.2125 22.8114 23.8664 25.2734 23.8664 28.3162ZM14.2765 24.1863L12.2266 25.6588L8.74128 23.1551C9.49363 22.5944 9.98013 21.7788 10.0589 20.8525C10.7629 21.0446 11.4929 21.142 12.2267 21.1416C16.4659 21.1416 19.9147 17.9416 19.9147 14.0083C19.9147 13.9668 19.9157 10.2741 19.9128 10.2328C19.8933 9.94427 19.634 9.73327 19.3399 9.73327C19.2415 9.73327 18.5332 9.86327 17.8399 9.47627C16.7587 8.87273 16.7532 7.5498 16.7533 7.53653C16.7561 7.1032 16.228 6.84747 15.8464 7.09793C13.4787 8.65307 10.7065 9.7076 7.69614 10.0986C7.55194 10.1172 7.4207 10.1858 7.32893 10.2907C7.23717 10.3956 7.19171 10.5289 7.20175 10.6636C7.21178 10.7984 7.27655 10.9246 7.38299 11.0168C7.48942 11.1089 7.62959 11.1602 7.77518 11.1602C7.86571 11.1602 9.72951 10.9485 11.8482 10.2345C13.2151 9.77356 14.5227 9.17362 15.7474 8.44567C16.1711 9.92073 17.3593 10.7413 18.7652 10.8154V14.0083C18.7652 17.3535 15.8321 20.0749 12.2268 20.0749C8.62143 20.0749 5.68835 17.3535 5.68835 14.0083V10.2667C5.68835 10.1252 5.62779 9.98956 5.51999 9.88954C5.41219 9.78952 5.26599 9.73333 5.11354 9.73333C4.9611 9.73333 4.81489 9.78952 4.7071 9.88954C4.5993 9.98956 4.53874 10.1252 4.53874 10.2667V14.0083C4.53874 16.8445 6.33199 19.2991 8.92163 20.448V20.5887C8.92163 21.8181 7.84789 22.8114 6.51988 22.8114C5.79479 22.8109 5.07574 22.9337 4.39841 23.1739L4.02731 22.8998C1.11513 20.7492 0.569712 16.9527 2.55573 14.1866C3.40213 13.0077 3.89208 11.5977 3.89208 10.0891V7.20027C3.89208 3.8182 6.85743 1.06667 10.5023 1.06667H13.9512C17.5961 1.06667 20.5614 3.81807 20.5614 7.2V10.0889C20.5614 11.5563 21.0213 12.9703 21.8914 14.1779C23.4828 16.3867 23.4796 19.2855 21.8353 21.4994C21.7512 21.6159 21.7199 21.7585 21.7482 21.8962C21.7765 22.034 21.8622 22.1558 21.9867 22.2354C22.1111 22.315 22.2643 22.3459 22.4132 22.3214C22.562 22.297 22.6944 22.2191 22.7818 22.1047C24.696 19.5277 24.6982 16.1544 22.8471 13.5851C22.1038 12.5535 21.711 11.3445 21.711 10.0889V7.2C21.711 3.22993 18.2299 0 13.9511 0H10.5023C6.22349 0 2.7424 3.23007 2.7424 7.20027V10.0889C2.7437 11.337 2.3457 12.5573 1.59883 13.5953C-0.718714 16.8235 -0.0619269 21.2139 3.27489 23.7067C1.63569 24.7045 0.586884 26.3989 0.586884 28.3162V31.4667C0.586884 31.6081 0.647444 31.7438 0.75524 31.8438C0.863037 31.9438 1.00924 32 1.16169 32C1.31414 32 1.46034 31.9438 1.56814 31.8438C1.67593 31.7438 1.73649 31.6081 1.73649 31.4667V28.3162C1.73649 25.8632 3.87584 23.8781 6.5198 23.8781C6.90075 23.8781 7.27711 23.8221 7.63801 23.7116L11.8748 26.755C11.9755 26.8273 12.0993 26.8666 12.2266 26.8666C12.354 26.8666 12.4778 26.8273 12.5785 26.755L14.9803 25.0297C15.0997 24.9428 15.1773 24.8155 15.196 24.6757C15.2147 24.5359 15.173 24.395 15.08 24.2836C14.9871 24.1722 14.8504 24.0995 14.6999 24.0812C14.5493 24.063 14.3971 24.1008 14.2765 24.1863Z" fill="black"/>
</svg>
