<svg width="25" height="32" viewBox="0 0 25 32" fill="none" xmlns="http://www.w3.org/2000/svg">
<path d="M16.1962 22.8074L12.5791 25.406C12.4783 25.4783 12.3545 25.5175 12.227 25.5175C12.0996 25.5175 11.9758 25.4783 11.875 25.406L8.25424 22.8047C8.03581 22.648 8.01425 22.348 8.21041 22.168C8.30938 22.0779 8.39957 21.9798 8.47994 21.875C8.62839 21.6814 8.90208 21.6096 9.14193 21.6928C11.1262 22.3807 13.3352 22.3803 15.3189 21.6904C15.559 21.6069 15.8252 21.6882 15.9762 21.8806C16.0595 21.9868 16.1449 22.0762 16.2394 22.164C16.4377 22.3467 16.4168 22.6494 16.1962 22.8074ZM18.2868 22.8225C18.1474 22.8149 18.0097 22.8543 17.8992 22.9336L12.579 26.7551C12.4782 26.8274 12.3545 26.8667 12.2271 26.8667C12.0997 26.8667 11.9759 26.8274 11.8752 26.7551L6.55497 22.9336C6.44445 22.8543 6.30675 22.8149 6.16732 22.8225C3.05325 22.9906 0.586793 25.3825 0.586793 28.316V31.4667C0.586793 31.6081 0.647355 31.7438 0.755157 31.8438C0.862958 31.9438 1.00917 32 1.16162 32H23.2926C23.4451 32 23.5913 31.9438 23.6991 31.8438C23.8069 31.7438 23.8674 31.6081 23.8674 31.4667V28.316C23.8674 25.3833 21.4019 22.9906 18.2868 22.8225ZM22.8557 13.5954C22.1069 12.5534 21.7117 11.3407 21.7117 10.0887V7.20006C21.7117 3.2394 18.2462 0.0147401 13.981 0.000740134C13.9653 -0.00032653 10.5184 7.34692e-05 10.5025 7.34692e-05C6.22365 7.34692e-05 2.74234 3.23007 2.74234 7.20006V10.0887C2.74234 11.3407 2.34714 12.5534 1.59842 13.5954C-0.40982 16.3932 -0.179672 20.0552 2.06892 22.5992C2.2515 22.8058 2.57096 22.8525 2.81613 22.7124C3.92555 22.0784 5.19765 21.7447 6.51969 21.7447C7.46881 21.7447 7.5827 21 7.1469 20.715C4.8756 19.2294 3.38902 16.7772 3.38902 14.0081V10.2668C3.38902 9.30239 4.30501 8.55332 5.34057 8.68079C8.77813 9.10319 12.2833 8.28812 15.1299 6.26346C16.2606 5.45973 17.9019 6.20746 17.9035 7.53079C17.9056 7.57212 17.9459 8.29012 18.4331 8.56212C18.6874 8.70479 18.9763 8.69679 19.1257 8.67945C20.1723 8.55719 21.0651 9.32025 21.0651 10.2668V14.0081C21.0651 16.7771 19.5785 19.2293 17.3073 20.7149C16.8713 21.0001 16.985 21.7448 17.9344 21.7448C19.2812 21.7448 20.5558 22.0924 21.6373 22.7112C21.883 22.8518 22.2029 22.8055 22.386 22.5985C24.6673 20.0188 24.8326 16.3498 22.8557 13.5954ZM19.2687 9.73738C18.972 9.77205 18.3921 9.78405 17.8403 9.47672C16.7596 8.87272 16.7538 7.55006 16.7538 7.53672C16.7569 7.09372 16.2078 6.84112 15.8291 7.11006C12.7286 9.31539 8.91559 10.196 5.18896 9.73805C4.84442 9.69598 4.53868 9.94392 4.53868 10.2667V14.008C4.53868 17.9414 7.98767 21.1414 12.227 21.1414C16.4664 21.1414 19.9154 17.9414 19.9154 14.008V10.2667C19.9154 9.95045 19.6172 9.69765 19.2687 9.73738Z" fill="#6D37B5"/>
</svg>
