<svg width="17" height="16" viewBox="0 0 17 16" fill="none" xmlns="http://www.w3.org/2000/svg">
<path fill-rule="evenodd" clip-rule="evenodd" d="M6.89323 2.16699C5.32842 2.16699 4.0599 3.43552 4.0599 5.00033C4.0599 6.56513 5.32842 7.83366 6.89323 7.83366C8.45804 7.83366 9.72656 6.56513 9.72656 5.00033C9.72656 3.43552 8.45804 2.16699 6.89323 2.16699ZM5.0599 5.00033C5.0599 3.9878 5.88071 3.16699 6.89323 3.16699C7.90575 3.16699 8.72656 3.9878 8.72656 5.00033C8.72656 6.01285 7.90575 6.83366 6.89323 6.83366C5.88071 6.83366 5.0599 6.01285 5.0599 5.00033Z" fill="#121212"/>
<path d="M2.72656 11.3337C2.72656 10.5052 3.39814 9.83366 4.22656 9.83366H4.45381C4.47138 9.83366 4.48884 9.83644 4.50554 9.84189L5.08255 10.0303C5.74687 10.2472 6.44042 10.3417 7.13019 10.3136C7.22219 10.3099 7.29741 10.2413 7.31686 10.1513C7.36586 9.92458 7.43407 9.70504 7.51971 9.49444C7.56013 9.39505 7.47808 9.28413 7.37131 9.29474C6.70781 9.36068 6.03396 9.289 5.39295 9.0797L4.81594 8.89129C4.69902 8.85311 4.5768 8.83366 4.45381 8.83366H4.22656C2.84585 8.83366 1.72656 9.95295 1.72656 11.3337V12.1258C1.72656 12.628 2.09048 13.0562 2.58608 13.1371C4.31623 13.4195 6.06722 13.5307 7.81377 13.4705C7.92208 13.4668 7.98077 13.341 7.9197 13.2515C7.79042 13.062 7.67702 12.8607 7.58139 12.6497C7.53535 12.5482 7.43476 12.4809 7.32324 12.4828C5.79351 12.5083 4.26206 12.3975 2.74721 12.1501C2.7353 12.1482 2.72656 12.1379 2.72656 12.1258V11.3337Z" fill="#121212"/>
<path fill-rule="evenodd" clip-rule="evenodd" d="M8.22656 11.0003C8.22656 11.6482 8.43196 12.2482 8.78119 12.7386C8.97578 13.0119 9.21504 13.2511 9.4883 13.4457C9.9787 13.7949 10.5786 14.0003 11.2266 14.0003C12.8834 14.0003 14.2266 12.6572 14.2266 11.0003C14.2266 10.3524 14.0212 9.75247 13.6719 9.26206C13.4773 8.9888 13.2381 8.74955 12.9648 8.55495C12.4744 8.20572 11.8745 8.00033 11.2266 8.00033C9.56971 8.00033 8.22656 9.34347 8.22656 11.0003ZM11.2266 13.0003C10.8557 13.0003 10.5083 12.8994 10.2106 12.7234L12.9497 9.98434C13.1256 10.2821 13.2266 10.6294 13.2266 11.0003C13.2266 12.1049 12.3311 13.0003 11.2266 13.0003ZM9.50347 12.0163L12.2425 9.27724C11.9448 9.10129 11.5975 9.00033 11.2266 9.00033C10.122 9.00033 9.22656 9.89576 9.22656 11.0003C9.22656 11.3712 9.32753 11.7186 9.50347 12.0163Z" fill="#121212"/>
</svg>
