<svg width="50" height="50" viewBox="0 0 50 50" fill="none" xmlns="http://www.w3.org/2000/svg">
<path d="M3.25122 11.0997C2.89892 11.2024 2.63609 11.343 2.44037 11.5754C2.16076 11.8998 2.14958 11.9485 2.17194 12.9162C2.18313 13.4731 2.18313 14.457 2.17194 15.122C2.16076 16.3114 2.16076 16.3114 1.93148 16.2411C1.47293 16.0897 0.376882 16.16 0.192343 16.3546C0.0357647 16.5168 0.0357647 16.5168 0.214712 16.4574C0.348922 16.4195 0.393659 16.4357 0.360106 16.5168C0.337738 16.5871 0.253856 16.6358 0.192343 16.6196C0.119646 16.6087 0.0749093 16.7926 0.0749093 17.1224C0.0749093 17.4143 0.0413568 17.8198 0.0133963 18.009C-0.0257484 18.2901 0.0133963 18.4145 0.231488 18.6361C0.483132 18.8956 0.567014 18.9173 1.31635 18.9173C2.01537 18.9173 2.13839 18.9497 2.18313 19.0903C2.24464 19.3227 2.17194 30.8275 2.11043 30.9897C2.07688 31.0816 1.84201 31.1194 1.38905 31.1194C0.936092 31.1194 0.606158 31.1789 0.399251 31.2924C0.0860935 31.4762 0.0749093 31.4925 0.0637251 32.2818C0.0413568 33.8875 0.0860936 33.9469 1.40024 33.9469H2.27819L2.24464 35.8824C2.2055 38.6072 2.28379 38.7262 4.30812 38.8343C7.31108 38.9857 16.1019 39.0451 17.5446 38.9262C18.0479 38.8884 18.4953 38.8776 18.9818 38.8884C19.6584 38.8992 19.8262 38.8884 19.9492 38.7748C20.0555 38.6937 20.0946 38.6937 20.0946 38.7748C20.0946 38.8343 20.1449 38.8884 20.2009 38.8884C20.2624 38.8884 20.3071 38.7965 20.3071 38.6775C20.3071 38.564 20.268 38.5045 20.2009 38.5369C20.1505 38.5694 20.0946 38.5478 20.0946 38.4883C20.0946 38.3045 20.3463 38.4288 20.4581 38.6721C20.5643 38.8938 20.5923 38.8938 22.9074 38.8938C24.1992 38.8938 25.9719 38.9262 26.8499 38.9532C29.2153 39.0451 32.9229 38.9154 32.9229 38.7316C32.9229 38.6505 32.9732 38.591 33.0403 38.591C33.1018 38.591 33.1354 38.6613 33.0906 38.7424C33.0515 38.8721 33.1633 38.8938 33.84 38.8938C34.2762 38.9046 36.6863 38.9154 39.2028 38.9262C41.708 38.937 43.7268 38.9154 43.6988 38.8667C43.6765 38.8289 43.7324 38.7965 43.8219 38.7965C43.9281 38.7965 43.9561 38.8451 43.9169 38.9154C43.7939 39.1046 46.5228 38.9478 46.9814 38.7262C47.7419 38.3639 47.7867 38.2126 47.7922 36.023C47.8034 34.9417 47.8314 33.9956 47.8761 33.9037C47.9153 33.7848 47.9992 33.7631 48.1669 33.8118C48.4689 33.9145 49.6041 33.8604 49.8166 33.7523C49.9508 33.6712 49.9396 33.6604 49.783 33.6496C49.6656 33.6496 49.6041 33.6009 49.6376 33.5198C49.66 33.4604 49.7327 33.4063 49.783 33.4171C49.9172 33.4496 50.0235 31.8331 49.9061 31.633C49.6544 31.2005 49.6153 31.1789 48.6646 31.1302L47.714 31.0816L47.6916 24.9994L47.658 18.9281H48.5863C49.4419 18.9281 49.5146 18.9064 49.7663 18.6469C49.9843 18.4253 50.0291 18.3063 49.9843 18.0198C49.9508 17.8306 49.9228 17.4251 49.9228 17.144C49.9228 16.8034 49.8837 16.6196 49.8054 16.6412C49.7439 16.652 49.66 16.6033 49.6376 16.5277C49.6041 16.4466 49.6488 16.4249 49.783 16.4682C49.9508 16.5277 49.9508 16.5168 49.8166 16.3763C49.6488 16.2033 48.6199 16.1222 48.1501 16.2465C47.6804 16.3655 47.6413 16.2573 47.5742 14.4408C47.4567 11.6349 47.2386 11.2348 45.8126 11.2727C45.3932 11.2835 45.0018 11.2619 44.9347 11.2348C44.8228 11.1375 43.0502 11.0186 42.1554 11.0186C41.8087 11.0294 41.2048 11.0294 40.8021 11.0294C40.4051 11.0294 38.3416 11.051 36.211 11.0618C34.0916 11.0726 31.9554 11.0943 31.4633 11.1105C30.9712 11.1267 30.3673 11.1483 30.11 11.1429C26.0614 11.0834 22.7061 11.0618 22.5272 11.1051C22.393 11.1375 22.2979 11.197 22.3203 11.2348C22.3314 11.2727 22.2979 11.3159 22.2364 11.3267C22.186 11.3484 22.1301 11.2943 22.1301 11.224C22.1301 11.1321 21.6268 11.1051 19.9939 11.1051C18.3331 11.1051 17.869 11.1375 17.8745 11.224C17.8969 11.2943 17.8354 11.3538 17.7403 11.3538C17.6565 11.3538 17.6061 11.3159 17.6341 11.2619C17.7571 11.078 17.0805 11.051 12.3272 11.051C9.68772 11.051 6.68476 11.0294 5.65023 11.0132C4.28016 10.9807 3.62589 11.0078 3.25122 11.0997ZM24.4508 13.8299C38.7275 13.8515 43.4528 13.8191 43.4528 13.738C43.4528 13.6461 43.4863 13.6569 43.5367 13.738C43.5758 13.8083 43.8498 13.8785 44.1294 13.8893L44.6495 13.9218L44.6607 14.4246C44.683 15.2301 44.8173 23.3775 44.8061 23.5505C44.7725 24.4101 44.8061 30.8924 44.8564 33.1522C44.9067 35.4121 44.8955 36.0554 44.7949 36.1149C44.7222 36.1527 44.3251 36.1744 43.9281 36.1636C43.1564 36.1311 40.338 36.1311 29.5341 36.1419C23.9308 36.1527 23.2038 36.1744 23.2541 36.3041C23.2933 36.4068 23.243 36.4555 23.1087 36.4555C22.9745 36.4555 22.9186 36.4068 22.9634 36.3041C23.0137 36.1744 22.3594 36.1636 17.718 36.1636C14.8101 36.1744 11.5667 36.2014 10.5098 36.2338C9.46404 36.2717 8.61404 36.2717 8.61404 36.223C8.61404 36.1041 8.25055 36.1419 8.11075 36.2717C8.01568 36.3636 7.95417 36.3744 7.90384 36.2933C7.8647 36.2122 7.36141 36.1744 6.53937 36.1636C5.82917 36.1527 5.20286 36.1257 5.16371 36.0933C5.11339 36.0608 5.06865 35.6824 5.06865 35.2283C5.06865 34.5525 5.04628 34.4335 4.91207 34.4822C4.80582 34.52 4.75549 34.4714 4.75549 34.3416C4.75549 34.2119 4.80582 34.1578 4.91207 34.201C5.04628 34.2497 5.06865 33.8064 5.07983 30.6004C5.11898 18.5388 5.11898 18.6794 4.97358 18.6307C4.8897 18.5983 4.86733 18.5604 4.94003 18.5172C5.09661 18.4253 5.11898 17.2089 4.97358 16.7601C4.90089 16.5601 4.87852 16.3384 4.93444 16.2681C4.97358 16.1979 5.01832 15.6302 5.04069 15.0301C5.05187 14.4138 5.06306 13.8623 5.06306 13.7812C5.07424 13.6893 5.13575 13.6677 5.25878 13.7326C5.35385 13.7704 13.9936 13.8191 24.4508 13.8299Z" fill="#2FFF8D"/>
<path d="M38.1699 16.0862L35.9503 16.1085L35.5421 16.5055C35.1955 16.841 35.1228 16.9751 35.0725 17.4671C34.9551 18.4567 34.9551 19.8433 35.0501 22.0573C35.1004 23.237 35.134 24.3832 35.1116 24.6124C35.0893 24.8416 35.0725 26.7593 35.0725 28.8895L35.0613 32.7472L35.3129 33.1554C35.4471 33.3734 35.7099 33.6138 35.8944 33.6977C36.3137 33.8766 40.5013 33.9158 41.0548 33.748C41.5636 33.5915 41.9717 33.0715 42.0332 32.4957C42.1395 31.4837 42.0947 23.7793 41.9829 23.4886L41.8655 23.2091H40.4342C39.467 23.2091 38.9638 23.2482 38.8799 23.3321C38.7961 23.4159 38.7569 23.8241 38.7569 24.4558V25.4566L39.07 25.6355L39.3831 25.8256L39.3943 26.9941C39.3943 27.6427 39.3943 28.6826 39.3831 29.3312C39.3719 30.03 39.4167 30.5724 39.4893 30.6842C39.5732 30.8184 39.5844 30.9525 39.5005 31.1538C39.3943 31.4334 39.3831 31.4334 38.606 31.3942C37.717 31.3551 37.5549 31.288 37.717 31.0811C37.8344 30.9358 37.8847 23.6452 37.7897 20.2179L37.7394 18.5406L38.4886 18.5015C39.6068 18.4512 39.5956 18.44 39.5956 19.1892C39.5956 19.5526 39.6459 19.888 39.7186 19.9607C39.8136 20.0558 39.8136 20.0837 39.7186 20.0837C39.4893 20.0837 39.5844 20.3744 39.836 20.4304C40.2106 20.503 41.681 20.4415 41.7872 20.3353C41.8264 20.285 41.8935 19.4799 41.9214 18.5406L41.9605 16.8298L41.6698 16.539C41.4182 16.2874 41.2002 16.2036 40.5013 16.0918C40.4342 16.0694 39.3775 16.0694 38.1699 16.0862ZM8.37003 16.2874C8.27498 16.3825 8.24703 16.9751 8.27499 18.4232C8.30853 20.7602 8.29735 20.5813 8.42035 20.3856C8.50422 20.2626 8.52658 20.2906 8.52658 20.5086C8.52658 20.654 8.47626 20.7994 8.40358 20.8217C8.30853 20.8553 8.28058 21.3025 8.28058 22.376C8.26939 23.6787 8.24703 23.9191 8.09048 24.0757C7.93394 24.221 7.90039 24.4503 7.90039 25.4119C7.90039 26.0493 7.93394 26.5357 7.97307 26.5077C8.06812 26.4127 8.42035 26.737 8.42035 26.9271C8.42035 26.9997 8.3868 27.0612 8.34767 27.0612C8.29735 27.0612 8.25262 28.4925 8.23026 30.2425C8.21908 31.9925 8.25262 33.4238 8.29176 33.4238C8.34208 33.4238 8.43712 33.5412 8.49862 33.6865C8.61603 33.9381 8.65517 33.9493 9.65595 33.9493C11.1991 33.9493 11.1152 34.1394 11.0872 30.3431C11.0649 28.6826 11.0481 27.2793 11.0257 27.2234C10.9083 26.7761 10.9642 26.7537 12.4458 26.7537C14.0505 26.7537 14.6543 26.6363 15.0121 26.2617L15.2525 25.999L15.2861 21.4759C15.3084 18.4288 15.2749 16.8745 15.2022 16.7403C14.9394 16.2595 14.6599 16.2204 11.4786 16.1868C9.27577 16.17 8.4483 16.1924 8.37003 16.2874ZM12.485 18.7866C12.4962 18.8928 12.4962 20.0054 12.5073 21.269C12.5073 22.5326 12.5409 23.4774 12.5577 23.3768C12.6415 23.0637 12.7981 23.1867 12.7981 23.5725C12.7981 23.8744 12.7645 23.9359 12.6303 23.8856C12.5129 23.8464 12.485 23.8744 12.5241 24.0086C12.5744 24.1651 12.5129 24.1875 11.8867 24.1539C11.4898 24.1316 11.1376 24.0477 11.0537 23.975C10.886 23.8073 10.8748 23.5054 11.0313 23.5054C11.104 23.5054 11.1264 22.773 11.0816 21.118C11.0593 19.8042 11.0593 18.6972 11.0928 18.6692C11.132 18.6357 11.4562 18.6077 11.8252 18.6077C12.3843 18.6133 12.485 18.6412 12.485 18.7866ZM17.2932 16.2539C17.1143 16.4608 17.1758 18.7754 17.3659 18.7363C17.4274 18.7251 17.4889 18.7866 17.4889 18.8705C17.4889 18.9543 17.4274 19.0158 17.3659 18.9935C17.2708 18.9823 17.2205 19.15 17.1982 19.5246C17.1758 19.9607 17.1982 20.0669 17.3044 20.0054C17.4106 19.9439 17.4106 19.9551 17.3268 20.0781C17.159 20.2962 17.0472 32.1099 17.2038 32.8088C17.2988 33.1833 17.4106 33.3846 17.6734 33.5691L18.02 33.8375L20.754 33.7984C23.8011 33.7592 24.0191 33.7033 24.349 33.0659C24.5782 32.6187 24.6733 29.1019 24.6174 22.9798C24.595 20.4863 24.5782 18.0039 24.5782 17.4839C24.5782 16.8801 24.5391 16.4943 24.4608 16.4384C24.3881 16.4049 24.3155 16.4272 24.2931 16.4887C24.2428 16.6676 24.0639 16.6453 24.0639 16.4552C24.0639 16.3322 23.8961 16.2986 23.1749 16.2986C21.7436 16.2986 21.8498 15.952 21.861 20.7602C21.8722 22.9798 21.9002 25.4231 21.9337 26.1723C21.984 27.1619 21.9673 27.5588 21.8834 27.5588C21.6933 27.5588 21.7492 27.9558 21.9561 28.0676C22.0791 28.1515 22.1014 28.2018 22.0064 28.2577C21.9337 28.3192 21.8722 28.8336 21.8498 29.7673C21.8163 30.9749 21.7883 31.2265 21.6318 31.3831C21.4529 31.562 21.4361 31.562 21.3075 31.3831C21.151 31.1874 20.7149 31.1538 20.4018 31.3216C20.0887 31.4781 19.7644 31.1762 19.8483 30.8016C19.921 30.4885 19.9713 21.8337 19.921 18.6972L19.8818 16.5502L19.4346 16.3098C19.1326 16.1421 18.9146 16.0806 18.786 16.1421C18.5903 16.2259 17.8914 16.2259 17.5895 16.1309C17.4945 16.1309 17.3659 16.17 17.2932 16.2539ZM26.5854 16.2427C26.468 16.3993 26.4288 20.1844 26.5463 20.6931C26.5966 20.8888 26.5966 21.3808 26.5686 21.789C26.5295 22.1971 26.5351 22.5717 26.591 22.6444C26.7252 22.8121 26.591 23.1979 26.4009 23.1979C26.317 23.1979 26.2779 23.2482 26.3058 23.3041C26.3394 23.3656 26.2947 23.483 26.2108 23.5725C26.0207 23.7626 25.9704 25.2218 26.1493 25.3336C26.2108 25.3672 26.2555 25.4902 26.2555 25.5964C26.2555 25.7026 26.3058 25.8033 26.3729 25.8256C26.468 25.8592 26.4959 26.7929 26.4959 29.2473C26.4848 31.2097 26.5295 32.6857 26.591 32.764C26.6413 32.8255 26.6413 32.9094 26.6022 32.9318C26.5518 32.9653 26.5295 33.1833 26.5518 33.4126L26.591 33.8375L29.3753 33.8039C33.5238 33.7704 33.2834 34.0667 33.2946 28.9342C33.2946 25.4846 33.2834 25.328 33.0877 25.1156C32.4615 24.4391 32.3888 24.3105 32.5565 24.221C32.9759 23.9918 33.0765 23.511 33.0989 21.9455C33.1101 21.1125 33.1324 19.5973 33.1492 18.5797C33.1827 16.8298 33.1716 16.7124 32.9591 16.5167C32.6348 16.1924 32.1484 16.1309 29.3194 16.1197C27.3458 16.1197 26.6693 16.1421 26.5854 16.2427ZM30.4879 18.6245C30.5494 18.7307 30.5494 19.519 30.4879 22.5773C30.4767 23.3377 30.4264 23.3824 29.6437 23.2538L29.1964 23.1923L29.1349 22.2866C29.1013 21.7834 29.0734 21.3081 29.0622 21.2243C29.0622 21.1404 29.0957 20.4919 29.1349 19.7874L29.2076 18.5127H29.8114C30.1413 18.5071 30.4432 18.5574 30.4879 18.6245ZM30.4432 25.9542C30.4823 26.0157 30.527 26.8208 30.527 27.7377C30.527 28.6547 30.5382 29.8344 30.5382 30.3655C30.5494 30.8855 30.527 31.3663 30.4879 31.4166C30.404 31.5508 29.3194 31.5005 29.1405 31.3439C29.0231 31.2489 29.0063 31.1259 29.0678 30.8407C29.1181 30.6339 29.1628 29.4542 29.1628 28.213C29.1628 26.2729 29.1852 25.9486 29.3306 25.848C29.5262 25.7026 30.3313 25.7753 30.4432 25.9542Z" fill="#2FFF8D"/>
</svg>
