<svg width="32" height="32" viewBox="0 0 32 32" fill="none" xmlns="http://www.w3.org/2000/svg">
<path fill-rule="evenodd" clip-rule="evenodd" d="M6.6665 17.0127C6.6665 15.2024 6.6665 14.2972 7.03245 13.5016C7.3984 12.7059 8.08566 12.1168 9.46017 10.9387L10.7935 9.79582C13.2779 7.66632 14.5201 6.60156 15.9998 6.60156C17.4795 6.60156 18.7217 7.66631 21.2062 9.79581L21.2062 9.79582L22.5395 10.9387L22.5395 10.9387L22.5395 10.9387C23.914 12.1168 24.6013 12.7059 24.9672 13.5016C25.3332 14.2972 25.3332 15.2024 25.3332 17.0127V22.6666C25.3332 25.1807 25.3332 26.4378 24.5521 27.2189C23.8823 27.8887 22.8625 27.9841 21 27.9977V20C21 18.8954 20.1046 18 19 18H13C11.8954 18 11 18.8954 11 20V27.9977C9.13731 27.9841 8.11738 27.8887 7.44755 27.2189C6.6665 26.4378 6.6665 25.1807 6.6665 22.6666V17.0127Z" fill="#0099FF"/>
<path d="M13 21C13 20.4477 13.4477 20 14 20H18C18.5523 20 19 20.4477 19 21V28H13V21Z" fill="#222222"/>
</svg>
