<svg width="32" height="32" viewBox="0 0 32 32" fill="none" xmlns="http://www.w3.org/2000/svg">
<path fill-rule="evenodd" clip-rule="evenodd" d="M6.97417 15.9456C7.26435 15.6672 7.72296 15.6672 8.64017 15.6672L8.66922 15.6672C8.81024 15.6673 8.98711 15.6674 9.14411 15.6499C9.33702 15.6284 9.59143 15.5731 9.84106 15.4001C9.94793 15.326 10.0349 15.2436 10.1063 15.1599C10.1067 15.1595 10.1072 15.1594 10.1077 15.1595C10.1079 15.1595 10.1082 15.1597 10.1084 15.1599C10.4069 15.4981 10.7831 15.5992 11.0477 15.6364C11.2697 15.6675 11.5313 15.6673 11.7561 15.6672L11.7993 15.6672H14.4504L14.4861 15.6672C14.6637 15.6673 14.8795 15.6675 15.0674 15.6435C15.2961 15.6144 15.606 15.5376 15.8845 15.2917C15.9495 15.2343 16.0502 15.2343 16.1152 15.2917C16.3937 15.5376 16.7036 15.6144 16.9323 15.6435C17.1202 15.6675 17.336 15.6673 17.5136 15.6672L17.5493 15.6672H20.2004L20.2436 15.6672C20.4684 15.6673 20.73 15.6675 20.952 15.6364C21.2165 15.5992 21.5928 15.4981 21.8913 15.1599C21.8918 15.1593 21.8928 15.1593 21.8933 15.1599C21.9648 15.2436 22.0517 15.326 22.1586 15.4001C22.4082 15.5731 22.6627 15.6284 22.8556 15.6499C23.0126 15.6674 23.1894 15.6673 23.3305 15.6672L23.3595 15.6672C24.2767 15.6672 24.7353 15.6672 25.0255 15.9456C25.0306 15.9505 25.0357 15.9555 25.0407 15.9605C25.0454 15.9652 25.0501 15.97 25.0548 15.9749C25.3332 16.265 25.3332 16.7236 25.3332 17.6409V26.0005C25.3332 26.9433 25.3332 27.4147 25.0403 27.7076C24.7474 28.0005 24.276 28.0005 23.3332 28.0005H19.1832C19.266 28.0005 19.3332 27.9334 19.3332 27.8505V22.0005C19.3332 20.896 18.4377 20.0005 17.3332 20.0005H14.6665C13.5619 20.0005 12.6665 20.896 12.6665 22.0005V27.8505C12.6665 27.9334 12.7337 28.0005 12.8165 28.0005H8.6665C7.72369 28.0005 7.25229 28.0005 6.9594 27.7076C6.6665 27.4147 6.6665 26.9433 6.6665 26.0005V17.6409C6.6665 16.7236 6.6665 16.265 6.94493 15.9749C6.95447 15.9649 6.96422 15.9552 6.97417 15.9456ZM6.87697 13.47C6.87685 13.4699 6.88005 13.4637 6.88817 13.4479C7.10983 13.0172 7.5204 12.7239 8.34155 12.1374L8.34155 12.1374L10.4042 10.6641C10.5651 10.5492 10.8062 10.7392 10.7368 10.9243L10.7203 10.9682L10.72 10.969L9.8215 13.365L9.5765 14.0183C9.4588 14.3322 9.39995 14.4891 9.27147 14.5782C9.14299 14.6672 8.97538 14.6672 8.64017 14.6672H7.92057C7.83062 14.6672 7.78564 14.6672 7.67425 14.6414C7.25884 14.5451 6.82598 13.8355 6.93047 13.4221C6.95364 13.3305 6.87753 13.4703 6.87697 13.47ZM11.5305 9.86413C11.5633 9.83616 11.6873 9.74754 11.9355 9.5703L13.6749 8.32787C14.7976 7.52596 15.3589 7.125 15.9998 7.125C16.6408 7.125 17.2021 7.52596 18.3248 8.32787L20.0642 9.5703C20.3123 9.74754 20.4364 9.83616 20.4692 9.86413C20.6027 9.97809 20.6666 10.0302 20.7063 10.0967C20.7459 10.1633 20.7613 10.2442 20.798 10.4159C20.807 10.4581 20.8304 10.6451 20.8772 11.0193L20.8772 11.0193L20.883 11.0659L20.8831 11.0667L21.1927 13.5432L21.2005 13.6058C21.2605 14.0882 21.2848 14.3359 21.1416 14.4981C20.9923 14.6672 20.7284 14.6672 20.2004 14.6672H17.5493C17.1289 14.6672 16.9188 14.6672 16.777 14.542C16.6352 14.4169 16.6091 14.2083 16.557 13.7912L16.5037 13.365L16.2102 11.017L16.2046 10.9719L16.1983 10.9215C16.1248 10.3339 16.0881 10.0401 15.9998 10.0401C15.9116 10.0401 15.8748 10.3339 15.8014 10.9215L15.7951 10.9719L15.7894 11.017L15.4959 13.365L15.4427 13.7912C15.3905 14.2083 15.3645 14.4169 15.2227 14.542C15.0809 14.6672 14.8707 14.6672 14.4504 14.6672H11.7993C11.2713 14.6672 11.0073 14.6672 10.8581 14.4981C10.7149 14.3359 10.7392 14.0882 10.7992 13.6058L10.807 13.5432L11.1166 11.0667L11.1167 11.0659L11.1225 11.0193L11.1225 11.0193L11.1225 11.0192C11.1693 10.6451 11.1926 10.4581 11.2016 10.4159C11.2383 10.2442 11.2538 10.1633 11.2934 10.0967C11.3331 10.0302 11.3969 9.97809 11.5305 9.86413ZM21.5954 10.664C21.4346 10.5491 21.1935 10.7391 21.2629 10.9242L21.2629 10.9243L21.2794 10.9682L21.2797 10.969L22.1782 13.365L22.4232 14.0183C22.5409 14.3322 22.5997 14.4891 22.7282 14.5782C22.8567 14.6672 23.0243 14.6672 23.3595 14.6672H24.0791C24.1691 14.6672 24.214 14.6672 24.3254 14.6414C24.7408 14.5451 25.1737 13.8355 25.0692 13.4221C25.0492 13.343 25.1033 13.4365 25.1187 13.4633C25.1249 13.474 25.1249 13.474 25.1115 13.4479C24.8898 13.0172 24.4793 12.7239 23.6581 12.1374L21.5954 10.664Z" fill="#222222"/>
<path d="M6.28793 5.51493C6.46982 4.78737 6.56077 4.42359 6.83203 4.21179C7.10329 4 7.47827 4 8.22822 4H23.7718C24.5217 4 24.8967 4 25.168 4.21179C25.4392 4.42359 25.5302 4.78737 25.7121 5.51493L27.8447 14.0454C27.9162 14.3314 27.9519 14.4744 27.8769 14.5705C27.8018 14.6667 27.6544 14.6667 27.3596 14.6667H23.4107C23.0523 14.6667 22.8731 14.6667 22.7402 14.5678C22.6074 14.469 22.5559 14.2973 22.4529 13.954L21.2641 9.99155C21.0476 9.26969 20.9393 8.90876 20.8502 8.92642C20.7611 8.94407 20.7986 9.31902 20.8736 10.0689L21.2234 13.5672C21.2748 14.0808 21.3004 14.3377 21.1516 14.5022C21.0027 14.6667 20.7446 14.6667 20.2283 14.6667H17.5717C17.1416 14.6667 16.9265 14.6667 16.7837 14.5374C16.6408 14.4081 16.6194 14.1941 16.5766 13.7662L16.199 9.99007C16.1267 9.26668 16.0905 8.90499 16 8.90499C15.9095 8.90499 15.8733 9.26668 15.801 9.99007L15.4234 13.7662C15.3806 14.1941 15.3592 14.4081 15.2163 14.5374C15.0735 14.6667 14.8584 14.6667 14.4283 14.6667H11.7717C11.2554 14.6667 10.9973 14.6667 10.8484 14.5022C10.6996 14.3377 10.7252 14.0808 10.7766 13.5672L11.1264 10.0689C11.2014 9.31902 11.2389 8.94407 11.1498 8.92642C11.0607 8.90876 10.9524 9.26969 10.7359 9.99155L9.54713 13.954C9.44414 14.2973 9.39265 14.469 9.25978 14.5678C9.12692 14.6667 8.94772 14.6667 8.5893 14.6667H4.64039C4.3456 14.6667 4.19821 14.6667 4.12314 14.5705C4.04807 14.4744 4.08382 14.3314 4.15532 14.0454L6.28793 5.51493Z" fill="#007BFF"/>
</svg>
