<svg width="28" height="28" viewBox="0 0 28 28" fill="none" xmlns="http://www.w3.org/2000/svg">
<path d="M13.1436 0.527344C15.4516 0.380077 17.756 0.828709 19.8369 1.82617L20.25 2.03223C22.4366 3.1739 24.2687 4.8932 25.5469 7.00293C26.8251 9.11274 27.5005 11.5332 27.5 14L27.4961 14.335C27.413 17.6822 26.0884 20.88 23.7803 23.3057L23.5459 23.5459C21.0142 26.0775 17.5803 27.5 14 27.5C10.5315 27.5 7.20086 26.1645 4.69434 23.7793L4.4541 23.5459C1.92245 21.0142 0.500099 17.5803 0.5 14L0.509766 13.9014C0.522565 13.8375 0.547894 13.7769 0.583984 13.7227L0.646484 13.6465C0.740252 13.5527 0.867391 13.5 1 13.5C1.09951 13.5 1.19578 13.5296 1.27734 13.584L1.35352 13.6465C1.42367 13.7167 1.47101 13.8054 1.49023 13.9014L1.5 14C1.49622 16.6148 2.31075 19.1609 3.82324 21.2832L4.13574 21.7012C5.74087 23.7657 7.94911 25.2722 10.4473 26.0156L10.9502 26.1543C13.4856 26.7951 16.154 26.6249 18.5811 25.6748L19.0635 25.4746C21.6162 24.3504 23.7204 22.4056 25.042 19.9492C26.281 17.6463 26.7649 15.017 26.4346 12.4316L26.3584 11.915C25.9191 9.33709 24.6836 6.96633 22.833 5.13086L22.4551 4.77051C20.3944 2.89045 17.7645 1.7523 14.9834 1.53711C12.3761 1.33544 9.77576 1.9559 7.54492 3.30371L7.10352 3.58301L5.71973 4.5H8C8.13261 4.5 8.25975 4.55272 8.35352 4.64648C8.44717 4.74023 8.5 4.86748 8.5 5C8.49993 5.09941 8.47041 5.19586 8.41602 5.27734L8.35352 5.35352C8.25977 5.44717 8.13252 5.5 8 5.5H5C4.90063 5.5 4.80415 5.4703 4.72266 5.41602L4.64648 5.35352C4.5528 5.25984 4.5001 5.13247 4.5 5V2C4.5 1.90067 4.52974 1.80413 4.58398 1.72266L4.64648 1.64648C4.74025 1.55272 4.86739 1.5 5 1.5C5.09951 1.5 5.19577 1.52956 5.27734 1.58398L5.35352 1.64648C5.44717 1.74024 5.5 1.86748 5.5 2V3.47168L6.28613 2.92383C8.18341 1.60162 10.3863 0.790163 12.6826 0.564453L13.1436 0.527344ZM13.999 5.5C16.1118 5.50234 18.1434 6.28969 19.7021 7.70117L20.0078 7.99219C21.6013 9.58575 22.4975 11.7464 22.5 14L22.4941 14.3145C22.4398 15.7806 22.0067 17.2078 21.2373 18.457L21.0674 18.7217C20.1334 20.1195 18.806 21.2092 17.2529 21.8525C15.6998 22.4959 13.9906 22.6639 12.3418 22.3359C10.693 22.008 9.178 21.1985 7.98926 20.0098C6.80074 18.8211 5.99106 17.3068 5.66309 15.6582C5.33512 14.0094 5.50414 12.3002 6.14746 10.7471C6.75059 9.29098 7.74572 8.03342 9.01953 7.1123L9.27734 6.93262C10.6749 5.99881 12.3182 5.50019 13.999 5.5ZM14 7.5C13.6022 7.5 13.2208 7.65815 12.9395 7.93945C12.6583 8.22074 12.5 8.60226 12.5 9V14L12.5117 14.1836C12.5343 14.3663 12.5904 14.5437 12.6777 14.707C12.765 14.8702 12.8811 15.0156 13.0205 15.1357L13.168 15.2471V15.248L16.168 17.248C16.4573 17.4409 16.8034 17.5259 17.1465 17.4922L17.2939 17.4707C17.6352 17.4025 17.9403 17.2179 18.1592 16.9512L18.248 16.832C18.4412 16.5424 18.527 16.196 18.4932 15.8525L18.4707 15.7061C18.4025 15.3647 18.2188 15.0588 17.9521 14.8398L17.832 14.752L15.5 13.1973V9C15.5 8.60226 15.3417 8.22074 15.0605 7.93945C14.7792 7.65815 14.3978 7.5 14 7.5Z" fill="#222222" stroke="#222222"/>
<path d="M13.1436 0.527344C15.4516 0.380077 17.756 0.828709 19.8369 1.82617L20.25 2.03223C22.4366 3.1739 24.2687 4.8932 25.5469 7.00293C26.8251 9.11274 27.5005 11.5332 27.5 14L27.4961 14.335C27.413 17.6822 26.0884 20.88 23.7803 23.3057L23.5459 23.5459C21.0142 26.0775 17.5803 27.5 14 27.5C10.5315 27.5 7.20086 26.1645 4.69434 23.7793L4.4541 23.5459C1.92245 21.0142 0.500099 17.5803 0.5 14L0.509766 13.9014C0.522565 13.8375 0.547894 13.7769 0.583984 13.7227L0.646484 13.6465C0.740252 13.5527 0.867391 13.5 1 13.5C1.09951 13.5 1.19578 13.5296 1.27734 13.584L1.35352 13.6465C1.42367 13.7167 1.47101 13.8054 1.49023 13.9014L1.5 14C1.49622 16.6148 2.31075 19.1609 3.82324 21.2832L4.13574 21.7012C5.74087 23.7657 7.94911 25.2722 10.4473 26.0156L10.9502 26.1543C13.4856 26.7951 16.154 26.6249 18.5811 25.6748L19.0635 25.4746C21.6162 24.3504 23.7204 22.4056 25.042 19.9492C26.281 17.6463 26.7649 15.017 26.4346 12.4316L26.3584 11.915C25.9191 9.33709 24.6836 6.96633 22.833 5.13086L22.4551 4.77051C20.3944 2.89045 17.7645 1.7523 14.9834 1.53711C12.3761 1.33544 9.77576 1.9559 7.54492 3.30371L7.10352 3.58301L5.71973 4.5H8C8.13261 4.5 8.25975 4.55272 8.35352 4.64648C8.44717 4.74023 8.5 4.86748 8.5 5C8.49993 5.09941 8.47041 5.19586 8.41602 5.27734L8.35352 5.35352C8.25977 5.44717 8.13252 5.5 8 5.5H5C4.90063 5.5 4.80415 5.4703 4.72266 5.41602L4.64648 5.35352C4.5528 5.25984 4.5001 5.13247 4.5 5V2C4.5 1.90067 4.52974 1.80413 4.58398 1.72266L4.64648 1.64648C4.74025 1.55272 4.86739 1.5 5 1.5C5.09951 1.5 5.19577 1.52956 5.27734 1.58398L5.35352 1.64648C5.44717 1.74024 5.5 1.86748 5.5 2V3.47168L6.28613 2.92383C8.18341 1.60162 10.3863 0.790163 12.6826 0.564453L13.1436 0.527344ZM13.999 5.5C16.1118 5.50234 18.1434 6.28969 19.7021 7.70117L20.0078 7.99219C21.6013 9.58575 22.4975 11.7464 22.5 14L22.4941 14.3145C22.4398 15.7806 22.0067 17.2078 21.2373 18.457L21.0674 18.7217C20.1334 20.1195 18.806 21.2092 17.2529 21.8525C15.6998 22.4959 13.9906 22.6639 12.3418 22.3359C10.693 22.008 9.178 21.1985 7.98926 20.0098C6.80074 18.8211 5.99106 17.3068 5.66309 15.6582C5.33512 14.0094 5.50414 12.3002 6.14746 10.7471C6.75059 9.29098 7.74572 8.03342 9.01953 7.1123L9.27734 6.93262C10.6749 5.99881 12.3182 5.50019 13.999 5.5ZM14 7.5C13.6022 7.5 13.2208 7.65815 12.9395 7.93945C12.6583 8.22074 12.5 8.60226 12.5 9V14L12.5117 14.1836C12.5343 14.3663 12.5904 14.5437 12.6777 14.707C12.765 14.8702 12.8811 15.0156 13.0205 15.1357L13.168 15.2471V15.248L16.168 17.248C16.4573 17.4409 16.8034 17.5259 17.1465 17.4922L17.2939 17.4707C17.6352 17.4025 17.9403 17.2179 18.1592 16.9512L18.248 16.832C18.4412 16.5424 18.527 16.196 18.4932 15.8525L18.4707 15.7061C18.4025 15.3647 18.2188 15.0588 17.9521 14.8398L17.832 14.752L15.5 13.1973V9C15.5 8.60226 15.3417 8.22074 15.0605 7.93945C14.7792 7.65815 14.3978 7.5 14 7.5Z" fill="#222222" stroke="#222222"/>
<path d="M13.999 5.5C16.2527 5.5025 18.4142 6.39857 20.0078 7.99219C21.5018 9.48619 22.3829 11.4789 22.4893 13.5791L22.5 14.001C22.4998 15.5766 22.0614 17.1189 21.2373 18.457L21.0674 18.7227C20.1335 20.1203 18.8059 21.2092 17.2529 21.8525C15.7968 22.4557 14.2035 22.642 12.6514 22.3926L12.3418 22.3369C10.7958 22.0294 9.36782 21.2984 8.21582 20.2285L7.98926 20.0107C6.87481 18.8963 6.09401 17.4952 5.73047 15.9658L5.66309 15.6582C5.35562 14.1124 5.48478 12.5136 6.03223 11.04L6.14746 10.7471C6.79078 9.19411 7.87973 7.86655 9.27734 6.93262C10.6749 5.99881 12.3182 5.50019 13.999 5.5ZM14 7.5C13.6022 7.5 13.2208 7.65815 12.9395 7.93945C12.6582 8.22076 12.5 8.60218 12.5 9V14L12.5117 14.1836C12.5343 14.3665 12.5903 14.5446 12.6777 14.708C12.7651 14.8711 12.8811 15.0166 13.0205 15.1367L13.168 15.248L16.168 17.248C16.4989 17.4687 16.9039 17.5486 17.2939 17.4707C17.684 17.3927 18.0273 17.1629 18.248 16.832C18.4687 16.5011 18.5486 16.0961 18.4707 15.7061C18.4025 15.3649 18.2186 15.0597 17.9521 14.8408L17.832 14.752L15.5 13.1973V9C15.5 8.60218 15.3419 8.22076 15.0605 7.93945C14.7792 7.65815 14.3978 7.5 14 7.5Z" fill="#0099FF" stroke="#0099FF"/>
</svg>
