<svg width="25" height="24" viewBox="0 0 25 24" fill="none" xmlns="http://www.w3.org/2000/svg">
<path d="M14.3627 3.36144L14.8602 3.31169L14.3627 3.36144ZM14.2103 2.54161L13.766 2.7708V2.77081L14.2103 2.54161ZM14.6576 4.81793L15.0552 4.51467V4.51467L14.6576 4.81793ZM15.586 5.20248L15.5194 4.70694L15.5194 4.70694L15.586 5.20248ZM16.8244 4.38113L17.1411 4.76811V4.76811L16.8244 4.38113ZM17.5119 3.90918L17.664 4.38547L17.5119 3.90918ZM18.2138 3.94419L18.4126 3.48541V3.48541L18.2138 3.94419ZM18.8509 4.4822L18.4973 4.83575V4.83575L18.8509 4.4822ZM19.7443 5.37567L20.0979 5.02211V5.02211L19.7443 5.37567ZM20.2823 6.01275L20.7411 5.81396L20.7411 5.81396L20.2823 6.01275ZM20.3173 6.71464L20.7936 6.8668L20.7936 6.86679L20.3173 6.71464ZM19.8454 7.4021L19.4584 7.08548V7.08548L19.8454 7.4021ZM19.024 8.64056L18.5285 8.5739V8.5739L19.024 8.64056ZM19.4086 9.56893L19.1053 9.96645L19.4086 9.56893ZM20.8651 9.86385L20.9149 9.36633L20.8651 9.86385ZM21.685 10.0162L21.9142 9.57187L21.9142 9.57187L21.685 10.0162ZM22.1565 10.5373L22.6215 10.3534V10.3534L22.1565 10.5373ZM22.1565 13.4626L21.6916 13.2788L21.6916 13.2788L22.1565 13.4626ZM21.6849 13.9838L21.914 14.4282H21.914L21.6849 13.9838ZM20.8652 14.1361L20.8154 13.6386L20.7991 13.6402L20.783 13.6429L20.8652 14.1361ZM20.8652 14.1361L20.9149 14.6337L20.9312 14.632L20.9474 14.6293L20.8652 14.1361ZM19.4091 14.4309L19.1059 14.0333L19.4091 14.4309ZM19.0244 15.3596L18.5289 15.4264V15.4264L19.0244 15.3596ZM19.8455 16.5976L19.4586 16.9142L19.8455 16.5976ZM20.3174 17.2848L19.8411 17.437L19.8411 17.437L20.3174 17.2848ZM20.2823 17.9869L19.8236 17.7881L19.8236 17.7881L20.2823 17.9869ZM19.7445 18.6238L20.098 18.9773L19.7445 18.6238ZM18.8509 19.5174L18.4973 19.1638V19.1638L18.8509 19.5174ZM18.2138 20.0554L18.4126 20.5141L18.4126 20.5141L18.2138 20.0554ZM17.5119 20.0904L17.3598 20.5667H17.3598L17.5119 20.0904ZM16.8245 19.6184L17.1411 19.2314L17.1368 19.228L16.8245 19.6184ZM16.8245 19.6184L16.5078 20.0054L16.5121 20.0088L16.8245 19.6184ZM15.5861 18.7971L15.6527 18.3015H15.6527L15.5861 18.7971ZM14.6577 19.1816L15.0552 19.4849L15.0552 19.4849L14.6577 19.1816ZM14.3627 20.6383L13.8652 20.5886L14.3627 20.6383ZM14.2103 21.4585L13.7659 21.2292L13.7659 21.2292L14.2103 21.4585ZM13.6894 21.9299L13.5055 21.465H13.5055L13.6894 21.9299ZM10.7639 21.9299L10.9477 21.465H10.9477L10.7639 21.9299ZM10.2428 21.4584L10.6872 21.2292L10.2428 21.4584ZM10.0904 20.6385L9.5929 20.6883L10.0904 20.6385ZM9.79548 19.182L9.39795 19.4853L9.39796 19.4853L9.79548 19.182ZM8.86713 18.7975L8.80049 18.3019H8.80049L8.86713 18.7975ZM7.62864 19.6189L7.31202 19.2319L7.3041 19.2384L7.29646 19.2452L7.62864 19.6189ZM7.62863 19.6189L7.94524 20.0058L7.95316 19.9994L7.96081 19.9926L7.62863 19.6189ZM6.94114 20.0908L7.09329 20.5671H7.09329L6.94114 20.0908ZM6.23928 20.0558L6.0405 20.5146H6.0405L6.23928 20.0558ZM5.60217 19.5178L5.95572 19.1642H5.95572L5.60217 19.5178ZM4.70873 18.6243L4.35518 18.9779H4.35518L4.70873 18.6243ZM4.1707 17.9873L4.62949 17.7885L4.1707 17.9873ZM4.13569 17.2854L4.61198 17.4375L4.13569 17.2854ZM4.60767 16.5979L4.99464 16.9145L4.60767 16.5979ZM5.42903 15.3594L5.92457 15.4261L5.42903 15.3594ZM5.04449 14.4311L5.34775 14.0335H5.34775L5.04449 14.4311ZM3.58799 14.1361L3.53824 14.6337H3.53824L3.58799 14.1361ZM2.76817 13.9838L2.99737 13.5394H2.99737L2.76817 13.9838ZM2.29661 13.4627L1.83163 13.6465H1.83163L2.29661 13.4627ZM2.29665 10.5372L1.83169 10.3533L1.83169 10.3533L2.29665 10.5372ZM2.76809 10.0163L2.53885 9.57193L2.53885 9.57193L2.76809 10.0163ZM3.58811 9.86384V9.36384H3.56317L3.53836 9.36633L3.58811 9.86384ZM3.58812 9.86384V10.3638H3.61306L3.63787 10.3614L3.58812 9.86384ZM5.04498 9.56881L4.74166 9.17132L4.74166 9.17132L5.04498 9.56881ZM5.42943 8.64066L5.92498 8.57408H5.92498L5.42943 8.64066ZM4.60784 7.40182L4.99482 7.0852L4.60784 7.40182ZM4.1357 6.71405L4.61201 6.56197H4.61201L4.1357 6.71405ZM4.17069 6.01243L3.71188 5.81371L3.71188 5.81371L4.17069 6.01243ZM4.7089 5.37509L5.06245 5.72864L5.06245 5.72864L4.7089 5.37509ZM5.60222 4.48177L5.24866 4.12822H5.24866L5.60222 4.48177ZM6.23933 3.94373L6.04055 3.48494H6.04055L6.23933 3.94373ZM6.94119 3.90872L7.09334 3.43243L6.94119 3.90872ZM7.62876 4.38076L7.94538 3.99378V3.99378L7.62876 4.38076ZM8.86701 5.20207L8.93374 4.70654L8.86701 5.20207ZM9.79563 4.81742L9.39805 4.51422L9.79563 4.81742ZM10.0904 3.36131L10.588 3.41106V3.41106L10.0904 3.36131ZM10.2428 2.5417L9.79835 2.31255L9.79835 2.31256L10.2428 2.5417ZM10.764 2.07001L10.9478 2.535L10.9478 2.535L10.764 2.07001ZM13.6893 2.07005L13.8731 1.60507L13.8731 1.60507L13.6893 2.07005ZM14.8602 3.31169C14.8392 3.10146 14.8213 2.91945 14.7961 2.7696C14.7701 2.61482 14.7317 2.46166 14.6547 2.31242L13.766 2.77081C13.7763 2.79088 13.7924 2.8308 13.8099 2.93519C13.8283 3.04449 13.8428 3.18775 13.8652 3.41119L14.8602 3.31169ZM15.0552 4.51467C15.0438 4.49983 15.0072 4.43872 14.9686 4.22451C14.9309 4.01507 14.9021 3.73051 14.8602 3.31169L13.8652 3.41119C13.9054 3.81323 13.9381 4.14432 13.9844 4.40161C14.0299 4.65413 14.0996 4.91083 14.2601 5.12119L15.0552 4.51467ZM15.5194 4.70694C15.3413 4.73089 15.1641 4.65749 15.0552 4.51467L14.2601 5.12118C14.587 5.54967 15.1186 5.76987 15.6527 5.69801L15.5194 4.70694ZM16.5078 3.99415C16.182 4.26069 15.9605 4.44152 15.7857 4.56296C15.607 4.68717 15.5378 4.70445 15.5194 4.70694L15.6527 5.69801C15.9149 5.66274 16.1457 5.53055 16.3564 5.38412C16.5711 5.23493 16.8283 5.02396 17.1411 4.76811L16.5078 3.99415ZM17.3597 3.4329C17.1998 3.484 17.0643 3.56512 16.9365 3.65619C16.8127 3.74436 16.6713 3.86037 16.5078 3.99415L17.1411 4.76811C17.3148 4.62591 17.4265 4.53493 17.5167 4.47062C17.6029 4.4092 17.6425 4.39234 17.664 4.38547L17.3597 3.4329ZM18.4126 3.48541C18.0795 3.3411 17.7055 3.32244 17.3597 3.4329L17.664 4.38547C17.7793 4.34865 17.904 4.35487 18.015 4.40297L18.4126 3.48541ZM19.2044 4.12865C19.055 3.97925 18.9259 3.84975 18.8115 3.74971C18.6934 3.64638 18.5667 3.55217 18.4126 3.48541L18.015 4.40297C18.0357 4.41195 18.0734 4.43267 18.1531 4.50236C18.2365 4.57534 18.3385 4.67697 18.4973 4.83575L19.2044 4.12865ZM20.0979 5.02211L19.2044 4.12865L18.4973 4.83575L19.3908 5.72922L20.0979 5.02211ZM20.7411 5.81396C20.6744 5.65988 20.5802 5.53314 20.4768 5.41502C20.3768 5.30065 20.2473 5.17151 20.0979 5.02211L19.3908 5.72922C19.5496 5.88801 19.6512 5.99001 19.7242 6.07343C19.7939 6.1531 19.8146 6.19082 19.8236 6.21155L20.7411 5.81396ZM20.7936 6.86679C20.9041 6.52106 20.8854 6.147 20.7411 5.81396L19.8236 6.21154C19.8717 6.32255 19.8779 6.44724 19.8411 6.56249L20.7936 6.86679ZM20.2324 7.71872C20.3662 7.5552 20.4822 7.41382 20.5703 7.29006C20.6614 7.16224 20.7425 7.02676 20.7936 6.8668L19.8411 6.56249C19.8342 6.58401 19.8173 6.62359 19.7559 6.7098C19.6916 6.80008 19.6006 6.91168 19.4584 7.08548L20.2324 7.71872ZM19.5196 8.70721C19.522 8.68872 19.5393 8.61958 19.6635 8.44084C19.785 8.2661 19.9658 8.0445 20.2324 7.71872L19.4584 7.08548C19.2025 7.3982 18.9916 7.65547 18.8424 7.87015C18.696 8.08084 18.5638 8.31168 18.5285 8.5739L19.5196 8.70721ZM19.7118 9.1714C19.569 9.06244 19.4956 8.88524 19.5196 8.70721L18.5285 8.5739C18.4566 9.108 18.6768 9.63959 19.1053 9.96645L19.7118 9.1714ZM20.9149 9.36633C20.496 9.32445 20.2114 9.29562 20.002 9.25793C19.7878 9.21938 19.7267 9.18271 19.7118 9.1714L19.1053 9.96645C19.3157 10.1269 19.5724 10.1967 19.8249 10.2421C20.0822 10.2884 20.4133 10.3212 20.8153 10.3614L20.9149 9.36633ZM21.9142 9.57187C21.7649 9.49489 21.6117 9.45645 21.457 9.43046C21.3071 9.4053 21.1251 9.38736 20.9149 9.36633L20.8153 10.3614C21.0388 10.3837 21.1821 10.3983 21.2914 10.4167C21.3958 10.4342 21.4357 10.4503 21.4558 10.4606L21.9142 9.57187ZM22.6215 10.3534C22.488 10.0159 22.2367 9.73825 21.9142 9.57187L21.4558 10.4606C21.5633 10.5161 21.6471 10.6086 21.6915 10.7211L22.6215 10.3534ZM22.7266 11.3682C22.7266 11.157 22.7268 10.9741 22.7167 10.8224C22.7062 10.6658 22.6832 10.5096 22.6215 10.3534L21.6915 10.7211C21.6998 10.7421 21.7119 10.7835 21.7189 10.8891C21.7263 10.9997 21.7266 11.1437 21.7266 11.3682H22.7266ZM22.7266 12.6319V11.3682H21.7266V12.6319H22.7266ZM22.6215 13.6464C22.6833 13.4903 22.7062 13.3341 22.7167 13.1775C22.7268 13.026 22.7266 12.8431 22.7266 12.6319H21.7266C21.7266 12.8564 21.7263 13.0003 21.7189 13.1109C21.7119 13.2165 21.6999 13.2578 21.6916 13.2788L22.6215 13.6464ZM21.914 14.4282C22.2367 14.2618 22.4881 13.984 22.6215 13.6464L21.6916 13.2788C21.6471 13.3914 21.5633 13.4839 21.4557 13.5394L21.914 14.4282ZM20.9149 14.6337C21.1251 14.6126 21.3071 14.5947 21.4569 14.5695C21.6117 14.5436 21.7648 14.5051 21.914 14.4282L21.4557 13.5394C21.4357 13.5498 21.3957 13.5658 21.2914 13.5833C21.1821 13.6017 21.0388 13.6163 20.8154 13.6386L20.9149 14.6337ZM20.9474 14.6293L20.9474 14.6293L20.783 13.6429L20.783 13.6429L20.9474 14.6293ZM19.7123 14.8285C19.7271 14.8172 19.7882 14.7805 20.0024 14.742C20.2118 14.7043 20.4962 14.6755 20.9149 14.6337L20.8154 13.6386C20.4135 13.6788 20.0825 13.7115 19.8253 13.7578C19.5729 13.8032 19.3162 13.8729 19.1059 14.0333L19.7123 14.8285ZM19.52 15.2929C19.496 15.1148 19.5694 14.9375 19.7123 14.8285L19.1059 14.0333C18.6772 14.3602 18.4569 14.8921 18.5289 15.4264L19.52 15.2929ZM20.2325 16.281C19.9661 15.9553 19.7853 15.7338 19.6639 15.5591C19.5397 15.3805 19.5224 15.3113 19.52 15.2929L18.5289 15.4264C18.5642 15.6885 18.6964 15.9192 18.8428 16.1298C18.9919 16.3444 19.2028 16.6016 19.4586 16.9142L20.2325 16.281ZM20.7936 17.1326C20.7425 16.9727 20.6614 16.8372 20.5704 16.7095C20.4822 16.5858 20.3663 16.4444 20.2325 16.281L19.4586 16.9142C19.6007 17.0879 19.6917 17.1995 19.756 17.2897C19.8174 17.3759 19.8342 17.4155 19.8411 17.437L20.7936 17.1326ZM20.7411 18.1858C20.8855 17.8526 20.9042 17.4784 20.7936 17.1326L19.8411 17.437C19.8779 17.5523 19.8717 17.677 19.8236 17.7881L20.7411 18.1858ZM20.098 18.9773C20.2474 18.828 20.3768 18.6989 20.4769 18.5846C20.5801 18.4665 20.6743 18.3398 20.7411 18.1858L19.8236 17.7881C19.8146 17.8088 19.7939 17.8465 19.7242 17.9261C19.6513 18.0095 19.5497 18.1115 19.3909 18.2702L20.098 18.9773ZM19.2045 19.8709L20.098 18.9773L19.3909 18.2702L18.4973 19.1638L19.2045 19.8709ZM18.4126 20.5141C18.5667 20.4474 18.6934 20.3532 18.8116 20.2498C18.9259 20.1498 19.0551 20.0203 19.2045 19.8709L18.4973 19.1638C18.3386 19.3226 18.2366 19.4242 18.1531 19.4972C18.0735 19.5669 18.0358 19.5876 18.015 19.5966L18.4126 20.5141ZM17.3598 20.5667C17.7055 20.6771 18.0796 20.6585 18.4126 20.5141L18.015 19.5966C17.904 19.6447 17.7793 19.6509 17.6641 19.6141L17.3598 20.5667ZM16.5079 20.0054C16.6714 20.1392 16.8128 20.2552 16.9365 20.3434C17.0643 20.4344 17.1998 20.5156 17.3598 20.5667L17.6641 19.6141C17.6426 19.6072 17.603 19.5904 17.5168 19.5289C17.4265 19.4646 17.3149 19.3736 17.1411 19.2314L16.5079 20.0054ZM16.5121 20.0088L16.5121 20.0089L17.1368 19.228L17.1368 19.228L16.5121 20.0088ZM15.5194 19.2926C15.5379 19.2951 15.607 19.3124 15.7858 19.4366C15.9605 19.558 16.1821 19.7389 16.5078 20.0054L17.1411 19.2314C16.8284 18.9756 16.5711 18.7646 16.3564 18.6154C16.1458 18.469 15.9149 18.3368 15.6527 18.3015L15.5194 19.2926ZM15.0552 19.4849C15.1642 19.3421 15.3414 19.2687 15.5194 19.2926L15.6527 18.3015C15.1186 18.2297 14.587 18.4499 14.2601 18.8784L15.0552 19.4849ZM14.8602 20.6881C14.9021 20.2692 14.931 19.9846 14.9687 19.7751C15.0072 19.5608 15.0439 19.4997 15.0552 19.4849L14.2601 18.8784C14.0997 19.0887 14.0299 19.3455 13.9845 19.598C13.9382 19.8553 13.9054 20.1865 13.8652 20.5886L14.8602 20.6881ZM14.6546 21.6877C14.7316 21.5385 14.7701 21.3852 14.7961 21.2304C14.8213 21.0805 14.8392 20.8984 14.8602 20.6881L13.8652 20.5886C13.8429 20.8121 13.8283 20.9554 13.8099 21.0648C13.7924 21.1692 13.7763 21.2092 13.7659 21.2292L14.6546 21.6877ZM13.8733 22.3949C14.2107 22.2614 14.4883 22.0102 14.6546 21.6877L13.7659 21.2292C13.7105 21.3367 13.6179 21.4205 13.5055 21.465L13.8733 22.3949ZM12.8582 22.5C13.0695 22.5 13.2525 22.5003 13.4041 22.4901C13.5608 22.4797 13.7171 22.4566 13.8733 22.3949L13.5055 21.465C13.4845 21.4733 13.4431 21.4853 13.3375 21.4924C13.2269 21.4997 13.0828 21.5 12.8582 21.5V22.5ZM11.5948 22.5H12.8582V21.5H11.5948V22.5ZM10.58 22.3949C10.7362 22.4567 10.8924 22.4797 11.049 22.4901C11.2006 22.5003 11.3835 22.5 11.5948 22.5V21.5C11.3702 21.5 11.2262 21.4997 11.1156 21.4924C11.01 21.4853 10.9687 21.4733 10.9477 21.465L10.58 22.3949ZM9.79843 21.6876C9.96481 22.0102 10.2425 22.2615 10.58 22.3949L10.9477 21.465C10.8352 21.4205 10.7426 21.3367 10.6872 21.2292L9.79843 21.6876ZM9.5929 20.6883C9.61392 20.8985 9.63186 21.0805 9.65703 21.2304C9.68302 21.3852 9.72145 21.5384 9.79843 21.6876L10.6872 21.2292C10.6768 21.2091 10.6607 21.1692 10.6432 21.0648C10.6249 20.9555 10.6103 20.8122 10.5879 20.5888L9.5929 20.6883ZM9.39796 19.4853C9.40927 19.5001 9.44594 19.5612 9.4845 19.7754C9.52219 19.9849 9.55101 20.2695 9.5929 20.6883L10.5879 20.5888C10.5477 20.1867 10.515 19.8556 10.4687 19.5983C10.4232 19.3458 10.3535 19.0891 10.193 18.8787L9.39796 19.4853ZM8.93378 19.293C9.11181 19.2691 9.289 19.3425 9.39795 19.4853L10.193 18.8787C9.86614 18.4503 9.33457 18.2301 8.80049 18.3019L8.93378 19.293ZM7.94526 20.0058C8.27104 19.7393 8.49265 19.5584 8.6674 19.437C8.84614 19.3128 8.91529 19.2955 8.93378 19.293L8.80049 18.3019C8.53826 18.3372 8.30741 18.4694 8.09671 18.6158C7.88203 18.765 7.62475 18.976 7.31202 19.2319L7.94526 20.0058ZM7.96081 19.9926L7.96082 19.9926L7.29646 19.2452L7.29644 19.2452L7.96081 19.9926ZM7.09329 20.5671C7.25326 20.516 7.38874 20.4349 7.51657 20.3438C7.64033 20.2557 7.78172 20.1396 7.94524 20.0058L7.31201 19.2319C7.1382 19.3741 7.02659 19.4651 6.93632 19.5294C6.85011 19.5908 6.81052 19.6077 6.789 19.6145L7.09329 20.5671ZM6.0405 20.5146C6.37352 20.6589 6.74757 20.6776 7.09329 20.5671L6.789 19.6145C6.67376 19.6514 6.54907 19.6451 6.43807 19.597L6.0405 20.5146ZM5.24862 19.8713C5.39802 20.0207 5.52716 20.1503 5.64154 20.2503C5.75967 20.3536 5.88641 20.4479 6.0405 20.5146L6.43807 19.597C6.41734 19.5881 6.37962 19.5673 6.29995 19.4977C6.21652 19.4247 6.11452 19.323 5.95572 19.1642L5.24862 19.8713ZM4.35518 18.9779L5.24862 19.8713L5.95572 19.1642L5.06228 18.2708L4.35518 18.9779ZM3.71192 18.186C3.77868 18.3401 3.87289 18.4669 3.97622 18.585C4.07627 18.6994 4.20578 18.8285 4.35518 18.9779L5.06228 18.2708C4.90349 18.112 4.80186 18.01 4.72888 17.9266C4.65918 17.8469 4.63847 17.8092 4.62949 17.7885L3.71192 18.186ZM3.65941 17.1332C3.54896 17.479 3.56762 17.853 3.71192 18.186L4.62949 17.7885C4.58139 17.6775 4.57517 17.5528 4.61198 17.4375L3.65941 17.1332ZM4.22069 16.2813C4.08689 16.4448 3.97088 16.5862 3.8827 16.7099C3.79164 16.8378 3.71051 16.9733 3.65941 17.1332L4.61198 17.4375C4.61886 17.416 4.63572 17.3764 4.69714 17.2902C4.76146 17.1999 4.85244 17.0883 4.99464 16.9145L4.22069 16.2813ZM4.9335 15.2928C4.93101 15.3113 4.91373 15.3804 4.78951 15.5592C4.66806 15.7339 4.48723 15.9555 4.22069 16.2813L4.99464 16.9145C5.25051 16.6018 5.46148 16.3445 5.61067 16.1298C5.7571 15.9192 5.8893 15.6883 5.92457 15.4261L4.9335 15.2928ZM4.74122 14.8286C4.88405 14.9375 4.95745 15.1147 4.9335 15.2928L5.92457 15.4261C5.99642 14.892 5.77622 14.3604 5.34775 14.0335L4.74122 14.8286ZM3.53824 14.6337C3.95707 14.6755 4.24163 14.7044 4.45106 14.7421C4.66528 14.7806 4.72639 14.8173 4.74122 14.8286L5.34775 14.0335C5.13739 13.8731 4.88069 13.8033 4.62817 13.7579C4.37088 13.7116 4.03979 13.6788 3.63775 13.6386L3.53824 14.6337ZM2.53898 14.4281C2.68822 14.5051 2.84138 14.5435 2.99616 14.5695C3.14601 14.5947 3.32802 14.6126 3.53824 14.6337L3.63775 13.6386C3.4143 13.6163 3.27106 13.6017 3.16175 13.5833C3.05736 13.5658 3.01744 13.5497 2.99737 13.5394L2.53898 14.4281ZM1.83163 13.6465C1.96509 13.9841 2.2164 14.2618 2.53898 14.4281L2.99737 13.5394C2.88984 13.4839 2.80607 13.3914 2.76159 13.2789L1.83163 13.6465ZM1.72656 12.6318C1.72656 12.8431 1.7263 13.0259 1.73643 13.1776C1.74689 13.3341 1.76989 13.4904 1.83163 13.6465L2.76159 13.2789C2.75328 13.2578 2.74126 13.2165 2.73421 13.1109C2.72682 13.0003 2.72656 12.8563 2.72656 12.6318H1.72656ZM1.72656 11.3683V12.6318H2.72656V11.3683H1.72656ZM1.83169 10.3533C1.76991 10.5095 1.7469 10.6658 1.73643 10.8224C1.7263 10.9741 1.72656 11.157 1.72656 11.3683H2.72656C2.72656 11.1437 2.72682 10.9997 2.73421 10.8891C2.74127 10.7834 2.75329 10.7421 2.7616 10.7211L1.83169 10.3533ZM2.53885 9.57193C2.21637 9.73829 1.96514 10.0159 1.83169 10.3533L2.7616 10.7211C2.80609 10.6086 2.88983 10.5161 2.99732 10.4606L2.53885 9.57193ZM3.53836 9.36633C3.32808 9.38735 3.14603 9.4053 2.99614 9.43047C2.84132 9.45647 2.68812 9.49492 2.53885 9.57193L2.99732 10.4606C3.0174 10.4503 3.05733 10.4342 3.16174 10.4167C3.27108 10.3983 3.41436 10.3837 3.63786 10.3614L3.53836 9.36633ZM3.58812 9.36384H3.58811V10.3638H3.58812V9.36384ZM3.58812 9.36384H3.58812V10.3638H3.58812V9.36384ZM4.74166 9.17132C4.72682 9.18265 4.6657 9.21933 4.45143 9.25789C4.24194 9.2956 3.95731 9.32443 3.53837 9.36633L3.63787 10.3614C4.04002 10.3211 4.3712 10.2884 4.62856 10.2421C4.88115 10.1966 5.13791 10.1268 5.3483 9.9663L4.74166 9.17132ZM4.93388 8.70725C4.9578 8.88524 4.88442 9.06238 4.74166 9.17132L5.3483 9.9663C5.7766 9.63946 5.99672 9.10804 5.92498 8.57408L4.93388 8.70725ZM4.22086 7.71844C4.48749 8.04432 4.66838 8.26599 4.78986 8.4408C4.91412 8.61959 4.9314 8.68875 4.93388 8.70725L5.92498 8.57408C5.88973 8.31178 5.7575 8.08087 5.61104 7.87012C5.4618 7.65537 5.25076 7.39802 4.99482 7.0852L4.22086 7.71844ZM3.65939 6.86614C3.71049 7.02617 3.79164 7.16171 3.88274 7.28959C3.97095 7.4134 4.08701 7.55484 4.22086 7.71844L4.99482 7.0852C4.85256 6.91132 4.76153 6.79966 4.69719 6.70935C4.63574 6.6231 4.61888 6.58349 4.61201 6.56197L3.65939 6.86614ZM3.71188 5.81371C3.56768 6.14663 3.54904 6.52052 3.65939 6.86614L4.61201 6.56197C4.57522 6.44676 4.58144 6.32213 4.6295 6.21116L3.71188 5.81371ZM4.35534 5.02153C4.20589 5.17099 4.07634 5.30018 3.97625 5.41459C3.87288 5.53276 3.77865 5.65955 3.71188 5.81371L4.6295 6.21116C4.63849 6.19042 4.6592 6.15269 4.72892 6.07299C4.80193 5.98953 4.9036 5.88749 5.06245 5.72864L4.35534 5.02153ZM5.24866 4.12822L4.35534 5.02154L5.06245 5.72864L5.95577 4.83532L5.24866 4.12822ZM5.24866 4.12821L5.24866 4.12822L5.95577 4.83532L5.95577 4.83532L5.24866 4.12821ZM6.04055 3.48494C5.88646 3.55171 5.75971 3.64591 5.64158 3.74925C5.52721 3.8493 5.39807 3.97881 5.24866 4.12821L5.95577 4.83532C6.11457 4.67653 6.21657 4.57489 6.3 4.50191C6.37967 4.43221 6.41739 4.41149 6.43811 4.40251L6.04055 3.48494ZM7.09334 3.43243C6.74761 3.32199 6.37357 3.34065 6.04055 3.48494L6.43811 4.40251C6.54912 4.35442 6.6738 4.3482 6.78904 4.38501L7.09334 3.43243ZM7.94538 3.99378C7.78182 3.85997 7.64042 3.74394 7.51664 3.65575C7.38881 3.56467 7.25331 3.48354 7.09334 3.43243L6.78904 4.38501C6.81056 4.39188 6.85015 4.40874 6.93638 4.47018C7.02667 4.53451 7.13831 4.62551 7.31214 4.76774L7.94538 3.99378ZM8.93374 4.70654C8.91526 4.70405 8.84613 4.68676 8.66742 4.56255C8.49269 4.44111 8.27111 4.26029 7.94538 3.99378L7.31214 4.76774C7.62482 5.02357 7.88206 5.23451 8.0967 5.38369C8.30734 5.5301 8.53813 5.66229 8.80027 5.69759L8.93374 4.70654ZM9.39805 4.51422C9.28908 4.6571 9.11183 4.73052 8.93374 4.70654L8.80027 5.69759C9.33453 5.76954 9.86631 5.54927 10.1932 5.12062L9.39805 4.51422ZM9.59291 3.31155C9.55104 3.73026 9.52222 4.01474 9.48455 4.22412C9.44602 4.43828 9.40936 4.49938 9.39805 4.51422L10.1932 5.12062C10.3536 4.9103 10.4233 4.65367 10.4687 4.40121C10.515 4.14399 10.5478 3.81299 10.588 3.41106L9.59291 3.31155ZM9.79835 2.31256C9.72141 2.46176 9.683 2.61489 9.65702 2.76962C9.63187 2.91943 9.61393 3.10139 9.59291 3.31155L10.588 3.41106C10.6103 3.18768 10.6249 3.04447 10.6432 2.93519C10.6607 2.83083 10.6768 2.79092 10.6872 2.77085L9.79835 2.31256ZM10.5802 1.60501C10.2425 1.73847 9.96474 1.98986 9.79835 2.31255L10.6871 2.77085C10.7426 2.66329 10.8352 2.57949 10.9478 2.535L10.5802 1.60501ZM11.5947 1.5C11.3834 1.5 11.2006 1.49974 11.049 1.50986C10.8925 1.52031 10.7363 1.54331 10.5802 1.60501L10.9478 2.535C10.9688 2.5267 11.0101 2.51469 11.1157 2.50764C11.2262 2.50026 11.3702 2.5 11.5947 2.5V1.5ZM12.8583 1.5H11.5947V2.5H12.8583V1.5ZM13.8731 1.60507C13.7169 1.54333 13.5607 1.52033 13.4041 1.50987C13.2525 1.49974 13.0696 1.5 12.8583 1.5V2.5C13.0829 2.5 13.2269 2.50026 13.3375 2.50764C13.4431 2.5147 13.4844 2.52672 13.5054 2.53502L13.8731 1.60507ZM14.6547 2.31242C14.4883 1.98984 14.2106 1.73852 13.8731 1.60507L13.5054 2.53502C13.6179 2.57951 13.7105 2.66328 13.766 2.7708L14.6547 2.31242ZM15.7266 12C15.7266 13.933 14.1596 15.5 12.2266 15.5V16.5C14.7118 16.5 16.7266 14.4853 16.7266 12H15.7266ZM12.2266 8.5C14.1596 8.5 15.7266 10.067 15.7266 12H16.7266C16.7266 9.51472 14.7118 7.5 12.2266 7.5V8.5ZM8.72656 12C8.72656 10.067 10.2936 8.5 12.2266 8.5V7.5C9.74128 7.5 7.72656 9.51472 7.72656 12H8.72656ZM12.2266 15.5C10.2936 15.5 8.72656 13.933 8.72656 12H7.72656C7.72656 14.4853 9.74128 16.5 12.2266 16.5V15.5Z" fill="#111111"/>
</svg>
