<svg width="16" height="13" viewBox="0 0 16 13" fill="none" xmlns="http://www.w3.org/2000/svg">
<path d="M13.1875 7.4375C13.1875 7.69637 13.3974 7.90625 13.6562 7.90625C13.9151 7.90625 14.125 7.69637 14.125 7.4375C14.125 5.32812 13.0293 4.50631 12.0625 3.78125C11.157 3.10212 10.375 2.51562 10.375 0.875C10.375 0.616125 10.1651 0.40625 9.90625 0.40625C9.64738 0.40625 9.4375 0.616125 9.4375 0.875C9.4375 2.98438 10.5332 3.80619 11.5 4.53125C12.4055 5.21037 13.1875 5.79688 13.1875 7.4375ZM14.125 0.875C14.125 0.616125 13.9151 0.40625 13.6562 0.40625C13.3974 0.40625 13.1875 0.616125 13.1875 0.875C13.1875 2.89194 13.7274 3.70178 14.2037 4.41625C14.6453 5.07872 15.0625 5.70444 15.0625 7.4375C15.0625 7.69637 15.2724 7.90625 15.5312 7.90625C15.7901 7.90625 16 7.69637 16 7.4375C16 5.42056 15.4601 4.61072 14.9838 3.89625C14.5422 3.23378 14.125 2.60806 14.125 0.875ZM15.5312 8.84375H0.46875C0.209875 8.84375 0 9.05363 0 9.3125V12.125C0 12.3839 0.209875 12.5938 0.46875 12.5938H15.5312C15.7901 12.5938 16 12.3839 16 12.125V9.3125C16 9.05363 15.7901 8.84375 15.5312 8.84375ZM13.1875 9.78125V11.6562H6.59375V9.78125H13.1875ZM0.9375 9.78125H5.65625V11.6562H0.9375V9.78125ZM15.0625 11.6562H14.125V9.78125H15.0625V11.6562Z" fill="black"/>
</svg>
