<svg width="24" height="24" viewBox="0 0 24 24" fill="none" xmlns="http://www.w3.org/2000/svg">
<mask id="mask0_394_2591" style="mask-type:luminance" maskUnits="userSpaceOnUse" x="4" y="4" width="16" height="16">
<path d="M4 4H20V20H4V4Z" fill="white"/>
</mask>
<g mask="url(#mask0_394_2591)">
<path d="M18.8973 9.16471C19.9512 10.2186 19.9512 11.9241 18.8973 12.978C18.6643 13.211 18.3995 13.3925 18.1168 13.5225C18.722 12.4895 18.5813 11.1416 17.6947 10.255C16.7899 9.35021 16.6619 7.96502 17.3108 6.92431C17.4793 6.65412 17.713 6.43056 17.9848 6.26456L18.4181 5.99984C17.8801 7.01815 18.0398 8.30718 18.8973 9.16471Z" fill="#E1E3E9"/>
<path d="M19.6875 17.5878L17.5878 19.6875L4.3125 6.41219L6.41216 4.3125L19.6875 17.5878Z" fill="#F9F9F9"/>
<path d="M10.9132 8.81343L8.81352 10.9131L7.76367 9.86327L9.86333 7.76359L10.9132 8.81343Z" fill="#FFD89E"/>
<path d="M17.5878 19.6875L16.4238 18.5236L18.5235 16.4239L19.6874 17.5878L17.5878 19.6875Z" fill="#FF9D6C"/>
<path d="M6.41216 4.31259L4.3125 6.41225L7.76353 9.86328L9.86319 7.76363L6.41216 4.31259Z" fill="#FFCB7C"/>
</g>
</svg>
