<svg width="36" height="38" viewBox="0 0 36 38" fill="none" xmlns="http://www.w3.org/2000/svg">
<path d="M35.693 20.1529C35.693 29.9247 27.7718 37.8458 18.0001 37.8458C8.2283 37.8458 0.307129 29.9247 0.307129 20.1529C0.307129 10.3811 8.2283 2.45996 18.0001 2.45996C27.7718 2.45996 35.693 10.3811 35.693 20.1529Z" fill="#D4B2FF"/>
<path d="M35.6931 20.153C35.6931 29.9236 27.7695 37.8471 17.999 37.8471C13.1284 37.8471 8.7166 35.8765 5.5166 32.6941L30.3578 7.49414C33.6519 10.7059 35.6931 15.1883 35.6931 20.153Z" fill="#FFD700"/>
<path d="M18 20.1529H31.1618C31.1618 16.5241 29.6853 13.2335 27.3024 10.8506L18 20.1529Z" fill="#FEFEFE"/>
<path d="M27.3024 10.8506C24.9188 8.46709 21.6288 6.99121 18 6.99121V20.153L27.3024 10.8506Z" fill="#6D37B5"/>
<path d="M18.0001 20.153V6.99121C14.3713 6.99121 11.0813 8.46768 8.69775 10.85L18.0001 20.153Z" fill="#FEFEFE"/>
<path d="M31.1618 20.1533H18L27.3024 29.4557C29.6859 27.0727 31.1618 23.7821 31.1618 20.1533Z" fill="#6D37B5"/>
<path d="M18 33.3151C21.6288 33.3151 24.9194 31.8386 27.3024 29.4557L18 20.1533V33.3151Z" fill="#FEFEFE"/>
<path d="M18.0001 20.1529L8.69779 10.8506C6.31426 13.2335 4.83838 16.5241 4.83838 20.1529H18.0001Z" fill="#6D37B5"/>
<path d="M4.83838 20.1533C4.83838 23.7821 6.31485 27.0727 8.6972 29.4557L18.0001 20.1533H4.83838Z" fill="#FEFEFE"/>
<path d="M18.0001 20.1533L8.69775 29.4557C11.0807 31.8392 14.3713 33.3151 18.0001 33.3151V20.1533Z" fill="#6D37B5"/>
<path d="M21.6693 3.68273C21.6693 5.33567 19.8046 9.96509 18.734 12.1063C18.434 12.7121 17.5693 12.7121 17.2634 12.1063C16.1928 9.96509 14.334 5.33567 14.334 3.68273C14.334 1.36509 15.9752 0.15332 17.9987 0.15332C20.0222 0.15332 21.6693 1.36509 21.6693 3.68273Z" fill="#FFD80C"/>
<path d="M21.6696 3.68273C21.6696 5.33567 19.8048 9.96509 18.7343 12.1063C18.4343 12.7121 17.5696 12.7121 17.2637 12.1063C18.3343 9.96509 20.199 5.33567 20.199 3.68273C20.199 1.65332 18.9401 0.470967 17.2696 0.212144C17.5048 0.170967 17.7519 0.15332 17.999 0.15332C20.0225 0.15332 21.6696 1.36509 21.6696 3.68273Z" fill="#FFBE00"/>
<path d="M18.0018 4.88649C18.814 4.88649 19.4724 4.22808 19.4724 3.4159C19.4724 2.60372 18.814 1.94531 18.0018 1.94531C17.1897 1.94531 16.5312 2.60372 16.5312 3.4159C16.5312 4.22808 17.1897 4.88649 18.0018 4.88649Z" fill="#FEFEFE"/>
</svg>
