<svg width="25" height="24" viewBox="0 0 25 24" fill="none" xmlns="http://www.w3.org/2000/svg">
<path d="M4.22656 18.6458V8.05426C4.22656 5.20025 4.22656 3.77325 5.10524 2.88663C5.98392 2 7.39813 2 10.2266 2H14.2266C17.055 2 18.4692 2 19.3479 2.88663C20.2266 3.77325 20.2266 5.20025 20.2266 8.05426V18.6458C20.2266 20.1575 20.2266 20.9133 19.7646 21.2108C19.0097 21.6971 17.8427 20.6774 17.2557 20.3073C16.7707 20.0014 16.5283 19.8485 16.2591 19.8397C15.9683 19.8301 15.7215 19.9768 15.1975 20.3073L13.2866 21.5124C12.7711 21.8374 12.5134 22 12.2266 22C11.9398 22 11.6821 21.8374 11.1666 21.5124L9.25569 20.3073C8.77071 20.0014 8.52822 19.8485 8.25909 19.8397C7.96828 19.8301 7.72149 19.9768 7.19743 20.3073C6.61051 20.6774 5.44343 21.6971 4.68851 21.2108C4.22656 20.9133 4.22656 20.1575 4.22656 18.6458Z" stroke="#111111" stroke-linecap="round" stroke-linejoin="round"/>
<path d="M16.2266 6H8.22656" stroke="#111111" stroke-linecap="round" stroke-linejoin="round"/>
<path d="M10.2266 10H8.22656" stroke="#111111" stroke-linecap="round" stroke-linejoin="round"/>
<path d="M14.7266 9.875C13.8982 9.875 13.2266 10.4626 13.2266 11.1875C13.2266 11.9124 13.8982 12.5 14.7266 12.5C15.555 12.5 16.2266 13.0876 16.2266 13.8125C16.2266 14.5374 15.555 15.125 14.7266 15.125M14.7266 9.875C15.3797 9.875 15.9353 10.2402 16.1412 10.75M14.7266 9.875V9M14.7266 15.125C14.0735 15.125 13.5179 14.7598 13.312 14.25M14.7266 15.125V16" stroke="#111111" stroke-linecap="round"/>
</svg>
