<svg width="65" height="64" viewBox="0 0 65 64" fill="none" xmlns="http://www.w3.org/2000/svg">
<rect x="1" y="0.5" width="63" height="63" rx="31.5" fill="#F5EDFF"/>
<rect x="1" y="0.5" width="63" height="63" rx="31.5" stroke="#6D37B5"/>
<path d="M22.5 32.667C22.5 30.7814 22.5 29.8386 23.0858 29.2528C23.6716 28.667 24.6144 28.667 26.5 28.667H38.5C40.3856 28.667 41.3284 28.667 41.9142 29.2528C42.5 29.8386 42.5 30.7814 42.5 32.667V37.3337C42.5 40.1621 42.5 41.5763 41.6213 42.455C40.7426 43.3337 39.3284 43.3337 36.5 43.3337H28.5C25.6716 43.3337 24.2574 43.3337 23.3787 42.455C22.5 41.5763 22.5 40.1621 22.5 37.3337V32.667Z" stroke="#6D37B5"/>
<path d="M38.5 28.667V26.667C38.5 25.738 38.5 25.2735 38.4384 24.8848C38.0996 22.7454 36.4216 21.0674 34.2822 20.7286C33.8935 20.667 33.429 20.667 32.5 20.667V20.667C31.571 20.667 31.1065 20.667 30.7178 20.7286C28.5784 21.0674 26.9004 22.7454 26.5616 24.8848C26.5 25.2735 26.5 25.738 26.5 26.667V28.667" stroke="#6D37B5" stroke-linecap="round"/>
</svg>
