<svg width="131" height="130" viewBox="0 0 131 130" fill="none" xmlns="http://www.w3.org/2000/svg">
<circle opacity="0.1" cx="65.5" cy="65" r="65" fill="#F8A6BD"/>
<circle cx="65.5" cy="65" r="45" fill="#6D37B5"/>
<path d="M65.4998 51.6665C58.1532 51.6665 52.1665 57.6532 52.1665 64.9998C52.1665 72.3465 58.1532 78.3332 65.4998 78.3332C72.8465 78.3332 78.8332 72.3465 78.8332 64.9998C78.8332 57.6532 72.8465 51.6665 65.4998 51.6665ZM71.8732 61.9332L64.3132 69.4932C64.1265 69.6798 63.8732 69.7865 63.6065 69.7865C63.3398 69.7865 63.0865 69.6798 62.8998 69.4932L59.1265 65.7198C58.7398 65.3332 58.7398 64.6932 59.1265 64.3065C59.5132 63.9198 60.1532 63.9198 60.5398 64.3065L63.6065 67.3732L70.4598 60.5198C70.8465 60.1332 71.4865 60.1332 71.8732 60.5198C72.2598 60.9065 72.2598 61.5332 71.8732 61.9332Z" fill="#F8F7FF"/>
</svg>
