<svg width="48" height="48" viewBox="0 0 48 48" fill="none" xmlns="http://www.w3.org/2000/svg">
<path d="M48 13.5265C48 6.056 42.4922 3.93171e-08 35.698 3.93171e-08C30.1125 3.93171e-08 25.3994 4.09435 23.8981 9.70131C22.397 4.09458 17.6844 0.000353702 12.0992 3.93171e-08C-1.55573 -0.00106095 -3.91051 21.4715 6.35175 28.8197C9.98196 31.419 13.7457 33.9484 17.0646 37.0946C18.6457 38.5934 20.1113 40.248 21.3096 42.1333C21.9359 43.1186 23.314 46.0441 23.9145 48C32.6301 41.1355 41.9834 33.2735 46.2975 22.0491C47.3334 19.3537 48 16.4651 48 13.5265Z" fill="#DB0034"/>
</svg>
